<svg width="139" height="29" viewBox="0 0 139 29" fill="none" xmlns="http://www.w3.org/2000/svg">
<mask id="path-1-outside-1_2_91" maskUnits="userSpaceOnUse" x="0" y="0" width="139" height="28" fill="black">
<rect fill="white" width="139" height="28"/>
<path d="M13.7641 5.408C14.3881 5.408 14.8441 5.464 15.1321 5.576C15.4361 5.672 15.6521 5.84 15.7801 6.08C15.9561 6.448 16.0441 6.944 16.0441 7.568V16.856C16.0441 18.536 15.4361 20.024 14.2201 21.32C13.0041 22.6 11.4521 23.24 9.56413 23.24C8.50813 23.24 7.57213 23.008 6.75613 22.544C6.02013 22.144 5.50813 21.784 5.22013 21.464L5.02813 21.272C4.46813 20.68 4.18813 20.176 4.18813 19.76C4.18813 19.328 4.46813 18.824 5.02813 18.248C5.58813 17.672 6.08413 17.384 6.51613 17.384C6.94813 17.384 7.42813 17.648 7.95613 18.176C8.48413 18.704 9.05213 18.968 9.66013 18.968C10.2841 18.968 10.7961 18.76 11.1961 18.344C11.5961 17.928 11.7961 17.376 11.7961 16.688V7.712C11.7961 6.752 11.9561 6.136 12.2761 5.864C12.6441 5.56 13.1401 5.408 13.7641 5.408ZM17.6 16.688C17.6 14.768 18.272 13.184 19.616 11.936C20.96 10.688 22.496 10.064 24.224 10.064C25.952 10.064 27.48 10.688 28.808 11.936C30.136 13.168 30.8 14.744 30.8 16.664C30.8 17.992 30.456 19.176 29.768 20.216C29.08 21.24 28.24 22 27.248 22.496C26.272 22.976 25.256 23.216 24.2 23.216C23.144 23.216 22.12 22.96 21.128 22.448C20.136 21.92 19.296 21.152 18.608 20.144C17.936 19.12 17.6 17.968 17.6 16.688ZM22.616 18.416C23.128 18.8 23.648 18.992 24.176 18.992C24.704 18.992 25.232 18.792 25.76 18.392C26.288 17.992 26.552 17.4 26.552 16.616C26.552 15.832 26.304 15.248 25.808 14.864C25.312 14.48 24.776 14.288 24.2 14.288C23.624 14.288 23.088 14.488 22.592 14.888C22.096 15.288 21.848 15.88 21.848 16.664C21.848 17.432 22.104 18.016 22.616 18.416ZM39.7906 16.664L42.9826 19.304C43.3826 19.64 43.6306 19.896 43.7266 20.072C43.8386 20.248 43.8946 20.416 43.8946 20.576C43.8946 20.96 43.6466 21.48 43.1506 22.136C42.6066 22.808 42.1266 23.144 41.7106 23.144C41.3586 23.144 40.8706 22.912 40.2466 22.448L40.0066 22.28C39.6386 21.976 39.0706 21.448 38.3026 20.696C37.5346 19.928 36.9506 19.384 36.5506 19.064V20.912C36.5506 21.28 36.5346 21.56 36.5026 21.752C36.4866 21.928 36.4146 22.136 36.2866 22.376C36.0786 22.792 35.4626 23 34.4386 23C33.4306 23 32.8146 22.784 32.5906 22.352C32.4786 22.112 32.4066 21.904 32.3746 21.728C32.3586 21.536 32.3506 21.256 32.3506 20.888V6.512C32.3506 6.144 32.3586 5.872 32.3746 5.696C32.4066 5.504 32.4786 5.288 32.5906 5.048C32.8146 4.616 33.4386 4.4 34.4626 4.4C35.2306 4.4 35.7746 4.536 36.0946 4.808C36.3666 5.032 36.5106 5.384 36.5266 5.864C36.5426 6.008 36.5506 6.232 36.5506 6.536V14.144C36.8386 13.904 37.2706 13.496 37.8466 12.92C38.4386 12.344 38.8786 11.936 39.1666 11.696L39.4546 11.504C40.0146 11.072 40.4946 10.856 40.8946 10.856C41.2946 10.856 41.7506 11.184 42.2626 11.84C42.7906 12.48 43.0546 12.984 43.0546 13.352C43.0546 13.72 42.7586 14.152 42.1666 14.648L39.7906 16.664ZM56.6833 15.176C56.6833 16.152 56.4353 16.88 55.9393 17.36C55.4593 17.824 54.9233 18.056 54.3313 18.056H48.6433C48.6433 18.504 48.9073 18.88 49.4353 19.184C49.9633 19.488 50.4913 19.64 51.0193 19.64C51.9473 19.64 52.6753 19.544 53.2033 19.352L53.4673 19.256C53.8513 19.08 54.1713 18.992 54.4273 18.992C54.9393 18.992 55.3793 19.352 55.7473 20.072C55.9553 20.504 56.0593 20.872 56.0593 21.176C56.0593 22.6 54.3553 23.312 50.9473 23.312C49.7633 23.312 48.7073 23.112 47.7793 22.712C46.8673 22.296 46.1553 21.752 45.6433 21.08C44.6353 19.784 44.1313 18.336 44.1313 16.736C44.1313 14.72 44.7793 13.112 46.0753 11.912C47.3873 10.696 49.0193 10.088 50.9713 10.088C53.1953 10.088 54.8273 10.872 55.8672 12.44C56.4113 13.272 56.6833 14.184 56.6833 15.176ZM51.6193 15.872C52.2273 15.872 52.5313 15.616 52.5313 15.104C52.5313 14.736 52.3873 14.44 52.0993 14.216C51.8273 13.992 51.4273 13.88 50.8993 13.88C50.3873 13.88 49.8753 14.096 49.3633 14.528C48.8513 14.944 48.5953 15.392 48.5953 15.872H51.6193ZM58.3451 21.872C58.0411 21.68 57.8891 21.376 57.8891 20.96C57.8891 20.544 58.1931 19.912 58.8011 19.064C58.9771 18.792 59.2571 18.656 59.6411 18.656C60.0411 18.656 60.5771 18.856 61.2491 19.256C61.9211 19.64 62.5291 19.832 63.0731 19.832C64.0491 19.832 64.5371 19.64 64.5371 19.256C64.5371 18.952 64.0011 18.728 62.9291 18.584C61.9211 18.44 60.9211 18.064 59.9291 17.456C59.4651 17.168 59.0811 16.72 58.7771 16.112C58.4731 15.488 58.3211 14.752 58.3211 13.904C58.3211 11.376 60.0571 10.112 63.5291 10.112C64.6651 10.112 65.8331 10.384 67.0331 10.928C67.5931 11.184 67.8731 11.504 67.8731 11.888C67.8731 12.272 67.6971 12.744 67.3451 13.304C66.9931 13.864 66.6331 14.144 66.2651 14.144C66.0731 14.144 65.7131 14.024 65.1851 13.784C64.6731 13.544 64.1131 13.424 63.5051 13.424C62.5611 13.424 62.0891 13.6 62.0891 13.952C62.0891 14.432 62.6331 14.744 63.7211 14.888C64.7771 15 65.8011 15.304 66.7931 15.8C67.2571 16.024 67.6411 16.416 67.9451 16.976C68.2651 17.52 68.4251 18.208 68.4251 19.04C68.4251 19.872 68.2651 20.584 67.9451 21.176C67.6411 21.752 67.2091 22.184 66.6491 22.472C65.6251 22.968 64.3371 23.216 62.7851 23.216C61.2491 23.216 59.7691 22.768 58.3451 21.872ZM81.3433 6.152C81.5033 5.864 81.7353 5.672 82.0393 5.576C82.3433 5.48 82.7193 5.432 83.1673 5.432C83.6313 5.432 83.9993 5.472 84.2713 5.552C84.5593 5.632 84.7673 5.728 84.8953 5.84C85.0393 5.952 85.1433 6.12 85.2073 6.344C85.3033 6.6 85.3513 7.008 85.3513 7.568V20.888C85.3513 21.272 85.3353 21.552 85.3033 21.728C85.2873 21.904 85.2153 22.112 85.0873 22.352C84.8633 22.784 84.2393 23 83.2153 23C82.5913 23 82.1593 22.952 81.9193 22.856C81.6793 22.76 81.4793 22.608 81.3193 22.4C77.7193 17.6 75.3513 14.464 74.2153 12.992V20.888C74.2153 21.272 74.1993 21.552 74.1673 21.728C74.1513 21.904 74.0793 22.112 73.9513 22.352C73.7273 22.784 73.1033 23 72.0793 23C71.0873 23 70.4793 22.784 70.2553 22.352C70.1273 22.112 70.0473 21.896 70.0153 21.704C69.9993 21.512 69.9913 21.232 69.9913 20.864V7.472C69.9913 6.864 70.0633 6.424 70.2073 6.152C70.3673 5.864 70.5993 5.672 70.9033 5.576C71.2073 5.48 71.5993 5.432 72.0793 5.432C72.5593 5.432 72.9353 5.48 73.2073 5.576C73.4953 5.656 73.6953 5.752 73.8073 5.864C73.8713 5.912 74.0553 6.12 74.3593 6.488C77.7353 11.08 79.9913 14.112 81.1273 15.584V7.472C81.1273 6.864 81.1993 6.424 81.3433 6.152ZM87.2647 12.464C87.2647 12.096 87.2727 11.824 87.2887 11.648C87.3207 11.456 87.3927 11.24 87.5047 11C87.7287 10.584 88.3527 10.376 89.3767 10.376C90.1447 10.376 90.6887 10.512 91.0087 10.784C91.2807 11.008 91.4247 11.352 91.4407 11.816C91.4567 11.976 91.4647 12.208 91.4647 12.512V20.912C91.4647 21.28 91.4487 21.56 91.4167 21.752C91.4007 21.928 91.3287 22.136 91.2007 22.376C90.9927 22.792 90.3767 23 89.3527 23C88.3447 23 87.7287 22.784 87.5047 22.352C87.3927 22.112 87.3207 21.904 87.2887 21.728C87.2727 21.552 87.2647 21.272 87.2647 20.888V12.464ZM91.2007 8.024C91.0887 8.248 90.8807 8.408 90.5767 8.504C90.2727 8.6 89.8647 8.648 89.3527 8.648C88.8567 8.648 88.4567 8.6 88.1527 8.504C87.8487 8.408 87.6327 8.24 87.5047 8C87.3927 7.76 87.3207 7.552 87.2887 7.376C87.2727 7.184 87.2647 6.904 87.2647 6.536C87.2647 6.168 87.2727 5.896 87.2887 5.72C87.3207 5.528 87.3927 5.32 87.5047 5.096C87.7287 4.664 88.3527 4.448 89.3767 4.448C90.3847 4.448 90.9927 4.664 91.2007 5.096C91.3287 5.336 91.4007 5.552 91.4167 5.744C91.4487 5.92 91.4647 6.192 91.4647 6.56C91.4647 6.928 91.4487 7.208 91.4167 7.4C91.4007 7.576 91.3287 7.784 91.2007 8.024ZM93.3819 7.52C93.3819 7.152 93.3899 6.88 93.4059 6.704C93.4379 6.512 93.5179 6.296 93.6459 6.056C93.8699 5.624 94.4939 5.408 95.5179 5.408C96.6379 5.408 97.3019 5.704 97.5099 6.296C97.5899 6.568 97.6299 6.984 97.6299 7.544V20.888C97.6299 21.272 97.6139 21.552 97.5819 21.728C97.5659 21.904 97.4939 22.112 97.3659 22.352C97.1419 22.784 96.5179 23 95.4939 23C94.3739 23 93.7179 22.696 93.5259 22.088C93.4299 21.832 93.3819 21.424 93.3819 20.864V7.52ZM108.018 5.096C108.146 4.856 108.362 4.688 108.666 4.592C108.97 4.496 109.37 4.448 109.866 4.448C110.378 4.448 110.786 4.496 111.09 4.592C111.394 4.688 111.602 4.856 111.714 5.096C111.842 5.336 111.914 5.552 111.93 5.744C111.962 5.92 111.978 6.192 111.978 6.56V20.888C111.978 21.256 111.962 21.536 111.93 21.728C111.914 21.904 111.842 22.104 111.714 22.328C111.474 22.76 110.794 22.976 109.674 22.976C108.57 22.976 107.954 22.584 107.826 21.8C107.154 22.568 106.218 22.952 105.018 22.952C103.578 22.952 102.266 22.328 101.082 21.08C99.8979 19.816 99.3059 18.352 99.3059 16.688C99.3059 15.008 99.8979 13.536 101.082 12.272C102.282 11.008 103.594 10.376 105.018 10.376C106.202 10.376 107.122 10.776 107.778 11.576V6.536C107.778 6.168 107.786 5.896 107.802 5.72C107.834 5.528 107.906 5.32 108.018 5.096ZM104.13 18.128C104.546 18.56 105.05 18.776 105.642 18.776C106.234 18.776 106.722 18.56 107.106 18.128C107.506 17.696 107.706 17.224 107.706 16.712C107.706 16.184 107.514 15.696 107.13 15.248C106.762 14.8 106.258 14.576 105.618 14.576C104.978 14.576 104.466 14.8 104.082 15.248C103.698 15.68 103.506 16.16 103.506 16.688C103.506 17.216 103.714 17.696 104.13 18.128ZM113.53 16.688C113.53 14.768 114.202 13.184 115.546 11.936C116.89 10.688 118.426 10.064 120.154 10.064C121.882 10.064 123.41 10.688 124.738 11.936C126.066 13.168 126.73 14.744 126.73 16.664C126.73 17.992 126.386 19.176 125.698 20.216C125.01 21.24 124.17 22 123.178 22.496C122.202 22.976 121.186 23.216 120.13 23.216C119.074 23.216 118.05 22.96 117.058 22.448C116.066 21.92 115.226 21.152 114.538 20.144C113.866 19.12 113.53 17.968 113.53 16.688ZM118.546 18.416C119.058 18.8 119.578 18.992 120.106 18.992C120.634 18.992 121.162 18.792 121.69 18.392C122.218 17.992 122.482 17.4 122.482 16.616C122.482 15.832 122.234 15.248 121.738 14.864C121.242 14.48 120.706 14.288 120.13 14.288C119.554 14.288 119.018 14.488 118.522 14.888C118.026 15.288 117.778 15.88 117.778 16.664C117.778 17.432 118.034 18.016 118.546 18.416ZM128.28 6.512C128.28 6.144 128.288 5.872 128.304 5.696C128.336 5.504 128.408 5.288 128.52 5.048C128.744 4.616 129.368 4.4 130.392 4.4C131.368 4.4 131.976 4.616 132.216 5.048C132.344 5.288 132.416 5.504 132.432 5.696C132.464 5.888 132.48 6.168 132.48 6.536V17.648C132.48 18.224 132.528 18.592 132.624 18.752C132.72 18.896 132.928 18.968 133.248 18.968C133.584 18.968 133.808 18.984 133.92 19.016C134.032 19.032 134.168 19.096 134.328 19.208C134.648 19.416 134.808 19.984 134.808 20.912C134.808 21.92 134.648 22.536 134.328 22.76C133.912 23.048 132.92 23.096 131.352 22.904C130.12 22.744 129.32 22.336 128.952 21.68C128.504 20.896 128.28 19.648 128.28 17.936V6.512Z"/>
</mask>
<path d="M13.7641 5.408C14.3881 5.408 14.8441 5.464 15.1321 5.576C15.4361 5.672 15.6521 5.84 15.7801 6.08C15.9561 6.448 16.0441 6.944 16.0441 7.568V16.856C16.0441 18.536 15.4361 20.024 14.2201 21.32C13.0041 22.6 11.4521 23.24 9.56413 23.24C8.50813 23.24 7.57213 23.008 6.75613 22.544C6.02013 22.144 5.50813 21.784 5.22013 21.464L5.02813 21.272C4.46813 20.68 4.18813 20.176 4.18813 19.76C4.18813 19.328 4.46813 18.824 5.02813 18.248C5.58813 17.672 6.08413 17.384 6.51613 17.384C6.94813 17.384 7.42813 17.648 7.95613 18.176C8.48413 18.704 9.05213 18.968 9.66013 18.968C10.2841 18.968 10.7961 18.76 11.1961 18.344C11.5961 17.928 11.7961 17.376 11.7961 16.688V7.712C11.7961 6.752 11.9561 6.136 12.2761 5.864C12.6441 5.56 13.1401 5.408 13.7641 5.408ZM17.6 16.688C17.6 14.768 18.272 13.184 19.616 11.936C20.96 10.688 22.496 10.064 24.224 10.064C25.952 10.064 27.48 10.688 28.808 11.936C30.136 13.168 30.8 14.744 30.8 16.664C30.8 17.992 30.456 19.176 29.768 20.216C29.08 21.24 28.24 22 27.248 22.496C26.272 22.976 25.256 23.216 24.2 23.216C23.144 23.216 22.12 22.96 21.128 22.448C20.136 21.92 19.296 21.152 18.608 20.144C17.936 19.12 17.6 17.968 17.6 16.688ZM22.616 18.416C23.128 18.8 23.648 18.992 24.176 18.992C24.704 18.992 25.232 18.792 25.76 18.392C26.288 17.992 26.552 17.4 26.552 16.616C26.552 15.832 26.304 15.248 25.808 14.864C25.312 14.48 24.776 14.288 24.2 14.288C23.624 14.288 23.088 14.488 22.592 14.888C22.096 15.288 21.848 15.88 21.848 16.664C21.848 17.432 22.104 18.016 22.616 18.416ZM39.7906 16.664L42.9826 19.304C43.3826 19.64 43.6306 19.896 43.7266 20.072C43.8386 20.248 43.8946 20.416 43.8946 20.576C43.8946 20.96 43.6466 21.48 43.1506 22.136C42.6066 22.808 42.1266 23.144 41.7106 23.144C41.3586 23.144 40.8706 22.912 40.2466 22.448L40.0066 22.28C39.6386 21.976 39.0706 21.448 38.3026 20.696C37.5346 19.928 36.9506 19.384 36.5506 19.064V20.912C36.5506 21.28 36.5346 21.56 36.5026 21.752C36.4866 21.928 36.4146 22.136 36.2866 22.376C36.0786 22.792 35.4626 23 34.4386 23C33.4306 23 32.8146 22.784 32.5906 22.352C32.4786 22.112 32.4066 21.904 32.3746 21.728C32.3586 21.536 32.3506 21.256 32.3506 20.888V6.512C32.3506 6.144 32.3586 5.872 32.3746 5.696C32.4066 5.504 32.4786 5.288 32.5906 5.048C32.8146 4.616 33.4386 4.4 34.4626 4.4C35.2306 4.4 35.7746 4.536 36.0946 4.808C36.3666 5.032 36.5106 5.384 36.5266 5.864C36.5426 6.008 36.5506 6.232 36.5506 6.536V14.144C36.8386 13.904 37.2706 13.496 37.8466 12.92C38.4386 12.344 38.8786 11.936 39.1666 11.696L39.4546 11.504C40.0146 11.072 40.4946 10.856 40.8946 10.856C41.2946 10.856 41.7506 11.184 42.2626 11.84C42.7906 12.48 43.0546 12.984 43.0546 13.352C43.0546 13.72 42.7586 14.152 42.1666 14.648L39.7906 16.664ZM56.6833 15.176C56.6833 16.152 56.4353 16.88 55.9393 17.36C55.4593 17.824 54.9233 18.056 54.3313 18.056H48.6433C48.6433 18.504 48.9073 18.88 49.4353 19.184C49.9633 19.488 50.4913 19.64 51.0193 19.64C51.9473 19.64 52.6753 19.544 53.2033 19.352L53.4673 19.256C53.8513 19.08 54.1713 18.992 54.4273 18.992C54.9393 18.992 55.3793 19.352 55.7473 20.072C55.9553 20.504 56.0593 20.872 56.0593 21.176C56.0593 22.6 54.3553 23.312 50.9473 23.312C49.7633 23.312 48.7073 23.112 47.7793 22.712C46.8673 22.296 46.1553 21.752 45.6433 21.08C44.6353 19.784 44.1313 18.336 44.1313 16.736C44.1313 14.72 44.7793 13.112 46.0753 11.912C47.3873 10.696 49.0193 10.088 50.9713 10.088C53.1953 10.088 54.8273 10.872 55.8672 12.44C56.4113 13.272 56.6833 14.184 56.6833 15.176ZM51.6193 15.872C52.2273 15.872 52.5313 15.616 52.5313 15.104C52.5313 14.736 52.3873 14.44 52.0993 14.216C51.8273 13.992 51.4273 13.88 50.8993 13.88C50.3873 13.88 49.8753 14.096 49.3633 14.528C48.8513 14.944 48.5953 15.392 48.5953 15.872H51.6193ZM58.3451 21.872C58.0411 21.68 57.8891 21.376 57.8891 20.96C57.8891 20.544 58.1931 19.912 58.8011 19.064C58.9771 18.792 59.2571 18.656 59.6411 18.656C60.0411 18.656 60.5771 18.856 61.2491 19.256C61.9211 19.64 62.5291 19.832 63.0731 19.832C64.0491 19.832 64.5371 19.64 64.5371 19.256C64.5371 18.952 64.0011 18.728 62.9291 18.584C61.9211 18.44 60.9211 18.064 59.9291 17.456C59.4651 17.168 59.0811 16.72 58.7771 16.112C58.4731 15.488 58.3211 14.752 58.3211 13.904C58.3211 11.376 60.0571 10.112 63.5291 10.112C64.6651 10.112 65.8331 10.384 67.0331 10.928C67.5931 11.184 67.8731 11.504 67.8731 11.888C67.8731 12.272 67.6971 12.744 67.3451 13.304C66.9931 13.864 66.6331 14.144 66.2651 14.144C66.0731 14.144 65.7131 14.024 65.1851 13.784C64.6731 13.544 64.1131 13.424 63.5051 13.424C62.5611 13.424 62.0891 13.6 62.0891 13.952C62.0891 14.432 62.6331 14.744 63.7211 14.888C64.7771 15 65.8011 15.304 66.7931 15.8C67.2571 16.024 67.6411 16.416 67.9451 16.976C68.2651 17.52 68.4251 18.208 68.4251 19.04C68.4251 19.872 68.2651 20.584 67.9451 21.176C67.6411 21.752 67.2091 22.184 66.6491 22.472C65.6251 22.968 64.3371 23.216 62.7851 23.216C61.2491 23.216 59.7691 22.768 58.3451 21.872ZM81.3433 6.152C81.5033 5.864 81.7353 5.672 82.0393 5.576C82.3433 5.48 82.7193 5.432 83.1673 5.432C83.6313 5.432 83.9993 5.472 84.2713 5.552C84.5593 5.632 84.7673 5.728 84.8953 5.84C85.0393 5.952 85.1433 6.12 85.2073 6.344C85.3033 6.6 85.3513 7.008 85.3513 7.568V20.888C85.3513 21.272 85.3353 21.552 85.3033 21.728C85.2873 21.904 85.2153 22.112 85.0873 22.352C84.8633 22.784 84.2393 23 83.2153 23C82.5913 23 82.1593 22.952 81.9193 22.856C81.6793 22.76 81.4793 22.608 81.3193 22.4C77.7193 17.6 75.3513 14.464 74.2153 12.992V20.888C74.2153 21.272 74.1993 21.552 74.1673 21.728C74.1513 21.904 74.0793 22.112 73.9513 22.352C73.7273 22.784 73.1033 23 72.0793 23C71.0873 23 70.4793 22.784 70.2553 22.352C70.1273 22.112 70.0473 21.896 70.0153 21.704C69.9993 21.512 69.9913 21.232 69.9913 20.864V7.472C69.9913 6.864 70.0633 6.424 70.2073 6.152C70.3673 5.864 70.5993 5.672 70.9033 5.576C71.2073 5.48 71.5993 5.432 72.0793 5.432C72.5593 5.432 72.9353 5.48 73.2073 5.576C73.4953 5.656 73.6953 5.752 73.8073 5.864C73.8713 5.912 74.0553 6.12 74.3593 6.488C77.7353 11.08 79.9913 14.112 81.1273 15.584V7.472C81.1273 6.864 81.1993 6.424 81.3433 6.152ZM87.2647 12.464C87.2647 12.096 87.2727 11.824 87.2887 11.648C87.3207 11.456 87.3927 11.24 87.5047 11C87.7287 10.584 88.3527 10.376 89.3767 10.376C90.1447 10.376 90.6887 10.512 91.0087 10.784C91.2807 11.008 91.4247 11.352 91.4407 11.816C91.4567 11.976 91.4647 12.208 91.4647 12.512V20.912C91.4647 21.28 91.4487 21.56 91.4167 21.752C91.4007 21.928 91.3287 22.136 91.2007 22.376C90.9927 22.792 90.3767 23 89.3527 23C88.3447 23 87.7287 22.784 87.5047 22.352C87.3927 22.112 87.3207 21.904 87.2887 21.728C87.2727 21.552 87.2647 21.272 87.2647 20.888V12.464ZM91.2007 8.024C91.0887 8.248 90.8807 8.408 90.5767 8.504C90.2727 8.6 89.8647 8.648 89.3527 8.648C88.8567 8.648 88.4567 8.6 88.1527 8.504C87.8487 8.408 87.6327 8.24 87.5047 8C87.3927 7.76 87.3207 7.552 87.2887 7.376C87.2727 7.184 87.2647 6.904 87.2647 6.536C87.2647 6.168 87.2727 5.896 87.2887 5.72C87.3207 5.528 87.3927 5.32 87.5047 5.096C87.7287 4.664 88.3527 4.448 89.3767 4.448C90.3847 4.448 90.9927 4.664 91.2007 5.096C91.3287 5.336 91.4007 5.552 91.4167 5.744C91.4487 5.92 91.4647 6.192 91.4647 6.56C91.4647 6.928 91.4487 7.208 91.4167 7.4C91.4007 7.576 91.3287 7.784 91.2007 8.024ZM93.3819 7.52C93.3819 7.152 93.3899 6.88 93.4059 6.704C93.4379 6.512 93.5179 6.296 93.6459 6.056C93.8699 5.624 94.4939 5.408 95.5179 5.408C96.6379 5.408 97.3019 5.704 97.5099 6.296C97.5899 6.568 97.6299 6.984 97.6299 7.544V20.888C97.6299 21.272 97.6139 21.552 97.5819 21.728C97.5659 21.904 97.4939 22.112 97.3659 22.352C97.1419 22.784 96.5179 23 95.4939 23C94.3739 23 93.7179 22.696 93.5259 22.088C93.4299 21.832 93.3819 21.424 93.3819 20.864V7.52ZM108.018 5.096C108.146 4.856 108.362 4.688 108.666 4.592C108.97 4.496 109.37 4.448 109.866 4.448C110.378 4.448 110.786 4.496 111.09 4.592C111.394 4.688 111.602 4.856 111.714 5.096C111.842 5.336 111.914 5.552 111.93 5.744C111.962 5.92 111.978 6.192 111.978 6.56V20.888C111.978 21.256 111.962 21.536 111.93 21.728C111.914 21.904 111.842 22.104 111.714 22.328C111.474 22.76 110.794 22.976 109.674 22.976C108.57 22.976 107.954 22.584 107.826 21.8C107.154 22.568 106.218 22.952 105.018 22.952C103.578 22.952 102.266 22.328 101.082 21.08C99.8979 19.816 99.3059 18.352 99.3059 16.688C99.3059 15.008 99.8979 13.536 101.082 12.272C102.282 11.008 103.594 10.376 105.018 10.376C106.202 10.376 107.122 10.776 107.778 11.576V6.536C107.778 6.168 107.786 5.896 107.802 5.72C107.834 5.528 107.906 5.32 108.018 5.096ZM104.13 18.128C104.546 18.56 105.05 18.776 105.642 18.776C106.234 18.776 106.722 18.56 107.106 18.128C107.506 17.696 107.706 17.224 107.706 16.712C107.706 16.184 107.514 15.696 107.13 15.248C106.762 14.8 106.258 14.576 105.618 14.576C104.978 14.576 104.466 14.8 104.082 15.248C103.698 15.68 103.506 16.16 103.506 16.688C103.506 17.216 103.714 17.696 104.13 18.128ZM113.53 16.688C113.53 14.768 114.202 13.184 115.546 11.936C116.89 10.688 118.426 10.064 120.154 10.064C121.882 10.064 123.41 10.688 124.738 11.936C126.066 13.168 126.73 14.744 126.73 16.664C126.73 17.992 126.386 19.176 125.698 20.216C125.01 21.24 124.17 22 123.178 22.496C122.202 22.976 121.186 23.216 120.13 23.216C119.074 23.216 118.05 22.96 117.058 22.448C116.066 21.92 115.226 21.152 114.538 20.144C113.866 19.12 113.53 17.968 113.53 16.688ZM118.546 18.416C119.058 18.8 119.578 18.992 120.106 18.992C120.634 18.992 121.162 18.792 121.69 18.392C122.218 17.992 122.482 17.4 122.482 16.616C122.482 15.832 122.234 15.248 121.738 14.864C121.242 14.48 120.706 14.288 120.13 14.288C119.554 14.288 119.018 14.488 118.522 14.888C118.026 15.288 117.778 15.88 117.778 16.664C117.778 17.432 118.034 18.016 118.546 18.416ZM128.28 6.512C128.28 6.144 128.288 5.872 128.304 5.696C128.336 5.504 128.408 5.288 128.52 5.048C128.744 4.616 129.368 4.4 130.392 4.4C131.368 4.4 131.976 4.616 132.216 5.048C132.344 5.288 132.416 5.504 132.432 5.696C132.464 5.888 132.48 6.168 132.48 6.536V17.648C132.48 18.224 132.528 18.592 132.624 18.752C132.72 18.896 132.928 18.968 133.248 18.968C133.584 18.968 133.808 18.984 133.92 19.016C134.032 19.032 134.168 19.096 134.328 19.208C134.648 19.416 134.808 19.984 134.808 20.912C134.808 21.92 134.648 22.536 134.328 22.76C133.912 23.048 132.92 23.096 131.352 22.904C130.12 22.744 129.32 22.336 128.952 21.68C128.504 20.896 128.28 19.648 128.28 17.936V6.512Z" fill="white"/>
<path d="M15.1321 5.576L13.6823 9.30402L13.8036 9.35116L13.9276 9.39033L15.1321 5.576ZM15.7801 6.08L19.3887 4.35418L19.3508 4.27504L19.3095 4.19764L15.7801 6.08ZM14.2201 21.32L17.1201 24.075L17.1287 24.066L17.1372 24.057L14.2201 21.32ZM6.75613 22.544L8.73333 19.0668L8.69994 19.0478L8.66618 19.0295L6.75613 22.544ZM5.22013 21.464L8.1933 18.7881L8.12293 18.71L8.04855 18.6356L5.22013 21.464ZM5.02813 21.272L2.12225 24.0208L2.16042 24.0612L2.1997 24.1004L5.02813 21.272ZM5.02813 18.248L2.16015 15.4597L2.16014 15.4597L5.02813 18.248ZM7.95613 18.176L5.1277 21.0044L5.1277 21.0044L7.95613 18.176ZM11.1961 18.344L14.0795 21.1164L14.0795 21.1164L11.1961 18.344ZM12.2761 5.864L9.7286 2.78015L9.70694 2.79805L9.68553 2.81624L12.2761 5.864ZM13.7641 9.408C13.8613 9.408 13.937 9.4102 13.9935 9.41313C14.0506 9.4161 14.0803 9.4194 14.0866 9.42017C14.0941 9.4211 14.0636 9.41781 14.0036 9.40426C13.9726 9.39726 13.9299 9.38666 13.8775 9.37111C13.8253 9.35561 13.7593 9.33393 13.6823 9.30402L16.5819 1.84798C15.5659 1.45288 14.4832 1.408 13.7641 1.408V9.408ZM13.9276 9.39033C13.7002 9.31852 13.3894 9.18268 13.0664 8.93141C12.7337 8.67265 12.4527 8.34113 12.2507 7.96236L19.3095 4.19764C18.605 2.87662 17.454 2.11451 16.3366 1.76167L13.9276 9.39033ZM12.1716 7.80582C12.0723 7.59814 12.0446 7.45466 12.0396 7.42676C12.0344 7.39725 12.0441 7.43734 12.0441 7.568H20.0441C20.0441 6.63332 19.9226 5.47058 19.3887 4.35418L12.1716 7.80582ZM12.0441 7.568V16.856H20.0441V7.568H12.0441ZM12.0441 16.856C12.0441 17.4563 11.8676 17.9814 11.3031 18.583L17.1372 24.057C19.0046 22.0666 20.0441 19.6157 20.0441 16.856H12.0441ZM11.3201 18.565C10.9159 18.9905 10.4406 19.24 9.56413 19.24V27.24C12.4636 27.24 15.0924 26.2095 17.1201 24.075L11.3201 18.565ZM9.56413 19.24C9.11307 19.24 8.87433 19.147 8.73333 19.0668L4.77892 26.0212C6.26992 26.869 7.90318 27.24 9.56413 27.24V19.24ZM8.66618 19.0295C8.39101 18.88 8.2176 18.7699 8.12083 18.7019C8.0745 18.6693 8.05992 18.6563 8.06872 18.6637C8.07614 18.67 8.12373 18.7108 8.1933 18.7881L2.24695 24.1399C3.00642 24.9837 4.01436 25.6065 4.84607 26.0585L8.66618 19.0295ZM8.04855 18.6356L7.85655 18.4436L2.1997 24.1004L2.3917 24.2924L8.04855 18.6356ZM7.934 18.5232C7.79737 18.3788 7.82084 18.3744 7.89475 18.5074C7.96377 18.6317 8.18813 19.0761 8.18813 19.76H0.188125C0.188125 21.8143 1.44574 23.3056 2.12225 24.0208L7.934 18.5232ZM8.18813 19.76C8.18813 20.4136 7.97846 20.8499 7.89475 21.0006C7.81106 21.1512 7.77342 21.1625 7.89611 21.0363L2.16014 15.4597C1.43311 16.2075 0.188125 17.6937 0.188125 19.76H8.18813ZM7.8961 21.0363C8.01491 20.9141 7.99437 20.9629 7.82867 21.0592C7.66022 21.157 7.20011 21.384 6.51613 21.384V13.384C4.38347 13.384 2.88866 14.7104 2.16015 15.4597L7.8961 21.0363ZM6.51613 21.384C5.90089 21.384 5.46797 21.1944 5.27245 21.0869C5.08659 20.9846 5.04093 20.9177 5.1277 21.0044L10.7846 15.3476C10.0148 14.5778 8.55909 13.384 6.51613 13.384V21.384ZM5.1277 21.0044C6.22403 22.1008 7.75917 22.968 9.66013 22.968V14.968C9.95635 14.968 10.2363 15.0368 10.4641 15.1427C10.6776 15.2419 10.7794 15.3424 10.7846 15.3476L5.1277 21.0044ZM9.66013 22.968C11.274 22.968 12.8598 22.3848 14.0795 21.1164L8.31279 15.5716C8.48395 15.3936 8.71996 15.2226 9.00662 15.1061C9.28662 14.9924 9.52235 14.968 9.66013 14.968V22.968ZM14.0795 21.1164C15.3304 19.8155 15.7961 18.198 15.7961 16.688H7.79613C7.79613 16.6455 7.80247 16.4842 7.88536 16.2554C7.9726 16.0146 8.11805 15.7741 8.31279 15.5716L14.0795 21.1164ZM15.7961 16.688V7.712H7.79613V16.688H15.7961ZM15.7961 7.712C15.7961 7.41802 15.8244 7.39415 15.7877 7.53559C15.761 7.63823 15.5807 8.30484 14.8667 8.91176L9.68553 2.81624C8.65151 3.69516 8.23125 4.80577 8.04459 5.52441C7.84785 6.28185 7.79613 7.04598 7.79613 7.712H15.7961ZM14.8237 8.94785C14.2796 9.39724 13.7808 9.408 13.7641 9.408V1.408C12.4995 1.408 11.0086 1.72275 9.7286 2.78015L14.8237 8.94785ZM19.616 11.936L22.3378 14.8672L22.3378 14.8672L19.616 11.936ZM28.808 11.936L26.0687 14.8509L26.0781 14.8597L26.0876 14.8684L28.808 11.936ZM29.768 20.216L33.0882 22.4468L33.0962 22.4349L33.1041 22.4229L29.768 20.216ZM27.248 22.496L29.0133 26.0854L29.0251 26.0796L29.0369 26.0737L27.248 22.496ZM21.128 22.448L19.2486 25.979L19.2709 25.9909L19.2934 26.0025L21.128 22.448ZM18.608 20.144L15.2638 22.3386L15.2837 22.369L15.3042 22.399L18.608 20.144ZM22.616 18.416L20.1534 21.5681L20.1845 21.5924L20.216 21.616L22.616 18.416ZM25.76 18.392L23.3446 15.2036L23.3446 15.2036L25.76 18.392ZM25.808 14.864L23.3593 18.0269L23.3593 18.0269L25.808 14.864ZM22.592 14.888L20.081 11.7743L20.081 11.7743L22.592 14.888ZM21.6 16.688C21.6 15.8215 21.8509 15.3193 22.3378 14.8672L16.8942 9.00483C14.6931 11.0487 13.6 13.7145 13.6 16.688H21.6ZM22.3378 14.8672C22.9918 14.2599 23.5716 14.064 24.224 14.064V6.064C21.4204 6.064 18.9282 7.11608 16.8942 9.00483L22.3378 14.8672ZM24.224 14.064C24.8745 14.064 25.4379 14.258 26.0687 14.8509L31.5473 9.02114C29.5221 7.11798 27.0295 6.064 24.224 6.064V14.064ZM26.0876 14.8684C26.5463 15.294 26.8 15.782 26.8 16.664H34.8C34.8 13.706 33.7257 11.042 31.5284 9.00357L26.0876 14.8684ZM26.8 16.664C26.8 17.2607 26.6583 17.6669 26.4319 18.0091L33.1041 22.4229C34.2537 20.6851 34.8 18.7233 34.8 16.664H26.8ZM26.4478 17.9852C26.101 18.5014 25.7656 18.7651 25.4591 18.9183L29.0369 26.0737C30.7144 25.2349 32.059 23.9786 33.0882 22.4468L26.4478 17.9852ZM25.4827 18.9066C25.039 19.1248 24.6252 19.216 24.2 19.216V27.216C25.8868 27.216 27.505 26.8272 29.0133 26.0854L25.4827 18.9066ZM24.2 19.216C23.8188 19.216 23.4207 19.13 22.9626 18.8935L19.2934 26.0025C20.8193 26.79 22.4692 27.216 24.2 27.216V19.216ZM23.0074 18.917C22.6346 18.7186 22.2672 18.4098 21.9118 17.889L15.3042 22.399C16.3248 23.8942 17.6374 25.1214 19.2486 25.979L23.0074 18.917ZM21.9522 17.9494C21.7279 17.6077 21.6 17.2252 21.6 16.688H13.6C13.6 18.7108 14.1441 20.6323 15.2638 22.3386L21.9522 17.9494ZM20.216 21.616C21.2698 22.4064 22.6115 22.992 24.176 22.992V14.992C24.4081 14.992 24.6143 15.0361 24.7755 15.0956C24.9296 15.1525 25.0091 15.2108 25.016 15.216L20.216 21.616ZM24.176 22.992C25.7774 22.992 27.1319 22.3709 28.1754 21.5804L23.3446 15.2036C23.334 15.2116 23.402 15.1578 23.5511 15.1014C23.7082 15.0419 23.9232 14.992 24.176 14.992V22.992ZM28.1754 21.5804C29.8914 20.2804 30.552 18.3932 30.552 16.616H22.552C22.552 16.5619 22.5615 16.3313 22.7008 16.0189C22.8496 15.6852 23.0835 15.4014 23.3446 15.2036L28.1754 21.5804ZM30.552 16.616C30.552 14.9355 29.9725 13.0295 28.2567 11.7011L23.3593 18.0269C23.0598 17.795 22.8245 17.4837 22.6842 17.1535C22.555 16.8492 22.552 16.6383 22.552 16.616H30.552ZM28.2567 11.7011C27.1261 10.8258 25.7428 10.288 24.2 10.288V18.288C24.0337 18.288 23.855 18.2586 23.6851 18.1977C23.519 18.1382 23.4103 18.0664 23.3593 18.0269L28.2567 11.7011ZM24.2 10.288C22.6122 10.288 21.2079 10.8656 20.081 11.7743L25.103 18.0017C25.0543 18.041 24.9419 18.1194 24.7644 18.1856C24.5819 18.2537 24.3861 18.288 24.2 18.288V10.288ZM20.081 11.7743C18.4281 13.1073 17.848 14.9771 17.848 16.664H25.848C25.848 16.6883 25.8444 16.8886 25.7234 17.1775C25.5928 17.4893 25.3758 17.7817 25.103 18.0017L20.081 11.7743ZM17.848 16.664C17.848 18.412 18.4889 20.2677 20.1534 21.5681L25.0786 15.2639C25.3345 15.4638 25.5602 15.7453 25.7035 16.0721C25.838 16.3789 25.848 16.606 25.848 16.664H17.848ZM39.7906 16.664L37.2027 13.614L33.5618 16.7032L37.2413 19.7464L39.7906 16.664ZM42.9826 19.304L45.5554 16.2412L45.5437 16.2314L45.5319 16.2216L42.9826 19.304ZM43.7266 20.072L40.215 21.9874L40.2796 22.1058L40.352 22.2195L43.7266 20.072ZM43.1506 22.136L46.2596 24.6528L46.3013 24.6013L46.3413 24.5484L43.1506 22.136ZM40.2466 22.448L42.6334 19.2382L42.5874 19.2039L42.5405 19.1711L40.2466 22.448ZM40.0066 22.28L37.4591 25.3638L37.5821 25.4654L37.7128 25.5569L40.0066 22.28ZM38.3026 20.696L35.4742 23.5244L35.4891 23.5393L35.5041 23.554L38.3026 20.696ZM36.5506 19.064L39.0494 15.9405L32.5506 10.7415V19.064H36.5506ZM36.5026 21.752L32.557 21.0944L32.5325 21.2414L32.5191 21.3899L36.5026 21.752ZM36.2866 22.376L32.7572 20.4936L32.7324 20.5401L32.7089 20.5871L36.2866 22.376ZM32.5906 22.352L28.9659 24.0435L29.0012 24.1192L29.0396 24.1933L32.5906 22.352ZM32.3746 21.728L28.3884 22.0602L28.4045 22.2531L28.4391 22.4435L32.3746 21.728ZM32.3746 5.696L28.429 5.0384L28.4045 5.18542L28.3911 5.33386L32.3746 5.696ZM32.5906 5.048L29.0396 3.20673L29.0012 3.28082L28.9659 3.35646L32.5906 5.048ZM36.0946 4.808L33.504 7.85576L33.5278 7.87592L33.5518 7.89572L36.0946 4.808ZM36.5266 5.864L32.5288 5.99726L32.534 6.15192L32.5511 6.30572L36.5266 5.864ZM36.5506 14.144H32.5506V22.6842L39.1114 17.2169L36.5506 14.144ZM37.8466 12.92L35.0572 10.0531L35.0376 10.0722L35.0182 10.0916L37.8466 12.92ZM39.1666 11.696L36.9478 8.3678L36.77 8.48632L36.6059 8.62311L39.1666 11.696ZM39.4546 11.504L41.6734 14.8322L41.7884 14.7555L41.8978 14.6711L39.4546 11.504ZM42.2626 11.84L39.1094 14.3011L39.1427 14.3438L39.1771 14.3855L42.2626 11.84ZM42.1666 14.648L39.5977 11.5819L39.5882 11.5899L39.5787 11.598L42.1666 14.648ZM37.2413 19.7464L40.4333 22.3864L45.5319 16.2216L42.3399 13.5816L37.2413 19.7464ZM40.4099 22.3668C40.5485 22.4833 40.5995 22.5351 40.5957 22.5312C40.592 22.5274 40.5538 22.4881 40.497 22.4167C40.4457 22.3523 40.3342 22.2058 40.215 21.9874L47.2382 18.1566C46.7344 17.2329 45.912 16.5407 45.5554 16.2412L40.4099 22.3668ZM40.352 22.2195C40.1776 21.9454 39.8946 21.3759 39.8946 20.576H47.8946C47.8946 19.4561 47.4997 18.5506 47.1013 17.9245L40.352 22.2195ZM39.8946 20.576C39.8946 20.2461 39.9471 19.9902 39.9907 19.8313C40.0345 19.6714 40.0805 19.5692 40.0982 19.5321C40.1281 19.4695 40.108 19.5278 39.96 19.7236L46.3413 24.5484C46.6892 24.0882 47.0412 23.5585 47.319 22.9759C47.5824 22.4236 47.8946 21.5864 47.8946 20.576H39.8946ZM40.0416 19.6192C39.9042 19.789 39.9152 19.7366 40.0888 19.6151C40.2558 19.4981 40.8247 19.144 41.7106 19.144V27.144C43.0125 27.144 44.0294 26.6219 44.6765 26.1689C45.3301 25.7114 45.8531 25.155 46.2596 24.6528L40.0416 19.6192ZM41.7106 19.144C42.0559 19.144 42.3229 19.1998 42.486 19.2449C42.6509 19.2904 42.7577 19.3383 42.7981 19.3575C42.8676 19.3905 42.8188 19.376 42.6334 19.2382L37.8598 25.6578C38.2985 25.984 38.8057 26.3175 39.3632 26.5825C39.8842 26.8302 40.7079 27.144 41.7106 27.144V19.144ZM42.5405 19.1711L42.3005 19.0031L37.7128 25.5569L37.9528 25.7249L42.5405 19.1711ZM42.5542 19.1962C42.327 19.0085 41.8626 18.5836 41.1011 17.838L35.5041 23.554C36.2786 24.3124 36.9503 24.9435 37.4591 25.3638L42.5542 19.1962ZM41.1311 17.8676C40.3473 17.0838 39.6327 16.4071 39.0494 15.9405L34.0518 22.1875C34.2686 22.3609 34.722 22.7722 35.4742 23.5244L41.1311 17.8676ZM32.5506 19.064V20.912H40.5506V19.064H32.5506ZM32.5506 20.912C32.5506 21.0418 32.5477 21.1249 32.5451 21.1698C32.5439 21.1911 32.5432 21.1959 32.5441 21.1868C32.545 21.1787 32.5484 21.1461 32.557 21.0944L40.4482 22.4096C40.5354 21.8864 40.5506 21.3429 40.5506 20.912H32.5506ZM32.5191 21.3899C32.5465 21.0879 32.6114 20.8622 32.6567 20.7316C32.7028 20.5984 32.7448 20.517 32.7572 20.4936L39.816 24.2584C40.0738 23.775 40.4029 23.03 40.4862 22.1141L32.5191 21.3899ZM32.7089 20.5871C33.2383 19.5284 34.1005 19.1516 34.389 19.0542C34.66 18.9627 34.7357 19 34.4386 19V27C35.1655 27 36.0612 26.9333 36.9483 26.6338C37.8527 26.3284 39.127 25.6396 39.8643 24.1649L32.7089 20.5871ZM34.4386 19C34.1674 19 34.2609 18.964 34.5442 19.0633C34.8625 19.1749 35.6432 19.5494 36.1416 20.5107L29.0396 24.1933C29.7621 25.5866 30.9628 26.2851 31.897 26.6127C32.7963 26.928 33.7018 27 34.4386 27V19ZM36.2154 20.6605C36.2064 20.6412 36.2155 20.6583 36.2326 20.7076C36.2489 20.7547 36.2823 20.8595 36.3101 21.0125L28.4391 22.4435C28.5542 23.0763 28.7713 23.6265 28.9659 24.0435L36.2154 20.6605ZM36.3608 21.3958C36.3609 21.3967 36.3578 21.3564 36.355 21.2598C36.3524 21.1675 36.3506 21.0449 36.3506 20.888H28.3506C28.3506 21.2866 28.3584 21.6993 28.3884 22.0602L36.3608 21.3958ZM36.3506 20.888V6.512H28.3506V20.888H36.3506ZM36.3506 6.512C36.3506 6.35458 36.3524 6.23554 36.3549 6.1496C36.3576 6.05682 36.3604 6.03387 36.3582 6.05814L28.3911 5.33386C28.3578 5.70007 28.3506 6.12305 28.3506 6.512H36.3506ZM36.3202 6.35359C36.2967 6.49478 36.2666 6.59709 36.2474 6.65491C36.2279 6.71342 36.214 6.7425 36.2154 6.73954L28.9659 3.35646C28.7517 3.81545 28.5377 4.3865 28.429 5.0384L36.3202 6.35359ZM36.1416 6.88927C35.6347 7.86704 34.8393 8.23664 34.5351 8.34194C34.2608 8.43689 34.1785 8.4 34.4626 8.4V0.399999C33.7227 0.399999 32.8165 0.471104 31.9182 0.782055C30.99 1.10336 29.7706 1.79696 29.0396 3.20673L36.1416 6.88927ZM34.4626 8.4C34.6308 8.4 34.614 8.41696 34.4765 8.38257C34.3425 8.34908 33.9429 8.22879 33.504 7.85576L38.6852 1.76024C37.2462 0.537065 35.4826 0.399999 34.4626 0.399999V8.4ZM33.5518 7.89572C32.6484 7.15172 32.5366 6.22937 32.5288 5.99726L40.5244 5.73074C40.4847 4.53863 40.0849 2.91228 38.6375 1.72028L33.5518 7.89572ZM32.5511 6.30572C32.5489 6.28576 32.5475 6.27089 32.5467 6.26197C32.546 6.25292 32.5456 6.24786 32.5456 6.24731C32.5456 6.24691 32.5463 6.25797 32.5472 6.28276C32.549 6.33389 32.5506 6.41611 32.5506 6.536H40.5506C40.5506 6.20784 40.544 5.79869 40.5022 5.42228L32.5511 6.30572ZM32.5506 6.536V14.144H40.5506V6.536H32.5506ZM39.1114 17.2169C39.5483 16.8528 40.0886 16.3349 40.6751 15.7484L35.0182 10.0916C34.4527 10.6571 34.129 10.9552 33.9899 11.0711L39.1114 17.2169ZM40.636 15.7869C41.2202 15.2185 41.5664 14.9031 41.7274 14.7689L36.6059 8.62311C36.1909 8.96895 35.6571 9.46946 35.0572 10.0531L40.636 15.7869ZM41.3854 15.0242L41.6734 14.8322L37.2358 8.1758L36.9478 8.3678L41.3854 15.0242ZM41.8978 14.6711C42.009 14.5854 41.9995 14.6102 41.8761 14.6657C41.7555 14.7199 41.4093 14.856 40.8946 14.856V6.856C39.1534 6.856 37.7931 7.73388 37.0114 8.33687L41.8978 14.6711ZM40.8946 14.856C39.9787 14.856 39.3865 14.4827 39.2009 14.3492C39.0107 14.2124 38.9861 14.1432 39.1094 14.3011L45.4159 9.37892C45.0271 8.88079 44.5185 8.31958 43.8723 7.85478C43.2307 7.39326 42.2106 6.856 40.8946 6.856V14.856ZM39.1771 14.3855C39.3374 14.5798 39.3534 14.6306 39.3133 14.554C39.29 14.5096 39.232 14.392 39.1767 14.2096C39.1218 14.0282 39.0546 13.733 39.0546 13.352H47.0546C47.0546 12.2631 46.6832 11.3828 46.4 10.842C46.0959 10.2614 45.7158 9.74019 45.3481 9.29447L39.1771 14.3855ZM39.0546 13.352C39.0546 12.4538 39.41 11.8704 39.5329 11.6911C39.6631 11.501 39.7336 11.4681 39.5977 11.5819L44.7355 17.7141C45.1916 17.3319 45.7061 16.835 46.1324 16.2129C46.5512 15.6016 47.0546 14.6182 47.0546 13.352H39.0546ZM39.5787 11.598L37.2027 13.614L42.3785 19.714L44.7545 17.698L39.5787 11.598ZM55.9393 17.36L58.7193 20.236L58.7209 20.2344L55.9393 17.36ZM48.6433 18.056V14.056H44.6433V18.056H48.6433ZM49.4353 19.184L51.4311 15.7175L51.4311 15.7175L49.4353 19.184ZM53.2033 19.352L51.8363 15.5928L51.8363 15.5928L53.2033 19.352ZM53.4673 19.256L54.8342 23.0152L54.9865 22.9598L55.1339 22.8923L53.4673 19.256ZM55.7473 20.072L59.3513 18.3367L59.3306 18.2939L59.309 18.2516L55.7473 20.072ZM47.7793 22.712L46.1192 26.3513L46.1574 26.3687L46.1959 26.3853L47.7793 22.712ZM45.6433 21.08L48.825 18.6558L48.8129 18.64L48.8007 18.6242L45.6433 21.08ZM46.0753 11.912L48.7929 14.847L48.7943 14.8457L46.0753 11.912ZM55.8672 12.44L59.2151 10.251L59.2079 10.24L59.2007 10.2291L55.8672 12.44ZM52.0993 14.216L49.5564 17.3037L49.5995 17.3392L49.6435 17.3734L52.0993 14.216ZM49.3633 14.528L51.8856 17.6325L51.9144 17.6091L51.9427 17.5852L49.3633 14.528ZM48.5953 15.872H44.5953V19.872H48.5953V15.872ZM52.6833 15.176C52.6833 15.3377 52.6612 15.31 52.7109 15.1642C52.7678 14.9973 52.8998 14.735 53.1576 14.4856L58.7209 20.2344C60.2716 18.7338 60.6833 16.7797 60.6833 15.176H52.6833ZM53.1592 14.484C53.2163 14.4289 53.3563 14.3116 53.5884 14.2111C53.8289 14.107 54.0883 14.056 54.3313 14.056V22.056C56.096 22.056 57.5968 21.3211 58.7193 20.236L53.1592 14.484ZM54.3313 14.056H48.6433V22.056H54.3313V14.056ZM44.6433 18.056C44.6433 20.4347 46.1761 21.9232 47.4394 22.6505L51.4311 15.7175C51.5158 15.7663 51.8207 15.9564 52.1149 16.3755C52.4427 16.8424 52.6433 17.4352 52.6433 18.056H44.6433ZM47.4394 22.6505C48.4799 23.2495 49.6891 23.64 51.0193 23.64V15.64C51.1446 15.64 51.2528 15.6588 51.3338 15.6821C51.412 15.7046 51.445 15.7255 51.4311 15.7175L47.4394 22.6505ZM51.0193 23.64C52.1504 23.64 53.411 23.5327 54.5702 23.1112L51.8363 15.5928C51.9137 15.5647 51.8968 15.5814 51.7383 15.6023C51.5859 15.6224 51.3516 15.64 51.0193 15.64V23.64ZM54.5702 23.1112L54.8342 23.0152L52.1003 15.4968L51.8363 15.5928L54.5702 23.1112ZM55.1339 22.8923C55.1802 22.871 55.1506 22.8888 55.0559 22.9148C54.9666 22.9394 54.7453 22.992 54.4273 22.992V14.992C53.34 14.992 52.4097 15.3406 51.8006 15.6197L55.1339 22.8923ZM54.4273 22.992C53.6569 22.992 53.019 22.6939 52.6083 22.3578C52.2607 22.0734 52.1545 21.8317 52.1855 21.8924L59.309 18.2516C58.688 17.0366 57.1978 14.992 54.4273 14.992V22.992ZM52.1432 21.8073C52.1709 21.8648 52.1563 21.8459 52.132 21.7598C52.1085 21.6766 52.0593 21.4722 52.0593 21.176H60.0593C60.0593 20.0232 59.6852 19.0303 59.3513 18.3367L52.1432 21.8073ZM52.0593 21.176C52.0593 20.667 52.2353 20.0893 52.6129 19.616C52.7781 19.4088 52.9408 19.2743 53.0545 19.1952C53.1657 19.1177 53.2372 19.088 53.2391 19.0872C53.2416 19.0862 53.1968 19.1048 53.0897 19.1317C52.9837 19.1583 52.8336 19.1887 52.632 19.2167C52.223 19.2737 51.6694 19.312 50.9473 19.312V27.312C52.8092 27.312 54.7287 27.1351 56.3234 26.4688C57.1607 26.1189 58.1127 25.5501 58.8667 24.605C59.6702 23.5977 60.0593 22.397 60.0593 21.176H52.0593ZM50.9473 19.312C50.2154 19.312 49.7122 19.1894 49.3626 19.0387L46.1959 26.3853C47.7023 27.0346 49.3111 27.312 50.9473 27.312V19.312ZM49.4393 19.0727C49.0152 18.8793 48.8693 18.714 48.825 18.6558L42.4615 23.5042C43.4412 24.79 44.7193 25.7127 46.1192 26.3513L49.4393 19.0727ZM48.8007 18.6242C48.3233 18.0105 48.1313 17.4217 48.1313 16.736H40.1313C40.1313 19.2503 40.9472 21.5575 42.4858 23.5358L48.8007 18.6242ZM48.1313 16.736C48.1313 15.6609 48.4336 15.1797 48.7929 14.847L43.3576 8.97696C41.1249 11.0443 40.1313 13.7791 40.1313 16.736H48.1313ZM48.7943 14.8457C49.2965 14.3803 49.9275 14.088 50.9713 14.088V6.088C48.111 6.088 45.478 7.0117 43.3562 8.97828L48.7943 14.8457ZM50.9713 14.088C52.1365 14.088 52.3783 14.4165 52.5338 14.6509L59.2007 10.2291C57.2762 7.32754 54.254 6.088 50.9713 6.088V14.088ZM52.5194 14.629C52.6388 14.8117 52.6833 14.9633 52.6833 15.176H60.6833C60.6833 13.4047 60.1837 11.7323 59.2151 10.251L52.5194 14.629ZM51.6193 19.872C52.3881 19.872 53.7102 19.7245 54.8798 18.7396C56.181 17.6439 56.5313 16.1741 56.5313 15.104H48.5313C48.5313 14.5459 48.7295 13.4601 49.7267 12.6204C50.5923 11.8915 51.4584 11.872 51.6193 11.872V19.872ZM56.5313 15.104C56.5313 13.5141 55.8272 12.048 54.555 11.0586L49.6435 17.3734C49.3574 17.1509 49.0499 16.8155 48.8263 16.3559C48.6032 15.8973 48.5313 15.4541 48.5313 15.104H56.5313ZM54.6421 11.1283C53.3728 10.083 51.9102 9.88 50.8993 9.88V17.88C50.8922 17.88 50.7477 17.8805 50.5167 17.8159C50.2754 17.7483 49.9199 17.6031 49.5564 17.3037L54.6421 11.1283ZM50.8993 9.88C49.1846 9.88 47.7916 10.6205 46.7838 11.4708L51.9427 17.5852C51.9589 17.5715 51.5899 17.88 50.8993 17.88V9.88ZM46.8409 11.4235C45.7641 12.2984 44.5953 13.7803 44.5953 15.872H52.5953C52.5953 16.3801 52.4508 16.827 52.2602 17.1606C52.0855 17.4663 51.9109 17.6119 51.8856 17.6325L46.8409 11.4235ZM48.5953 19.872H51.6193V11.872H48.5953V19.872ZM58.3451 21.872L56.2091 25.254L56.2148 25.2576L58.3451 21.872ZM58.8011 19.064L62.0518 21.3948L62.1075 21.3172L62.1593 21.237L58.8011 19.064ZM61.2491 19.256L59.2031 22.6932L59.2337 22.7113L59.2645 22.729L61.2491 19.256ZM62.9291 18.584L62.3634 22.5438L62.3799 22.5462L62.3965 22.5484L62.9291 18.584ZM59.9291 17.456L57.8196 20.8546L57.8292 20.8605L57.8388 20.8664L59.9291 17.456ZM58.7771 16.112L55.1811 17.8639L55.1901 17.8824L55.1994 17.9009L58.7771 16.112ZM67.0331 10.928L68.6961 7.29008L68.6846 7.28487L67.0331 10.928ZM67.3451 13.304L70.7316 15.4327L70.7316 15.4327L67.3451 13.304ZM65.1851 13.784L63.4873 17.4058L63.5085 17.4158L63.5299 17.4255L65.1851 13.784ZM63.7211 14.888L63.1962 18.8534L63.2476 18.8602L63.2992 18.8657L63.7211 14.888ZM66.7931 15.8L65.0042 19.3777L65.0291 19.3901L65.0541 19.4022L66.7931 15.8ZM67.9451 16.976L64.4297 18.8844L64.4625 18.9448L64.4973 19.0041L67.9451 16.976ZM67.9451 21.176L64.4262 19.2739L64.4168 19.2914L64.4075 19.309L67.9451 21.176ZM66.6491 22.472L68.3928 26.0719L68.4359 26.0511L68.4785 26.0292L66.6491 22.472ZM60.481 18.49C60.9087 18.7601 61.3113 19.1723 61.5808 19.7111C61.8378 20.2252 61.8891 20.6838 61.8891 20.96H53.8891C53.8891 22.4955 54.5458 24.2035 56.2091 25.254L60.481 18.49ZM61.8891 20.96C61.8891 21.3293 61.8241 21.5965 61.7877 21.7219C61.7495 21.8536 61.7161 21.9195 61.7217 21.9079C61.7255 21.9001 61.7497 21.8516 61.8074 21.7579C61.8641 21.6659 61.9437 21.5456 62.0518 21.3948L55.5503 16.7332C55.1697 17.264 54.8006 17.841 54.5124 18.4401C54.2556 18.974 53.8891 19.8743 53.8891 20.96H61.8891ZM62.1593 21.237C61.8676 21.688 61.4351 22.0916 60.8907 22.356C60.3739 22.6071 59.916 22.656 59.6411 22.656V14.656C58.1918 14.656 56.5014 15.2549 55.4428 16.891L62.1593 21.237ZM59.6411 22.656C59.4117 22.656 59.2367 22.6278 59.1307 22.6052C59.0238 22.5823 58.9597 22.5592 58.9447 22.5536C58.9233 22.5456 59.004 22.5746 59.2031 22.6932L63.295 15.8188C62.493 15.3414 61.1721 14.656 59.6411 14.656V22.656ZM59.2645 22.729C60.2998 23.3206 61.5998 23.832 63.0731 23.832V15.832C63.273 15.832 63.3932 15.8672 63.4136 15.8737C63.4313 15.8793 63.373 15.8627 63.2336 15.783L59.2645 22.729ZM63.0731 23.832C63.7065 23.832 64.6805 23.786 65.6356 23.4103C66.1457 23.2095 66.8756 22.8278 67.4975 22.0937C68.1821 21.2856 68.5371 20.281 68.5371 19.256H60.5371C60.5371 18.423 60.831 17.5864 61.3936 16.9223C61.8936 16.3322 62.4404 16.0705 62.7066 15.9657C63.1736 15.782 63.4157 15.832 63.0731 15.832V23.832ZM68.5371 19.256C68.5371 17.8657 67.8813 16.8215 67.2436 16.1934C66.6698 15.6281 66.0536 15.3265 65.6774 15.1693C64.9189 14.8523 64.1012 14.7055 63.4616 14.6196L62.3965 22.5484C62.8289 22.6065 62.8153 22.6437 62.5927 22.5507C62.4846 22.5055 62.0693 22.3259 61.6295 21.8926C61.1258 21.3965 60.5371 20.4943 60.5371 19.256H68.5371ZM63.4947 14.6242C63.0989 14.5676 62.612 14.4089 62.0193 14.0456L57.8388 20.8664C59.2301 21.7191 60.7433 22.3124 62.3634 22.5438L63.4947 14.6242ZM62.0385 14.0574C62.1815 14.1462 62.2769 14.2387 62.3301 14.3008C62.3803 14.3594 62.3822 14.3779 62.3548 14.3231L55.1994 17.9009C55.7538 19.0097 56.5893 20.0909 57.8196 20.8546L62.0385 14.0574ZM62.373 14.3601C62.3873 14.3894 62.3211 14.2772 62.3211 13.904H54.3211C54.3211 15.2268 54.5588 16.5866 55.1811 17.8639L62.373 14.3601ZM62.3211 13.904C62.3211 13.727 62.351 13.7627 62.2835 13.91C62.206 14.0794 62.0813 14.2181 61.9775 14.2937C61.8977 14.3517 61.9298 14.3003 62.194 14.2362C62.4609 14.1714 62.8908 14.112 63.5291 14.112V6.112C61.4265 6.112 59.1267 6.47348 57.2686 7.82634C55.1746 9.35102 54.3211 11.6188 54.3211 13.904H62.3211ZM63.5291 14.112C64.0114 14.112 64.6179 14.225 65.3815 14.5711L68.6846 7.28487C67.0482 6.54302 65.3187 6.112 63.5291 6.112V14.112ZM65.37 14.5659C65.3477 14.5557 65.0139 14.4068 64.6528 13.994C64.2283 13.509 63.8731 12.7711 63.8731 11.888H71.8731C71.8731 9.11253 69.7329 7.76405 68.6961 7.2901L65.37 14.5659ZM63.8731 11.888C63.8731 11.4799 63.9636 11.2117 63.9931 11.1325C64.0246 11.0481 64.0317 11.0589 63.9585 11.1753L70.7316 15.4327C71.2293 14.6408 71.8731 13.3923 71.8731 11.888H63.8731ZM63.9585 11.1753C63.9287 11.2227 64.0419 11.0203 64.3553 10.7766C64.7056 10.5041 65.364 10.144 66.2651 10.144V18.144C68.8224 18.144 70.2236 16.2409 70.7316 15.4327L63.9585 11.1753ZM66.2651 10.144C66.4443 10.144 66.5909 10.1577 66.6938 10.1708C66.7987 10.1843 66.8822 10.2004 66.9393 10.2128C67.0488 10.2366 67.1127 10.2582 67.116 10.2593C67.1184 10.2601 67.0358 10.2314 66.8403 10.1425L63.5299 17.4255C63.8623 17.5766 64.2237 17.7279 64.5862 17.8487C64.8569 17.939 65.499 18.144 66.2651 18.144V10.144ZM66.8828 10.1622C65.8003 9.65472 64.6549 9.424 63.5051 9.424V17.424C63.5254 17.424 63.5378 17.425 63.5433 17.4256C63.5486 17.4261 63.5482 17.4263 63.5429 17.4252C63.5376 17.4241 63.5292 17.4219 63.5187 17.4184C63.5081 17.4148 63.4974 17.4106 63.4873 17.4058L66.8828 10.1622ZM63.5051 9.424C62.8978 9.424 61.9645 9.46543 61.0455 9.80808C60.5603 9.98901 59.8309 10.3443 59.1954 11.0551C58.4853 11.8495 58.0891 12.874 58.0891 13.952H66.0891C66.0891 14.854 65.7519 15.7245 65.1597 16.3869C64.6422 16.9657 64.0898 17.211 63.8406 17.3039C63.3937 17.4706 63.1683 17.424 63.5051 17.424V9.424ZM58.0891 13.952C58.0891 16.0668 59.4294 17.3978 60.507 18.0158C61.4491 18.5561 62.4649 18.7566 63.1962 18.8534L64.2459 10.9226C63.8893 10.8754 64.089 10.8479 64.4871 11.0762C64.719 11.2092 65.1291 11.4931 65.4882 12.0158C65.8776 12.5827 66.0891 13.2627 66.0891 13.952H58.0891ZM63.2992 18.8657C63.8583 18.925 64.421 19.0861 65.0042 19.3777L68.5819 12.2223C67.1811 11.5219 65.6958 11.075 64.1429 10.9103L63.2992 18.8657ZM65.0541 19.4022C64.8432 19.3004 64.682 19.1738 64.5716 19.0611C64.4662 18.9535 64.4268 18.8792 64.4297 18.8844L71.4605 15.0676C70.8525 13.9476 69.914 12.865 68.5321 12.1978L65.0541 19.4022ZM64.4973 19.0041C64.4291 18.8881 64.41 18.8102 64.409 18.8061C64.4088 18.805 64.4129 18.8225 64.417 18.8617C64.4212 18.901 64.4251 18.9597 64.4251 19.04H72.4251C72.4251 17.7155 72.1719 16.2724 71.3928 14.9479L64.4973 19.0041ZM64.4251 19.04C64.4251 19.2012 64.4094 19.2896 64.4024 19.321C64.396 19.3493 64.3979 19.3264 64.4262 19.2739L71.4639 23.0781C72.1659 21.7793 72.4251 20.3813 72.4251 19.04H64.4251ZM64.4075 19.309C64.4301 19.2662 64.4794 19.1889 64.5646 19.1036C64.6508 19.0174 64.7424 18.9546 64.8197 18.9148L68.4785 26.0292C69.7938 25.3527 70.8099 24.3177 71.4826 23.043L64.4075 19.309ZM64.9053 18.8721C64.5854 19.027 63.9412 19.216 62.7851 19.216V27.216C64.733 27.216 66.6647 26.909 68.3928 26.0719L64.9053 18.8721ZM62.7851 19.216C62.074 19.216 61.3244 19.0207 60.4753 18.4864L56.2148 25.2576C58.2138 26.5153 60.4241 27.216 62.7851 27.216V19.216ZM81.3433 6.152L77.8466 4.20943L77.827 4.24474L77.8081 4.28044L81.3433 6.152ZM82.0393 5.576L83.2438 9.39033L83.2438 9.39033L82.0393 5.576ZM84.2713 5.552L83.1426 9.38946L83.1716 9.39799L83.2007 9.40607L84.2713 5.552ZM84.8953 5.84L82.2612 8.85029L82.3482 8.92642L82.4395 8.9974L84.8953 5.84ZM85.2073 6.344L81.3612 7.44289L81.4054 7.59772L81.4619 7.74849L85.2073 6.344ZM85.3033 21.728L81.3678 21.0125L81.3358 21.1881L81.3197 21.3659L85.3033 21.728ZM85.0873 22.352L81.5578 20.4696L81.5469 20.4901L81.5362 20.5107L85.0873 22.352ZM81.9193 22.856L80.4337 26.5699L80.4337 26.5699L81.9193 22.856ZM81.3193 22.4L78.1193 24.8L78.1339 24.8195L78.1488 24.8388L81.3193 22.4ZM74.2153 12.992L77.3819 10.5482L70.2153 1.2618V12.992H74.2153ZM74.1673 21.728L70.2318 21.0125L70.1998 21.1881L70.1837 21.3659L74.1673 21.728ZM73.9513 22.352L70.4218 20.4696L70.4109 20.4901L70.4002 20.5107L73.9513 22.352ZM70.2553 22.352L73.8063 20.5107L73.7956 20.4901L73.7847 20.4696L70.2553 22.352ZM70.0153 21.704L66.0291 22.0362L66.0427 22.1997L66.0697 22.3616L70.0153 21.704ZM70.2073 6.152L66.7106 4.20943L66.691 4.24474L66.6721 4.28045L70.2073 6.152ZM70.9033 5.576L72.1078 9.39033L72.1078 9.39033L70.9033 5.576ZM73.2073 5.576L71.876 9.34796L72.0049 9.39347L72.1367 9.43007L73.2073 5.576ZM73.8073 5.864L70.9788 8.69244L71.1798 8.89343L71.4072 9.06399L73.8073 5.864ZM74.3593 6.488L77.582 4.11865L77.5151 4.0276L77.4431 3.94047L74.3593 6.488ZM81.1273 15.584L77.9606 18.0278L85.1273 27.3142V15.584H81.1273ZM84.8399 8.09457C84.7009 8.34481 84.4897 8.62351 84.1875 8.87358C83.8834 9.12525 83.5542 9.29231 83.2438 9.39033L80.8347 1.76167C79.52 2.17686 78.4849 3.06056 77.8466 4.20943L84.8399 8.09457ZM83.2438 9.39033C83.1857 9.40866 83.1401 9.41973 83.1094 9.42622C83.0788 9.43271 83.0603 9.43522 83.0558 9.4358C83.0489 9.43668 83.0831 9.432 83.1673 9.432V1.432C82.4625 1.432 81.6507 1.50398 80.8347 1.76167L83.2438 9.39033ZM83.1673 9.432C83.2263 9.432 83.2719 9.43328 83.3052 9.43488C83.3387 9.43649 83.356 9.43825 83.359 9.43858C83.3624 9.43894 83.3457 9.43728 83.3121 9.43099C83.279 9.42478 83.2206 9.41242 83.1426 9.38946L85.3999 1.71454C84.6034 1.48028 83.8035 1.432 83.1673 1.432V9.432ZM83.2007 9.40607C83.1959 9.40475 83.1071 9.3805 82.967 9.31583C82.8356 9.2552 82.5651 9.11624 82.2612 8.85029L87.5293 2.8297C86.7282 2.12875 85.8334 1.83448 85.3418 1.69793L83.2007 9.40607ZM82.4395 8.9974C81.7482 8.45971 81.4655 7.80798 81.3612 7.44289L89.0533 5.24511C88.821 4.43202 88.3303 3.44429 87.351 2.68259L82.4395 8.9974ZM81.4619 7.74849C81.404 7.59387 81.3748 7.47523 81.3611 7.41226C81.3469 7.34683 81.3427 7.30972 81.3426 7.30936C81.3425 7.30774 81.3449 7.32813 81.3472 7.3746C81.3494 7.42043 81.3513 7.48418 81.3513 7.568H89.3513C89.3513 6.92364 89.3151 5.90622 88.9526 4.93951L81.4619 7.74849ZM81.3513 7.568V20.888H89.3513V7.568H81.3513ZM81.3513 20.888C81.3513 20.9567 81.3505 21.0137 81.3494 21.0601C81.3483 21.1069 81.3469 21.1388 81.3458 21.1578C81.3446 21.1776 81.3443 21.1762 81.3462 21.1578C81.3479 21.1414 81.3537 21.0896 81.3678 21.0125L89.2387 22.4435C89.3394 21.8899 89.3513 21.3041 89.3513 20.888H81.3513ZM81.3197 21.3659C81.3471 21.0639 81.4121 20.8382 81.4573 20.7076C81.5034 20.5744 81.5454 20.493 81.5578 20.4696L88.6167 24.2344C88.8745 23.751 89.2036 23.006 89.2868 22.0901L81.3197 21.3659ZM81.5362 20.5107C82.0432 19.533 82.8386 19.1634 83.1428 19.0581C83.4171 18.9631 83.4993 19 83.2153 19V27C83.9552 27 84.8614 26.9289 85.7597 26.6179C86.6879 26.2966 87.9073 25.603 88.6383 24.1933L81.5362 20.5107ZM83.2153 19C83.1094 19 83.0268 18.9979 82.9649 18.9951C82.902 18.9923 82.8705 18.9891 82.865 18.9885C82.8571 18.9876 82.8975 18.9915 82.9734 19.0078C83.0129 19.0163 83.069 19.0295 83.1382 19.0497C83.2069 19.0698 83.2979 19.0993 83.4048 19.1421L80.4337 26.5699C81.4642 26.9821 82.6035 27 83.2153 27V19ZM83.4048 19.1421C83.8412 19.3166 84.2195 19.6099 84.4897 19.9612L78.1488 24.8388C78.739 25.6061 79.5173 26.2034 80.4337 26.5699L83.4048 19.1421ZM84.5193 20C80.9229 15.2049 78.5378 12.046 77.3819 10.5482L71.0486 15.4358C72.1647 16.882 74.5156 19.9951 78.1193 24.8L84.5193 20ZM70.2153 12.992V20.888H78.2153V12.992H70.2153ZM70.2153 20.888C70.2153 20.9567 70.2145 21.0137 70.2134 21.0601C70.2123 21.1069 70.2109 21.1388 70.2098 21.1578C70.2086 21.1776 70.2083 21.1762 70.2102 21.1578C70.2119 21.1414 70.2177 21.0896 70.2318 21.0125L78.1027 22.4435C78.2034 21.8899 78.2153 21.3041 78.2153 20.888H70.2153ZM70.1837 21.3659C70.2111 21.0639 70.2761 20.8382 70.3213 20.7076C70.3674 20.5744 70.4094 20.493 70.4218 20.4696L77.4807 24.2344C77.7385 23.751 78.0676 23.006 78.1508 22.0901L70.1837 21.3659ZM70.4002 20.5107C70.9072 19.533 71.7026 19.1634 72.0068 19.0581C72.2811 18.9631 72.3633 19 72.0793 19V27C72.8192 27 73.7254 26.9289 74.6237 26.6179C75.5519 26.2966 76.7713 25.603 77.5023 24.1933L70.4002 20.5107ZM72.0793 19C71.8212 19 71.926 18.965 72.2183 19.0688C72.5504 19.1868 73.3164 19.566 73.8063 20.5107L66.7042 24.1933C67.4181 25.57 68.6001 26.2732 69.5402 26.6072C70.4405 26.927 71.3453 27 72.0793 27V19ZM73.7847 20.4696C73.7908 20.4812 73.8176 20.5326 73.8502 20.6207C73.8826 20.7081 73.9285 20.8525 73.9608 21.0464L66.0697 22.3616C66.1952 23.1145 66.4684 23.7516 66.7258 24.2344L73.7847 20.4696ZM74.0014 21.3718C74.0015 21.3727 73.9984 21.3324 73.9956 21.2358C73.993 21.1435 73.9913 21.0209 73.9913 20.864H65.9913C65.9913 21.2626 65.999 21.6753 66.0291 22.0362L74.0014 21.3718ZM73.9913 20.864V7.472H65.9913V20.864H73.9913ZM73.9913 7.472C73.9913 7.31232 74.0017 7.27746 73.9927 7.33195C73.9876 7.36318 73.9736 7.43958 73.9405 7.54872C73.9078 7.65637 73.8483 7.82357 73.7424 8.02355L66.6721 4.28045C66.0483 5.45872 65.9913 6.73058 65.9913 7.472H73.9913ZM73.7039 8.09457C73.5649 8.34481 73.3537 8.62351 73.0515 8.87358C72.7474 9.12525 72.4182 9.29231 72.1078 9.39033L69.6987 1.76167C68.384 2.17686 67.3489 3.06057 66.7106 4.20943L73.7039 8.09457ZM72.1078 9.39033C72.0405 9.41156 71.9894 9.42359 71.9582 9.43004C71.9268 9.43652 71.9104 9.43847 71.9114 9.43834C71.9123 9.43824 71.9264 9.43656 71.9556 9.43495C71.9846 9.43335 72.0255 9.432 72.0793 9.432V1.432C71.3753 1.432 70.5362 1.49719 69.6987 1.76167L72.1078 9.39033ZM72.0793 9.432C72.1922 9.432 72.232 9.438 72.2147 9.4358C72.2041 9.43444 72.1697 9.42968 72.116 9.41775C72.0628 9.40592 71.9802 9.38476 71.876 9.34796L74.5385 1.80404C73.6484 1.48986 72.7531 1.432 72.0793 1.432V9.432ZM72.1367 9.43007C72.1263 9.42718 72.0133 9.39614 71.8423 9.31409C71.6856 9.23885 71.3419 9.05552 70.9788 8.69244L76.6357 3.03556C75.77 2.16987 74.7367 1.84938 74.2778 1.72193L72.1367 9.43007ZM71.4072 9.06399C71.3219 8.99999 71.2551 8.94427 71.2112 8.90647C71.1655 8.86717 71.1289 8.83368 71.1032 8.80958C71.0533 8.7629 71.0188 8.72765 71.0048 8.71318C70.9964 8.70449 70.9903 8.69803 70.9867 8.69426C70.9849 8.6923 70.9835 8.69083 70.9826 8.68988C70.9818 8.68894 70.9813 8.68843 70.9813 8.6884C70.9812 8.68838 70.9826 8.68985 70.9854 8.69298C70.9882 8.6961 70.9921 8.70049 70.9973 8.70629C71.0191 8.73095 71.0532 8.77028 71.1018 8.82767C71.1497 8.88424 71.2074 8.95315 71.2754 9.03553L77.4431 3.94047C77.2796 3.74253 77.1248 3.55896 76.9892 3.4057C76.9725 3.38681 76.6305 2.98147 76.2073 2.66401L71.4072 9.06399ZM71.1365 8.85735C74.5074 13.4425 76.7912 16.5126 77.9606 18.0278L84.2939 13.1402C83.1913 11.7114 80.9631 8.71752 77.582 4.11865L71.1365 8.85735ZM85.1273 15.584V7.472H77.1273V15.584H85.1273ZM85.1273 7.472C85.1273 7.31232 85.1377 7.27746 85.1287 7.33195C85.1236 7.36318 85.1096 7.43958 85.0765 7.54872C85.0438 7.65637 84.9843 7.82357 84.8784 8.02355L77.8081 4.28044C77.1843 5.45872 77.1273 6.73058 77.1273 7.472H85.1273ZM87.2887 11.648L83.3431 10.9904L83.3186 11.1374L83.3051 11.2859L87.2887 11.648ZM87.5047 11L83.9828 9.1036L83.9284 9.20456L83.88 9.30846L87.5047 11ZM91.0087 10.784L88.4181 13.8318L88.4418 13.8519L88.4659 13.8717L91.0087 10.784ZM91.4407 11.816L87.4431 11.9538L87.4476 12.0842L87.4605 12.214L91.4407 11.816ZM91.4167 21.752L87.4711 21.0944L87.4466 21.2414L87.4331 21.3899L91.4167 21.752ZM91.2007 22.376L87.6713 20.4936L87.6465 20.5401L87.623 20.5871L91.2007 22.376ZM87.5047 22.352L83.88 24.0435L83.9153 24.1192L83.9537 24.1933L87.5047 22.352ZM87.2887 21.728L83.3051 22.0901L83.3213 22.2679L83.3532 22.4435L87.2887 21.728ZM91.2007 8.024L87.6713 6.14165L87.6465 6.18808L87.623 6.23515L91.2007 8.024ZM90.5767 8.504L89.3722 4.68967L89.3722 4.68967L90.5767 8.504ZM88.1527 8.504L89.3572 4.68967L89.3572 4.68967L88.1527 8.504ZM87.5047 8L83.88 9.69154L83.9251 9.78822L83.9753 9.88235L87.5047 8ZM87.2887 7.376L83.3025 7.70818L83.3186 7.90109L83.3532 8.09154L87.2887 7.376ZM87.2887 5.72L83.3431 5.0624L83.3186 5.20942L83.3051 5.35786L87.2887 5.72ZM87.5047 5.096L83.9537 3.25473L83.9401 3.28084L83.927 3.30714L87.5047 5.096ZM91.2007 5.096L87.5967 6.83126L87.6325 6.90557L87.6713 6.97835L91.2007 5.096ZM91.4167 5.744L87.4305 6.07618L87.4466 6.26909L87.4812 6.45953L91.4167 5.744ZM91.4167 7.4L87.4711 6.74241L87.4466 6.88942L87.4331 7.03785L91.4167 7.4ZM91.2647 12.464C91.2647 12.3066 91.2664 12.1875 91.269 12.1016C91.2717 12.0088 91.2745 11.9859 91.2723 12.0101L83.3051 11.2859C83.2718 11.6521 83.2647 12.0751 83.2647 12.464H91.2647ZM91.2343 12.3056C91.2107 12.4468 91.1807 12.5491 91.1614 12.6069C91.1419 12.6654 91.128 12.6945 91.1294 12.6915L83.88 9.30846C83.6658 9.76744 83.4518 10.3385 83.3431 10.9904L91.2343 12.3056ZM91.0266 12.8964C90.4935 13.8864 89.6782 14.2359 89.4056 14.3267C89.1484 14.4125 89.083 14.376 89.3767 14.376V6.376C88.6464 6.376 87.757 6.44353 86.8758 6.73727C85.9791 7.03614 84.7399 7.69757 83.9828 9.1036L91.0266 12.8964ZM89.3767 14.376C89.5449 14.376 89.5281 14.393 89.3905 14.3586C89.2566 14.3251 88.857 14.2048 88.4181 13.8318L93.5993 7.73624C92.1603 6.51307 90.3966 6.376 89.3767 6.376V14.376ZM88.4659 13.8717C88.0704 13.5461 87.795 13.1465 87.6309 12.7546C87.4765 12.3857 87.4478 12.0914 87.4431 11.9538L95.4383 11.6782C95.3961 10.4532 94.9685 8.86322 93.5515 7.69628L88.4659 13.8717ZM87.4605 12.214C87.457 12.1789 87.4589 12.1843 87.4611 12.2478C87.4631 12.3064 87.4647 12.3928 87.4647 12.512H95.4647C95.4647 12.1698 95.457 11.7793 95.4208 11.418L87.4605 12.214ZM87.4647 12.512V20.912H95.4647V12.512H87.4647ZM87.4647 20.912C87.4647 21.0418 87.4618 21.1249 87.4592 21.1698C87.458 21.1911 87.4573 21.1959 87.4582 21.1868C87.459 21.1787 87.4625 21.1461 87.4711 21.0944L95.3623 22.4096C95.4495 21.8864 95.4647 21.3429 95.4647 20.912H87.4647ZM87.4331 21.3899C87.4606 21.0879 87.5255 20.8622 87.5707 20.7316C87.6169 20.5984 87.6588 20.517 87.6713 20.4936L94.7301 24.2584C94.9879 23.775 95.317 23.03 95.4003 22.1141L87.4331 21.3899ZM87.623 20.5871C88.1523 19.5284 89.0146 19.1516 89.303 19.0542C89.5741 18.9627 89.6498 19 89.3527 19V27C90.0796 27 90.9753 26.9333 91.8624 26.6338C92.7668 26.3284 94.041 25.6396 94.7784 24.1649L87.623 20.5871ZM89.3527 19C89.0815 19 89.175 18.964 89.4583 19.0633C89.7765 19.1749 90.5572 19.5494 91.0557 20.5107L83.9537 24.1933C84.6761 25.5866 85.8769 26.2851 86.8111 26.6127C87.7104 26.928 88.6159 27 89.3527 27V19ZM91.1294 20.6605C91.1204 20.6412 91.1296 20.6583 91.1466 20.7076C91.163 20.7547 91.1964 20.8595 91.2242 21.0125L83.3532 22.4435C83.4683 23.0763 83.6853 23.6265 83.88 24.0435L91.1294 20.6605ZM91.2723 21.3659C91.2748 21.3934 91.2719 21.3707 91.2691 21.2718C91.2665 21.1808 91.2647 21.0548 91.2647 20.888H83.2647C83.2647 21.2869 83.2716 21.7211 83.3051 22.0901L91.2723 21.3659ZM91.2647 20.888V12.464H83.2647V20.888H91.2647ZM87.623 6.23515C88.1189 5.24322 88.9409 4.82584 89.3722 4.68967L91.7812 12.3183C92.8204 11.9902 94.0584 11.2528 94.7784 9.81285L87.623 6.23515ZM89.3722 4.68967C89.4485 4.66558 89.505 4.6527 89.5363 4.64638C89.5679 4.63998 89.582 4.63861 89.5753 4.6394C89.5689 4.64015 89.5474 4.64242 89.5088 4.64443C89.4703 4.64644 89.4187 4.648 89.3527 4.648V12.648C90.0575 12.648 90.9246 12.5888 91.7812 12.3183L89.3722 4.68967ZM89.3527 4.648C89.2927 4.648 89.2464 4.64654 89.2127 4.64473C89.1787 4.64291 89.1609 4.64092 89.1573 4.64049C89.1534 4.64003 89.1687 4.64169 89.2003 4.64814C89.2315 4.65454 89.2854 4.667 89.3572 4.68967L86.9482 12.3183C87.7955 12.5859 88.6485 12.648 89.3527 12.648V4.648ZM89.3572 4.68967C89.5846 4.76148 89.8954 4.89732 90.2184 5.14859C90.5511 5.40735 90.8321 5.73887 91.0341 6.11765L83.9753 9.88235C84.6798 11.2034 85.8308 11.9655 86.9482 12.3183L89.3572 4.68967ZM91.1294 6.30846C91.1205 6.28924 91.1296 6.30629 91.1466 6.35556C91.163 6.40272 91.1964 6.50751 91.2242 6.66046L83.3532 8.09154C83.4683 8.72431 83.6853 9.2745 83.88 9.69154L91.1294 6.30846ZM91.2749 7.04382C91.2749 7.0447 91.2718 7.00443 91.2691 6.90776C91.2664 6.81546 91.2647 6.69294 91.2647 6.536H83.2647C83.2647 6.93459 83.2724 7.34732 83.3025 7.70818L91.2749 7.04382ZM91.2647 6.536C91.2647 6.37858 91.2664 6.25954 91.269 6.17359C91.2717 6.08082 91.2745 6.05787 91.2723 6.08214L83.3051 5.35786C83.2718 5.72407 83.2647 6.14705 83.2647 6.536H91.2647ZM91.2343 6.37759C91.185 6.67288 91.1004 6.84881 91.0824 6.88485L83.927 3.30714C83.685 3.79118 83.4563 4.38312 83.3431 5.0624L91.2343 6.37759ZM91.0557 6.93727C90.5487 7.91504 89.7533 8.28464 89.4491 8.38994C89.1748 8.48489 89.0926 8.448 89.3767 8.448V0.447999C88.6368 0.447999 87.7305 0.519103 86.8322 0.830054C85.904 1.15136 84.6847 1.84496 83.9537 3.25473L91.0557 6.93727ZM89.3767 8.448C89.6514 8.448 89.5471 8.4849 89.2496 8.3792C88.9133 8.25971 88.0904 7.85665 87.5967 6.83126L94.8047 3.36074C94.103 1.90335 92.8721 1.17629 91.9277 0.840792C91.0222 0.519094 90.11 0.447999 89.3767 0.447999V8.448ZM87.6713 6.97835C87.641 6.92162 87.4743 6.60129 87.4305 6.07618L95.4029 5.41182C95.3271 4.50271 95.0164 3.75037 94.7301 3.21365L87.6713 6.97835ZM87.4812 6.45953C87.468 6.38683 87.4623 6.33752 87.4605 6.32013C87.4584 6.30102 87.4586 6.29806 87.4596 6.31489C87.4605 6.33101 87.4619 6.35944 87.4629 6.40197C87.464 6.44417 87.4647 6.49652 87.4647 6.56H95.4647C95.4647 6.14777 95.4518 5.57637 95.3522 5.02846L87.4812 6.45953ZM87.4647 6.56C87.4647 6.68984 87.4618 6.77293 87.4592 6.8178C87.458 6.83913 87.4573 6.84393 87.4582 6.83481C87.459 6.82669 87.4625 6.79407 87.4711 6.74241L95.3623 8.05759C95.4495 7.53443 95.4647 6.99089 95.4647 6.56H87.4647ZM87.4331 7.03785C87.4606 6.73594 87.5255 6.51023 87.5707 6.37956C87.6169 6.24635 87.6588 6.16497 87.6713 6.14165L94.7301 9.90635C94.9879 9.42297 95.317 8.67804 95.4003 7.76214L87.4331 7.03785ZM93.4059 6.704L89.4603 6.0464L89.4358 6.19342L89.4223 6.34186L93.4059 6.704ZM93.6459 6.056L97.1753 7.93835L97.1862 7.91787L97.1969 7.89727L93.6459 6.056ZM97.5099 6.296L101.347 5.16734L101.318 5.06787L101.284 4.97006L97.5099 6.296ZM97.5819 21.728L93.6464 21.0125L93.6145 21.1881L93.5983 21.3659L97.5819 21.728ZM97.3659 22.352L93.8365 20.4696L93.8255 20.4901L93.8149 20.5107L97.3659 22.352ZM93.5259 22.088L97.3402 20.8835L97.3083 20.7826L97.2712 20.6835L93.5259 22.088ZM97.3819 7.52C97.3819 7.36258 97.3836 7.24354 97.3861 7.1576C97.3889 7.06482 97.3917 7.04187 97.3894 7.06614L89.4223 6.34186C89.389 6.70807 89.3819 7.13105 89.3819 7.52H97.3819ZM97.3515 7.36159C97.3191 7.5555 97.2732 7.69986 97.2409 7.78726C97.2082 7.87542 97.1815 7.92676 97.1753 7.93835L90.1165 4.17364C89.859 4.65642 89.5858 5.29354 89.4603 6.0464L97.3515 7.36159ZM97.1969 7.89727C96.6899 8.87504 95.8945 9.24464 95.5903 9.34994C95.316 9.44489 95.2338 9.408 95.5179 9.408V1.408C94.778 1.408 93.8717 1.4791 92.9734 1.79005C92.0452 2.11136 90.8258 2.80496 90.0949 4.21473L97.1969 7.89727ZM95.5179 9.408C95.7896 9.408 95.6091 9.45366 95.2272 9.28343C95.0109 9.18699 94.7107 9.01187 94.4144 8.7101C94.1086 8.39872 93.8769 8.0229 93.736 7.62194L101.284 4.97006C100.148 1.73684 96.8771 1.408 95.5179 1.408V9.408ZM93.6724 7.42466C93.6413 7.31899 93.6272 7.24464 93.6219 7.2143C93.6162 7.18209 93.6162 7.17371 93.6182 7.19485C93.6202 7.21508 93.6232 7.25411 93.6257 7.3148C93.6282 7.37503 93.6299 7.4509 93.6299 7.544H101.63C101.63 6.89761 101.595 6.00967 101.347 5.16734L93.6724 7.42466ZM93.6299 7.544V20.888H101.63V7.544H93.6299ZM93.6299 20.888C93.6299 20.9567 93.6292 21.0137 93.628 21.0601C93.6269 21.1069 93.6255 21.1388 93.6244 21.1578C93.6233 21.1776 93.6229 21.1762 93.6249 21.1578C93.6266 21.1414 93.6324 21.0896 93.6464 21.0125L101.517 22.4435C101.618 21.8899 101.63 21.3041 101.63 20.888H93.6299ZM93.5983 21.3659C93.6257 21.0639 93.6907 20.8382 93.7359 20.7076C93.782 20.5744 93.824 20.493 93.8365 20.4696L100.895 24.2344C101.153 23.751 101.482 23.006 101.565 22.0901L93.5983 21.3659ZM93.8149 20.5107C94.3219 19.533 95.1172 19.1634 95.4214 19.0581C95.6957 18.9631 95.778 19 95.4939 19V27C96.2338 27 97.14 26.9289 98.0383 26.6179C98.9665 26.2966 100.186 25.603 100.917 24.1933L93.8149 20.5107ZM95.4939 19C95.2278 19 95.4349 18.9533 95.8437 19.1428C96.0754 19.2501 96.3869 19.4413 96.6862 19.7632C96.9941 20.0944 97.214 20.4837 97.3402 20.8835L89.7115 23.2925C90.7684 26.6391 94.1099 27 95.4939 27V19ZM97.2712 20.6835C97.3292 20.8381 97.3583 20.9568 97.372 21.0197C97.3862 21.0852 97.3904 21.1223 97.3905 21.1226C97.3907 21.1243 97.3883 21.1039 97.386 21.0574C97.3837 21.0116 97.3819 20.9478 97.3819 20.864H89.3819C89.3819 21.5084 89.418 22.5258 89.7806 23.4925L97.2712 20.6835ZM97.3819 20.864V7.52H89.3819V20.864H97.3819ZM108.018 5.096L104.489 3.21364L104.464 3.26008L104.44 3.30714L108.018 5.096ZM108.666 4.592L109.87 8.40633L109.87 8.40633L108.666 4.592ZM111.09 4.592L109.885 8.40633L109.885 8.40633L111.09 4.592ZM111.714 5.096L108.089 6.78755L108.134 6.88421L108.185 6.97834L111.714 5.096ZM111.93 5.744L107.944 6.0762L107.96 6.26909L107.994 6.45953L111.93 5.744ZM111.93 21.728L107.984 21.0704L107.96 21.2174L107.946 21.3658L111.93 21.728ZM111.714 22.328L108.241 20.3435L108.229 20.3644L108.217 20.3854L111.714 22.328ZM107.826 21.8L111.774 21.1555L110.406 12.7772L104.816 19.166L107.826 21.8ZM101.082 21.08L98.1626 23.8145L98.1713 23.8238L98.1801 23.833L101.082 21.08ZM101.082 12.272L98.181 9.51797L98.1718 9.52768L98.1626 9.53746L101.082 12.272ZM107.778 11.576L104.685 14.1123L111.778 22.7624V11.576H107.778ZM107.802 5.72L103.856 5.0624L103.832 5.20942L103.818 5.35786L107.802 5.72ZM107.106 18.128L104.171 15.4104L104.143 15.4402L104.116 15.4705L107.106 18.128ZM107.13 15.248L104.039 17.787L104.066 17.8193L104.093 17.8512L107.13 15.248ZM104.082 15.248L107.072 17.9055L107.096 17.8785L107.119 17.8512L104.082 15.248ZM111.547 6.97836C111.345 7.35713 111.064 7.68865 110.732 7.94741C110.409 8.19868 110.098 8.33452 109.87 8.40633L107.461 0.777668C106.344 1.13051 105.193 1.89262 104.489 3.21364L111.547 6.97836ZM109.87 8.40633C109.799 8.429 109.745 8.44146 109.714 8.44786C109.682 8.45431 109.667 8.45597 109.671 8.45551C109.674 8.45507 109.692 8.45309 109.726 8.45127C109.76 8.44946 109.806 8.448 109.866 8.448V0.447999C109.162 0.447999 108.309 0.51009 107.461 0.777671L109.87 8.40633ZM109.866 8.448C109.932 8.448 109.984 8.44956 110.022 8.45157C110.061 8.45358 110.082 8.45585 110.089 8.4566C110.095 8.45739 110.081 8.45601 110.049 8.44962C110.018 8.4433 109.962 8.43042 109.885 8.40633L112.294 0.777671C111.438 0.507169 110.571 0.447999 109.866 0.447999V8.448ZM109.885 8.40633C109.651 8.3322 109.312 8.18567 108.961 7.90177C108.596 7.60692 108.293 7.22481 108.089 6.78755L115.339 3.40445C114.657 1.94469 113.431 1.13655 112.294 0.777668L109.885 8.40633ZM108.185 6.97834C108.154 6.92162 107.988 6.6013 107.944 6.0762L115.916 5.4118C115.84 4.5027 115.53 3.75038 115.243 3.21366L108.185 6.97834ZM107.994 6.45953C107.981 6.38682 107.976 6.33751 107.974 6.32013C107.972 6.30102 107.972 6.29806 107.973 6.31488C107.974 6.33101 107.975 6.35944 107.976 6.40197C107.977 6.44417 107.978 6.49652 107.978 6.56H115.978C115.978 6.14777 115.965 5.57638 115.865 5.02847L107.994 6.45953ZM107.978 6.56V20.888H115.978V6.56H107.978ZM107.978 20.888C107.978 21.0178 107.975 21.1009 107.972 21.1458C107.971 21.1671 107.971 21.1719 107.971 21.1628C107.972 21.1547 107.976 21.1221 107.984 21.0704L115.876 22.3856C115.963 21.8624 115.978 21.3189 115.978 20.888H107.978ZM107.946 21.3658C107.975 21.0547 108.044 20.8129 108.1 20.6551C108.157 20.4969 108.213 20.3916 108.241 20.3435L115.187 24.3125C115.479 23.8012 115.827 23.0376 115.914 22.0902L107.946 21.3658ZM108.217 20.3854C108.775 19.3814 109.61 19.0663 109.813 19.0017C110.022 18.9354 110.029 18.976 109.674 18.976V26.976C110.439 26.976 111.346 26.9086 112.235 26.6263C113.118 26.3457 114.413 25.7066 115.211 24.2706L108.217 20.3854ZM109.674 18.976C109.52 18.976 109.948 18.9362 110.531 19.3074C110.849 19.5096 111.156 19.8006 111.394 20.1759C111.626 20.5437 111.731 20.8952 111.774 21.1555L103.878 22.4445C104.108 23.8504 104.876 25.1907 106.236 26.0566C107.436 26.8198 108.724 26.976 109.674 26.976V18.976ZM104.816 19.166C104.844 19.134 104.886 19.093 104.943 19.0523C105 19.0116 105.055 18.9823 105.102 18.9633C105.196 18.9245 105.192 18.952 105.018 18.952V26.952C107.148 26.952 109.269 26.2251 110.836 24.434L104.816 19.166ZM105.018 18.952C104.887 18.952 104.571 18.9463 103.984 18.327L98.1801 23.833C99.9605 25.7097 102.269 26.952 105.018 26.952V18.952ZM104.001 18.3455C103.48 17.7893 103.306 17.2915 103.306 16.688H95.3059C95.3059 19.4125 96.3156 21.8427 98.1626 23.8145L104.001 18.3455ZM103.306 16.688C103.306 16.0579 103.488 15.5546 104.001 15.0065L98.1626 9.53746C96.3081 11.5174 95.3059 13.9581 95.3059 16.688H103.306ZM103.983 15.026C104.609 14.3665 104.929 14.376 105.018 14.376V6.376C102.259 6.376 99.9549 7.64951 98.181 9.51797L103.983 15.026ZM105.018 14.376C105.159 14.376 105.127 14.3989 105.001 14.3443C104.94 14.3179 104.875 14.2806 104.813 14.2335C104.752 14.1867 104.709 14.1423 104.685 14.1123L110.871 9.03968C109.34 7.17269 107.206 6.376 105.018 6.376V14.376ZM111.778 11.576V6.536H103.778V11.576H111.778ZM111.778 6.536C111.778 6.37858 111.78 6.25954 111.782 6.17359C111.785 6.08082 111.788 6.05787 111.786 6.08214L103.818 5.35786C103.785 5.72407 103.778 6.14705 103.778 6.536H111.778ZM111.748 6.3776C111.698 6.67288 111.614 6.84881 111.596 6.88485L104.44 3.30714C104.198 3.79118 103.97 4.38312 103.856 5.0624L111.748 6.3776ZM101.249 20.9026C102.408 22.106 103.947 22.776 105.642 22.776V14.776C105.844 14.776 106.111 14.8155 106.396 14.9374C106.679 15.0589 106.884 15.2209 107.011 15.3534L101.249 20.9026ZM105.642 22.776C107.345 22.776 108.932 22.0948 110.096 20.7855L104.116 15.4705C104.272 15.2949 104.511 15.0986 104.833 14.9563C105.152 14.815 105.442 14.776 105.642 14.776V22.776ZM110.041 20.8456C111.016 19.793 111.706 18.3827 111.706 16.712H103.706C103.706 16.4311 103.764 16.1465 103.873 15.8894C103.978 15.6412 104.103 15.4842 104.171 15.4104L110.041 20.8456ZM111.706 16.712C111.706 15.1157 111.094 13.7267 110.167 12.6448L104.093 17.8512C104.031 17.7784 103.926 17.6341 103.84 17.4145C103.751 17.1888 103.706 16.9457 103.706 16.712H111.706ZM110.221 12.709C109.008 11.2323 107.314 10.576 105.618 10.576V18.576C105.467 18.576 105.186 18.5481 104.851 18.3992C104.505 18.2454 104.229 18.0188 104.039 17.787L110.221 12.709ZM105.618 10.576C103.922 10.576 102.259 11.2287 101.045 12.6448L107.119 17.8512C106.941 18.0583 106.684 18.2658 106.357 18.4086C106.039 18.5477 105.77 18.576 105.618 18.576V10.576ZM101.092 12.5905C100.124 13.6798 99.5059 15.0845 99.5059 16.688H107.506C107.506 16.9218 107.461 17.1749 107.364 17.4176C107.269 17.6547 107.151 17.8162 107.072 17.9055L101.092 12.5905ZM99.5059 16.688C99.5059 18.3935 100.22 19.8348 101.249 20.9026L107.011 15.3534C107.087 15.432 107.22 15.5957 107.332 15.8536C107.448 16.1204 107.506 16.4101 107.506 16.688H99.5059ZM115.546 11.936L118.267 14.8672L118.267 14.8672L115.546 11.936ZM124.738 11.936L121.998 14.8509L122.008 14.8597L122.017 14.8684L124.738 11.936ZM125.698 20.216L129.018 22.4468L129.026 22.4349L129.034 22.4229L125.698 20.216ZM123.178 22.496L124.943 26.0854L124.955 26.0796L124.967 26.0737L123.178 22.496ZM117.058 22.448L115.178 25.979L115.201 25.9909L115.223 26.0025L117.058 22.448ZM114.538 20.144L111.193 22.3386L111.213 22.369L111.234 22.399L114.538 20.144ZM118.546 18.416L116.083 21.5681L116.114 21.5924L116.146 21.616L118.546 18.416ZM121.69 18.392L119.274 15.2036L119.274 15.2036L121.69 18.392ZM121.738 14.864L119.289 18.0269L119.289 18.0269L121.738 14.864ZM118.522 14.888L116.011 11.7743L116.011 11.7743L118.522 14.888ZM117.53 16.688C117.53 15.8215 117.781 15.3193 118.267 14.8672L112.824 9.00483C110.623 11.0487 109.53 13.7145 109.53 16.688H117.53ZM118.267 14.8672C118.921 14.2599 119.501 14.064 120.154 14.064V6.064C117.35 6.064 114.858 7.11608 112.824 9.00483L118.267 14.8672ZM120.154 14.064C120.804 14.064 121.368 14.258 121.998 14.8509L127.477 9.02114C125.452 7.11798 122.959 6.064 120.154 6.064V14.064ZM122.017 14.8684C122.476 15.294 122.73 15.782 122.73 16.664H130.73C130.73 13.706 129.655 11.042 127.458 9.00357L122.017 14.8684ZM122.73 16.664C122.73 17.2607 122.588 17.6669 122.362 18.0091L129.034 22.4229C130.183 20.6851 130.73 18.7233 130.73 16.664H122.73ZM122.377 17.9852C122.031 18.5014 121.695 18.7651 121.389 18.9183L124.967 26.0737C126.644 25.2349 127.989 23.9786 129.018 22.4468L122.377 17.9852ZM121.412 18.9066C120.969 19.1248 120.555 19.216 120.13 19.216V27.216C121.816 27.216 123.435 26.8272 124.943 26.0854L121.412 18.9066ZM120.13 19.216C119.749 19.216 119.35 19.13 118.892 18.8935L115.223 26.0025C116.749 26.79 118.399 27.216 120.13 27.216V19.216ZM118.937 18.917C118.564 18.7186 118.197 18.4098 117.841 17.889L111.234 22.399C112.254 23.8942 113.567 25.1214 115.178 25.979L118.937 18.917ZM117.882 17.9494C117.658 17.6077 117.53 17.2252 117.53 16.688H109.53C109.53 18.7108 110.074 20.6323 111.193 22.3386L117.882 17.9494ZM116.146 21.616C117.2 22.4064 118.541 22.992 120.106 22.992V14.992C120.338 14.992 120.544 15.0361 120.705 15.0956C120.859 15.1525 120.939 15.2108 120.946 15.216L116.146 21.616ZM120.106 22.992C121.707 22.992 123.062 22.3709 124.105 21.5804L119.274 15.2036C119.264 15.2116 119.332 15.1578 119.481 15.1014C119.638 15.0419 119.853 14.992 120.106 14.992V22.992ZM124.105 21.5804C125.821 20.2804 126.482 18.3932 126.482 16.616H118.482C118.482 16.5619 118.491 16.3313 118.63 16.0189C118.779 15.6852 119.013 15.4014 119.274 15.2036L124.105 21.5804ZM126.482 16.616C126.482 14.9355 125.902 13.0295 124.186 11.7011L119.289 18.0269C118.989 17.795 118.754 17.4837 118.614 17.1535C118.485 16.8492 118.482 16.6383 118.482 16.616H126.482ZM124.186 11.7011C123.056 10.8258 121.672 10.288 120.13 10.288V18.288C119.963 18.288 119.785 18.2586 119.615 18.1977C119.449 18.1382 119.34 18.0664 119.289 18.0269L124.186 11.7011ZM120.13 10.288C118.542 10.288 117.138 10.8656 116.011 11.7743L121.033 18.0017C120.984 18.041 120.872 18.1194 120.694 18.1856C120.512 18.2537 120.316 18.288 120.13 18.288V10.288ZM116.011 11.7743C114.358 13.1073 113.778 14.9771 113.778 16.664H121.778C121.778 16.6883 121.774 16.8886 121.653 17.1775C121.522 17.4893 121.305 17.7817 121.033 18.0017L116.011 11.7743ZM113.778 16.664C113.778 18.412 114.419 20.2677 116.083 21.5681L121.008 15.2639C121.264 15.4638 121.49 15.7453 121.633 16.0721C121.768 16.3789 121.778 16.606 121.778 16.664H113.778ZM128.304 5.696L124.359 5.0384L124.334 5.18542L124.321 5.33386L128.304 5.696ZM128.52 5.048L124.969 3.20673L124.931 3.28082L124.896 3.35646L128.52 5.048ZM132.216 5.048L135.746 3.16564L135.73 3.1354L135.713 3.10543L132.216 5.048ZM132.432 5.696L128.446 6.02818L128.46 6.19172L128.487 6.35359L132.432 5.696ZM132.624 18.752L129.194 20.81L129.243 20.8916L129.296 20.9708L132.624 18.752ZM133.92 19.016L132.821 22.8621L133.084 22.9372L133.355 22.9758L133.92 19.016ZM134.328 19.208L132.034 22.4849L132.091 22.5243L132.148 22.5618L134.328 19.208ZM134.328 22.76L136.605 26.0488L136.614 26.0429L136.622 26.0369L134.328 22.76ZM131.352 22.904L130.837 26.8707L130.852 26.8726L130.866 26.8743L131.352 22.904ZM128.952 21.68L132.441 19.723L132.433 19.7092L132.425 19.6954L128.952 21.68ZM132.28 6.512C132.28 6.35458 132.282 6.23554 132.285 6.1496C132.287 6.05682 132.29 6.03387 132.288 6.05814L124.321 5.33386C124.287 5.70007 124.28 6.12305 124.28 6.512H132.28ZM132.25 6.35359C132.226 6.49478 132.196 6.59709 132.177 6.65491C132.158 6.71342 132.144 6.7425 132.145 6.73954L124.896 3.35646C124.681 3.81545 124.467 4.3865 124.359 5.0384L132.25 6.35359ZM132.071 6.88927C131.564 7.86704 130.769 8.23664 130.465 8.34194C130.19 8.43689 130.108 8.4 130.392 8.4V0.399999C129.652 0.399999 128.746 0.471104 127.848 0.782055C126.92 1.10336 125.7 1.79696 124.969 3.20673L132.071 6.88927ZM130.392 8.4C130.634 8.4 130.528 8.43312 130.241 8.33121C129.914 8.215 129.202 7.85849 128.72 6.99057L135.713 3.10543C134.991 1.80551 133.854 1.125 132.919 0.792793C132.025 0.47488 131.127 0.399999 130.392 0.399999V8.4ZM128.687 6.93035C128.657 6.87362 128.49 6.55329 128.446 6.02818L136.418 5.36382C136.343 4.45471 136.032 3.70237 135.746 3.16564L128.687 6.93035ZM128.487 6.35359C128.478 6.30193 128.475 6.26931 128.474 6.26119C128.473 6.25207 128.474 6.25687 128.475 6.2782C128.477 6.32306 128.48 6.40616 128.48 6.536H136.48C136.48 6.1051 136.465 5.56156 136.378 5.03841L128.487 6.35359ZM128.48 6.536V17.648H136.48V6.536H128.48ZM128.48 17.648C128.48 18.0258 128.495 18.4514 128.55 18.8734C128.589 19.1695 128.703 19.9906 129.194 20.81L136.054 16.694C136.284 17.077 136.382 17.4016 136.42 17.5405C136.464 17.6995 136.479 17.809 136.483 17.8386C136.49 17.8926 136.48 17.8462 136.48 17.648H128.48ZM129.296 20.9708C130.584 22.9029 132.685 22.968 133.248 22.968V14.968C133.35 14.968 133.7 14.9745 134.161 15.1341C134.656 15.3053 135.398 15.701 135.953 16.5332L129.296 20.9708ZM133.248 22.968C133.363 22.968 133.4 22.971 133.383 22.9698C133.373 22.9691 133.325 22.9656 133.25 22.9548C133.211 22.9492 133.156 22.9405 133.089 22.9271C133.023 22.9139 132.931 22.8934 132.821 22.8621L135.019 15.1699C134.284 14.9598 133.502 14.968 133.248 14.968V22.968ZM133.355 22.9758C132.912 22.9125 132.585 22.7807 132.403 22.6953C132.214 22.6064 132.089 22.5232 132.034 22.4849L136.622 15.9311C136.271 15.6851 135.518 15.2037 134.486 15.0562L133.355 22.9758ZM132.148 22.5618C131.152 21.9139 130.884 21.0359 130.838 20.8746C130.779 20.664 130.808 20.6308 130.808 20.912H138.808C138.808 20.2652 138.758 19.4839 138.538 18.7054C138.333 17.9761 137.825 16.7101 136.508 15.8542L132.148 22.5618ZM130.808 20.912C130.808 21.2494 130.777 21.278 130.817 21.1244C130.839 21.037 130.905 20.8153 131.065 20.5339C131.23 20.2457 131.53 19.8364 132.034 19.4831L136.622 26.0369C137.922 25.1274 138.381 23.8233 138.56 23.1356C138.76 22.366 138.808 21.5826 138.808 20.912H130.808ZM132.051 19.4712C132.281 19.3124 132.487 19.2131 132.637 19.152C132.788 19.0907 132.907 19.0576 132.98 19.0402C133.115 19.0079 133.164 19.0126 133.079 19.0167C133.003 19.0203 132.863 19.0216 132.645 19.0093C132.43 18.9972 132.163 18.9733 131.838 18.9337L130.866 26.8743C131.76 26.9839 132.651 27.0468 133.466 27.0073C134.113 26.976 135.429 26.8633 136.605 26.0488L132.051 19.4712ZM131.867 18.9373C131.544 18.8953 131.515 18.8478 131.646 18.9147C131.81 18.9987 132.169 19.2381 132.441 19.723L125.464 23.637C126.764 25.9541 129.165 26.6536 130.837 26.8707L131.867 18.9373ZM132.425 19.6954C132.499 19.8245 132.447 19.7914 132.385 19.4493C132.327 19.1233 132.28 18.6314 132.28 17.936H124.28C124.28 19.8225 124.496 21.9444 125.479 23.6646L132.425 19.6954ZM132.28 17.936V6.512H124.28V17.936H132.28Z" fill="#8624A8" mask="url(#path-1-outside-1_2_91)"/>
</svg>
