<svg width="205" height="44" viewBox="0 0 205 44" fill="none" xmlns="http://www.w3.org/2000/svg">
<mask id="path-1-outside-1_2_72" maskUnits="userSpaceOnUse" x="0" y="3" width="205" height="37" fill="black">
<rect fill="white" y="3" width="205" height="37"/>
<path d="M18.8962 8.612C19.8322 8.612 20.5162 8.696 20.9482 8.864C21.4042 9.008 21.7282 9.26 21.9202 9.62C22.1842 10.172 22.3162 10.916 22.3162 11.852V25.784C22.3162 28.304 21.4042 30.536 19.5802 32.48C17.7562 34.4 15.4282 35.36 12.5962 35.36C11.0122 35.36 9.60819 35.012 8.38419 34.316C7.28019 33.716 6.51219 33.176 6.08019 32.696L5.79219 32.408C4.95219 31.52 4.53219 30.764 4.53219 30.14C4.53219 29.492 4.95219 28.736 5.79219 27.872C6.63219 27.008 7.37619 26.576 8.02419 26.576C8.67219 26.576 9.39219 26.972 10.1842 27.764C10.9762 28.556 11.8282 28.952 12.7402 28.952C13.6762 28.952 14.4442 28.64 15.0442 28.016C15.6442 27.392 15.9442 26.564 15.9442 25.532V12.068C15.9442 10.628 16.1842 9.704 16.6642 9.296C17.2162 8.84 17.9602 8.612 18.8962 8.612ZM24.65 25.532C24.65 22.652 25.658 20.276 27.674 18.404C29.69 16.532 31.994 15.596 34.586 15.596C37.178 15.596 39.47 16.532 41.462 18.404C43.454 20.252 44.45 22.616 44.45 25.496C44.45 27.488 43.934 29.264 42.902 30.824C41.87 32.36 40.61 33.5 39.122 34.244C37.658 34.964 36.134 35.324 34.55 35.324C32.966 35.324 31.43 34.94 29.942 34.172C28.454 33.38 27.194 32.228 26.162 30.716C25.154 29.18 24.65 27.452 24.65 25.532ZM32.174 28.124C32.942 28.7 33.722 28.988 34.514 28.988C35.306 28.988 36.098 28.688 36.89 28.088C37.682 27.488 38.078 26.6 38.078 25.424C38.078 24.248 37.706 23.372 36.962 22.796C36.218 22.22 35.414 21.932 34.55 21.932C33.686 21.932 32.882 22.232 32.138 22.832C31.394 23.432 31.022 24.32 31.022 25.496C31.022 26.648 31.406 27.524 32.174 28.124ZM57.9359 25.496L62.7239 29.456C63.3239 29.96 63.6959 30.344 63.8399 30.608C64.0079 30.872 64.0919 31.124 64.0919 31.364C64.0919 31.94 63.7199 32.72 62.9759 33.704C62.1599 34.712 61.4399 35.216 60.8159 35.216C60.2879 35.216 59.5559 34.868 58.6199 34.172L58.2599 33.92C57.7079 33.464 56.8559 32.672 55.7039 31.544C54.5519 30.392 53.6759 29.576 53.0759 29.096V31.868C53.0759 32.42 53.0519 32.84 53.0039 33.128C52.9799 33.392 52.8719 33.704 52.6799 34.064C52.3679 34.688 51.4439 35 49.9079 35C48.3959 35 47.4719 34.676 47.1359 34.028C46.9679 33.668 46.8599 33.356 46.8119 33.092C46.7879 32.804 46.7759 32.384 46.7759 31.832V10.268C46.7759 9.716 46.7879 9.308 46.8119 9.044C46.8599 8.756 46.9679 8.432 47.1359 8.072C47.4719 7.424 48.4079 7.1 49.9439 7.1C51.0959 7.1 51.9119 7.304 52.3919 7.712C52.7999 8.048 53.0159 8.576 53.0399 9.296C53.0639 9.512 53.0759 9.848 53.0759 10.304V21.716C53.5079 21.356 54.1559 20.744 55.0199 19.88C55.9079 19.016 56.5679 18.404 56.9999 18.044L57.4319 17.756C58.2719 17.108 58.9919 16.784 59.5919 16.784C60.1919 16.784 60.8759 17.276 61.6439 18.26C62.4359 19.22 62.8319 19.976 62.8319 20.528C62.8319 21.08 62.3879 21.728 61.4999 22.472L57.9359 25.496ZM83.2749 23.264C83.2749 24.728 82.9029 25.82 82.1589 26.54C81.4389 27.236 80.6349 27.584 79.7469 27.584H71.2149C71.2149 28.256 71.6109 28.82 72.4029 29.276C73.1949 29.732 73.9869 29.96 74.7789 29.96C76.1709 29.96 77.2629 29.816 78.0549 29.528L78.4509 29.384C79.0269 29.12 79.5069 28.988 79.8909 28.988C80.6589 28.988 81.3189 29.528 81.8709 30.608C82.1829 31.256 82.3389 31.808 82.3389 32.264C82.3389 34.4 79.7829 35.468 74.6709 35.468C72.8949 35.468 71.3109 35.168 69.9189 34.568C68.5509 33.944 67.4829 33.128 66.7149 32.12C65.2029 30.176 64.4469 28.004 64.4469 25.604C64.4469 22.58 65.4189 20.168 67.3629 18.368C69.3309 16.544 71.7789 15.632 74.7069 15.632C78.0429 15.632 80.4909 16.808 82.0509 19.16C82.8669 20.408 83.2749 21.776 83.2749 23.264ZM75.6789 24.308C76.5909 24.308 77.0469 23.924 77.0469 23.156C77.0469 22.604 76.8309 22.16 76.3989 21.824C75.9909 21.488 75.3909 21.32 74.5989 21.32C73.8309 21.32 73.0629 21.644 72.2949 22.292C71.5269 22.916 71.1429 23.588 71.1429 24.308H75.6789ZM85.7676 33.308C85.3116 33.02 85.0836 32.564 85.0836 31.94C85.0836 31.316 85.5396 30.368 86.4516 29.096C86.7156 28.688 87.1356 28.484 87.7116 28.484C88.3116 28.484 89.1156 28.784 90.1236 29.384C91.1316 29.96 92.0436 30.248 92.8596 30.248C94.3236 30.248 95.0556 29.96 95.0556 29.384C95.0556 28.928 94.2516 28.592 92.6436 28.376C91.1316 28.16 89.6316 27.596 88.1436 26.684C87.4476 26.252 86.8716 25.58 86.4156 24.668C85.9596 23.732 85.7316 22.628 85.7316 21.356C85.7316 17.564 88.3356 15.668 93.5436 15.668C95.2476 15.668 96.9996 16.076 98.7996 16.892C99.6396 17.276 100.06 17.756 100.06 18.332C100.06 18.908 99.7956 19.616 99.2676 20.456C98.7396 21.296 98.1996 21.716 97.6476 21.716C97.3596 21.716 96.8196 21.536 96.0276 21.176C95.2596 20.816 94.4196 20.636 93.5076 20.636C92.0916 20.636 91.3836 20.9 91.3836 21.428C91.3836 22.148 92.1996 22.616 93.8316 22.832C95.4156 23 96.9516 23.456 98.4396 24.2C99.1356 24.536 99.7116 25.124 100.168 25.964C100.648 26.78 100.888 27.812 100.888 29.06C100.888 30.308 100.648 31.376 100.168 32.264C99.7116 33.128 99.0636 33.776 98.2236 34.208C96.6876 34.952 94.7556 35.324 92.4276 35.324C90.1236 35.324 87.9036 34.652 85.7676 33.308ZM120.265 9.728C120.505 9.296 120.853 9.008 121.309 8.864C121.765 8.72 122.329 8.648 123.001 8.648C123.697 8.648 124.249 8.708 124.657 8.828C125.089 8.948 125.401 9.092 125.593 9.26C125.809 9.428 125.965 9.68 126.061 10.016C126.205 10.4 126.277 11.012 126.277 11.852V31.832C126.277 32.408 126.253 32.828 126.205 33.092C126.181 33.356 126.073 33.668 125.881 34.028C125.545 34.676 124.609 35 123.073 35C122.137 35 121.489 34.928 121.129 34.784C120.769 34.64 120.469 34.412 120.229 34.1C114.829 26.9 111.277 22.196 109.573 19.988V31.832C109.573 32.408 109.549 32.828 109.501 33.092C109.477 33.356 109.369 33.668 109.177 34.028C108.841 34.676 107.905 35 106.369 35C104.881 35 103.969 34.676 103.633 34.028C103.441 33.668 103.321 33.344 103.273 33.056C103.249 32.768 103.237 32.348 103.237 31.796V11.708C103.237 10.796 103.345 10.136 103.561 9.728C103.801 9.296 104.149 9.008 104.605 8.864C105.061 8.72 105.649 8.648 106.369 8.648C107.089 8.648 107.653 8.72 108.061 8.864C108.493 8.984 108.793 9.128 108.961 9.296C109.057 9.368 109.333 9.68 109.789 10.232C114.853 17.12 118.237 21.668 119.941 23.876V11.708C119.941 10.796 120.049 10.136 120.265 9.728ZM129.147 19.196C129.147 18.644 129.159 18.236 129.183 17.972C129.231 17.684 129.339 17.36 129.507 17C129.843 16.376 130.779 16.064 132.315 16.064C133.467 16.064 134.283 16.268 134.763 16.676C135.171 17.012 135.387 17.528 135.411 18.224C135.435 18.464 135.447 18.812 135.447 19.268V31.868C135.447 32.42 135.423 32.84 135.375 33.128C135.351 33.392 135.243 33.704 135.051 34.064C134.739 34.688 133.815 35 132.279 35C130.767 35 129.843 34.676 129.507 34.028C129.339 33.668 129.231 33.356 129.183 33.092C129.159 32.828 129.147 32.408 129.147 31.832V19.196ZM135.051 12.536C134.883 12.872 134.571 13.112 134.115 13.256C133.659 13.4 133.047 13.472 132.279 13.472C131.535 13.472 130.935 13.4 130.479 13.256C130.023 13.112 129.699 12.86 129.507 12.5C129.339 12.14 129.231 11.828 129.183 11.564C129.159 11.276 129.147 10.856 129.147 10.304C129.147 9.752 129.159 9.344 129.183 9.08C129.231 8.792 129.339 8.48 129.507 8.144C129.843 7.496 130.779 7.172 132.315 7.172C133.827 7.172 134.739 7.496 135.051 8.144C135.243 8.504 135.351 8.828 135.375 9.116C135.423 9.38 135.447 9.788 135.447 10.34C135.447 10.892 135.423 11.312 135.375 11.6C135.351 11.864 135.243 12.176 135.051 12.536ZM138.323 11.78C138.323 11.228 138.335 10.82 138.359 10.556C138.407 10.268 138.527 9.944 138.719 9.584C139.055 8.936 139.991 8.612 141.527 8.612C143.207 8.612 144.203 9.056 144.515 9.944C144.635 10.352 144.695 10.976 144.695 11.816V31.832C144.695 32.408 144.671 32.828 144.623 33.092C144.599 33.356 144.491 33.668 144.299 34.028C143.963 34.676 143.027 35 141.491 35C139.811 35 138.827 34.544 138.539 33.632C138.395 33.248 138.323 32.636 138.323 31.796V11.78ZM160.277 8.144C160.469 7.784 160.793 7.532 161.249 7.388C161.705 7.244 162.305 7.172 163.049 7.172C163.817 7.172 164.429 7.244 164.885 7.388C165.341 7.532 165.653 7.784 165.821 8.144C166.013 8.504 166.121 8.828 166.145 9.116C166.193 9.38 166.217 9.788 166.217 10.34V31.832C166.217 32.384 166.193 32.804 166.145 33.092C166.121 33.356 166.013 33.656 165.821 33.992C165.461 34.64 164.441 34.964 162.761 34.964C161.105 34.964 160.181 34.376 159.989 33.2C158.981 34.352 157.577 34.928 155.777 34.928C153.617 34.928 151.649 33.992 149.873 32.12C148.097 30.224 147.209 28.028 147.209 25.532C147.209 23.012 148.097 20.804 149.873 18.908C151.673 17.012 153.641 16.064 155.777 16.064C157.553 16.064 158.933 16.664 159.917 17.864V10.304C159.917 9.752 159.929 9.344 159.953 9.08C160.001 8.792 160.109 8.48 160.277 8.144ZM154.445 27.692C155.069 28.34 155.825 28.664 156.713 28.664C157.601 28.664 158.333 28.34 158.909 27.692C159.509 27.044 159.809 26.336 159.809 25.568C159.809 24.776 159.521 24.044 158.945 23.372C158.393 22.7 157.637 22.364 156.677 22.364C155.717 22.364 154.949 22.7 154.373 23.372C153.797 24.02 153.509 24.74 153.509 25.532C153.509 26.324 153.821 27.044 154.445 27.692ZM168.545 25.532C168.545 22.652 169.553 20.276 171.569 18.404C173.585 16.532 175.889 15.596 178.481 15.596C181.073 15.596 183.365 16.532 185.357 18.404C187.349 20.252 188.345 22.616 188.345 25.496C188.345 27.488 187.829 29.264 186.797 30.824C185.765 32.36 184.505 33.5 183.017 34.244C181.553 34.964 180.029 35.324 178.445 35.324C176.861 35.324 175.325 34.94 173.837 34.172C172.349 33.38 171.089 32.228 170.057 30.716C169.049 29.18 168.545 27.452 168.545 25.532ZM176.069 28.124C176.837 28.7 177.617 28.988 178.409 28.988C179.201 28.988 179.993 28.688 180.785 28.088C181.577 27.488 181.973 26.6 181.973 25.424C181.973 24.248 181.601 23.372 180.857 22.796C180.113 22.22 179.309 21.932 178.445 21.932C177.581 21.932 176.777 22.232 176.033 22.832C175.289 23.432 174.917 24.32 174.917 25.496C174.917 26.648 175.301 27.524 176.069 28.124ZM190.67 10.268C190.67 9.716 190.682 9.308 190.706 9.044C190.754 8.756 190.862 8.432 191.03 8.072C191.366 7.424 192.302 7.1 193.838 7.1C195.302 7.1 196.214 7.424 196.574 8.072C196.766 8.432 196.874 8.756 196.898 9.044C196.946 9.332 196.97 9.752 196.97 10.304V26.972C196.97 27.836 197.042 28.388 197.186 28.628C197.33 28.844 197.642 28.952 198.122 28.952C198.626 28.952 198.962 28.976 199.13 29.024C199.298 29.048 199.502 29.144 199.742 29.312C200.222 29.624 200.462 30.476 200.462 31.868C200.462 33.38 200.222 34.304 199.742 34.64C199.118 35.072 197.63 35.144 195.278 34.856C193.43 34.616 192.23 34.004 191.678 33.02C191.006 31.844 190.67 29.972 190.67 27.404V10.268Z"/>
</mask>
<path d="M18.8962 8.612C19.8322 8.612 20.5162 8.696 20.9482 8.864C21.4042 9.008 21.7282 9.26 21.9202 9.62C22.1842 10.172 22.3162 10.916 22.3162 11.852V25.784C22.3162 28.304 21.4042 30.536 19.5802 32.48C17.7562 34.4 15.4282 35.36 12.5962 35.36C11.0122 35.36 9.60819 35.012 8.38419 34.316C7.28019 33.716 6.51219 33.176 6.08019 32.696L5.79219 32.408C4.95219 31.52 4.53219 30.764 4.53219 30.14C4.53219 29.492 4.95219 28.736 5.79219 27.872C6.63219 27.008 7.37619 26.576 8.02419 26.576C8.67219 26.576 9.39219 26.972 10.1842 27.764C10.9762 28.556 11.8282 28.952 12.7402 28.952C13.6762 28.952 14.4442 28.64 15.0442 28.016C15.6442 27.392 15.9442 26.564 15.9442 25.532V12.068C15.9442 10.628 16.1842 9.704 16.6642 9.296C17.2162 8.84 17.9602 8.612 18.8962 8.612ZM24.65 25.532C24.65 22.652 25.658 20.276 27.674 18.404C29.69 16.532 31.994 15.596 34.586 15.596C37.178 15.596 39.47 16.532 41.462 18.404C43.454 20.252 44.45 22.616 44.45 25.496C44.45 27.488 43.934 29.264 42.902 30.824C41.87 32.36 40.61 33.5 39.122 34.244C37.658 34.964 36.134 35.324 34.55 35.324C32.966 35.324 31.43 34.94 29.942 34.172C28.454 33.38 27.194 32.228 26.162 30.716C25.154 29.18 24.65 27.452 24.65 25.532ZM32.174 28.124C32.942 28.7 33.722 28.988 34.514 28.988C35.306 28.988 36.098 28.688 36.89 28.088C37.682 27.488 38.078 26.6 38.078 25.424C38.078 24.248 37.706 23.372 36.962 22.796C36.218 22.22 35.414 21.932 34.55 21.932C33.686 21.932 32.882 22.232 32.138 22.832C31.394 23.432 31.022 24.32 31.022 25.496C31.022 26.648 31.406 27.524 32.174 28.124ZM57.9359 25.496L62.7239 29.456C63.3239 29.96 63.6959 30.344 63.8399 30.608C64.0079 30.872 64.0919 31.124 64.0919 31.364C64.0919 31.94 63.7199 32.72 62.9759 33.704C62.1599 34.712 61.4399 35.216 60.8159 35.216C60.2879 35.216 59.5559 34.868 58.6199 34.172L58.2599 33.92C57.7079 33.464 56.8559 32.672 55.7039 31.544C54.5519 30.392 53.6759 29.576 53.0759 29.096V31.868C53.0759 32.42 53.0519 32.84 53.0039 33.128C52.9799 33.392 52.8719 33.704 52.6799 34.064C52.3679 34.688 51.4439 35 49.9079 35C48.3959 35 47.4719 34.676 47.1359 34.028C46.9679 33.668 46.8599 33.356 46.8119 33.092C46.7879 32.804 46.7759 32.384 46.7759 31.832V10.268C46.7759 9.716 46.7879 9.308 46.8119 9.044C46.8599 8.756 46.9679 8.432 47.1359 8.072C47.4719 7.424 48.4079 7.1 49.9439 7.1C51.0959 7.1 51.9119 7.304 52.3919 7.712C52.7999 8.048 53.0159 8.576 53.0399 9.296C53.0639 9.512 53.0759 9.848 53.0759 10.304V21.716C53.5079 21.356 54.1559 20.744 55.0199 19.88C55.9079 19.016 56.5679 18.404 56.9999 18.044L57.4319 17.756C58.2719 17.108 58.9919 16.784 59.5919 16.784C60.1919 16.784 60.8759 17.276 61.6439 18.26C62.4359 19.22 62.8319 19.976 62.8319 20.528C62.8319 21.08 62.3879 21.728 61.4999 22.472L57.9359 25.496ZM83.2749 23.264C83.2749 24.728 82.9029 25.82 82.1589 26.54C81.4389 27.236 80.6349 27.584 79.7469 27.584H71.2149C71.2149 28.256 71.6109 28.82 72.4029 29.276C73.1949 29.732 73.9869 29.96 74.7789 29.96C76.1709 29.96 77.2629 29.816 78.0549 29.528L78.4509 29.384C79.0269 29.12 79.5069 28.988 79.8909 28.988C80.6589 28.988 81.3189 29.528 81.8709 30.608C82.1829 31.256 82.3389 31.808 82.3389 32.264C82.3389 34.4 79.7829 35.468 74.6709 35.468C72.8949 35.468 71.3109 35.168 69.9189 34.568C68.5509 33.944 67.4829 33.128 66.7149 32.12C65.2029 30.176 64.4469 28.004 64.4469 25.604C64.4469 22.58 65.4189 20.168 67.3629 18.368C69.3309 16.544 71.7789 15.632 74.7069 15.632C78.0429 15.632 80.4909 16.808 82.0509 19.16C82.8669 20.408 83.2749 21.776 83.2749 23.264ZM75.6789 24.308C76.5909 24.308 77.0469 23.924 77.0469 23.156C77.0469 22.604 76.8309 22.16 76.3989 21.824C75.9909 21.488 75.3909 21.32 74.5989 21.32C73.8309 21.32 73.0629 21.644 72.2949 22.292C71.5269 22.916 71.1429 23.588 71.1429 24.308H75.6789ZM85.7676 33.308C85.3116 33.02 85.0836 32.564 85.0836 31.94C85.0836 31.316 85.5396 30.368 86.4516 29.096C86.7156 28.688 87.1356 28.484 87.7116 28.484C88.3116 28.484 89.1156 28.784 90.1236 29.384C91.1316 29.96 92.0436 30.248 92.8596 30.248C94.3236 30.248 95.0556 29.96 95.0556 29.384C95.0556 28.928 94.2516 28.592 92.6436 28.376C91.1316 28.16 89.6316 27.596 88.1436 26.684C87.4476 26.252 86.8716 25.58 86.4156 24.668C85.9596 23.732 85.7316 22.628 85.7316 21.356C85.7316 17.564 88.3356 15.668 93.5436 15.668C95.2476 15.668 96.9996 16.076 98.7996 16.892C99.6396 17.276 100.06 17.756 100.06 18.332C100.06 18.908 99.7956 19.616 99.2676 20.456C98.7396 21.296 98.1996 21.716 97.6476 21.716C97.3596 21.716 96.8196 21.536 96.0276 21.176C95.2596 20.816 94.4196 20.636 93.5076 20.636C92.0916 20.636 91.3836 20.9 91.3836 21.428C91.3836 22.148 92.1996 22.616 93.8316 22.832C95.4156 23 96.9516 23.456 98.4396 24.2C99.1356 24.536 99.7116 25.124 100.168 25.964C100.648 26.78 100.888 27.812 100.888 29.06C100.888 30.308 100.648 31.376 100.168 32.264C99.7116 33.128 99.0636 33.776 98.2236 34.208C96.6876 34.952 94.7556 35.324 92.4276 35.324C90.1236 35.324 87.9036 34.652 85.7676 33.308ZM120.265 9.728C120.505 9.296 120.853 9.008 121.309 8.864C121.765 8.72 122.329 8.648 123.001 8.648C123.697 8.648 124.249 8.708 124.657 8.828C125.089 8.948 125.401 9.092 125.593 9.26C125.809 9.428 125.965 9.68 126.061 10.016C126.205 10.4 126.277 11.012 126.277 11.852V31.832C126.277 32.408 126.253 32.828 126.205 33.092C126.181 33.356 126.073 33.668 125.881 34.028C125.545 34.676 124.609 35 123.073 35C122.137 35 121.489 34.928 121.129 34.784C120.769 34.64 120.469 34.412 120.229 34.1C114.829 26.9 111.277 22.196 109.573 19.988V31.832C109.573 32.408 109.549 32.828 109.501 33.092C109.477 33.356 109.369 33.668 109.177 34.028C108.841 34.676 107.905 35 106.369 35C104.881 35 103.969 34.676 103.633 34.028C103.441 33.668 103.321 33.344 103.273 33.056C103.249 32.768 103.237 32.348 103.237 31.796V11.708C103.237 10.796 103.345 10.136 103.561 9.728C103.801 9.296 104.149 9.008 104.605 8.864C105.061 8.72 105.649 8.648 106.369 8.648C107.089 8.648 107.653 8.72 108.061 8.864C108.493 8.984 108.793 9.128 108.961 9.296C109.057 9.368 109.333 9.68 109.789 10.232C114.853 17.12 118.237 21.668 119.941 23.876V11.708C119.941 10.796 120.049 10.136 120.265 9.728ZM129.147 19.196C129.147 18.644 129.159 18.236 129.183 17.972C129.231 17.684 129.339 17.36 129.507 17C129.843 16.376 130.779 16.064 132.315 16.064C133.467 16.064 134.283 16.268 134.763 16.676C135.171 17.012 135.387 17.528 135.411 18.224C135.435 18.464 135.447 18.812 135.447 19.268V31.868C135.447 32.42 135.423 32.84 135.375 33.128C135.351 33.392 135.243 33.704 135.051 34.064C134.739 34.688 133.815 35 132.279 35C130.767 35 129.843 34.676 129.507 34.028C129.339 33.668 129.231 33.356 129.183 33.092C129.159 32.828 129.147 32.408 129.147 31.832V19.196ZM135.051 12.536C134.883 12.872 134.571 13.112 134.115 13.256C133.659 13.4 133.047 13.472 132.279 13.472C131.535 13.472 130.935 13.4 130.479 13.256C130.023 13.112 129.699 12.86 129.507 12.5C129.339 12.14 129.231 11.828 129.183 11.564C129.159 11.276 129.147 10.856 129.147 10.304C129.147 9.752 129.159 9.344 129.183 9.08C129.231 8.792 129.339 8.48 129.507 8.144C129.843 7.496 130.779 7.172 132.315 7.172C133.827 7.172 134.739 7.496 135.051 8.144C135.243 8.504 135.351 8.828 135.375 9.116C135.423 9.38 135.447 9.788 135.447 10.34C135.447 10.892 135.423 11.312 135.375 11.6C135.351 11.864 135.243 12.176 135.051 12.536ZM138.323 11.78C138.323 11.228 138.335 10.82 138.359 10.556C138.407 10.268 138.527 9.944 138.719 9.584C139.055 8.936 139.991 8.612 141.527 8.612C143.207 8.612 144.203 9.056 144.515 9.944C144.635 10.352 144.695 10.976 144.695 11.816V31.832C144.695 32.408 144.671 32.828 144.623 33.092C144.599 33.356 144.491 33.668 144.299 34.028C143.963 34.676 143.027 35 141.491 35C139.811 35 138.827 34.544 138.539 33.632C138.395 33.248 138.323 32.636 138.323 31.796V11.78ZM160.277 8.144C160.469 7.784 160.793 7.532 161.249 7.388C161.705 7.244 162.305 7.172 163.049 7.172C163.817 7.172 164.429 7.244 164.885 7.388C165.341 7.532 165.653 7.784 165.821 8.144C166.013 8.504 166.121 8.828 166.145 9.116C166.193 9.38 166.217 9.788 166.217 10.34V31.832C166.217 32.384 166.193 32.804 166.145 33.092C166.121 33.356 166.013 33.656 165.821 33.992C165.461 34.64 164.441 34.964 162.761 34.964C161.105 34.964 160.181 34.376 159.989 33.2C158.981 34.352 157.577 34.928 155.777 34.928C153.617 34.928 151.649 33.992 149.873 32.12C148.097 30.224 147.209 28.028 147.209 25.532C147.209 23.012 148.097 20.804 149.873 18.908C151.673 17.012 153.641 16.064 155.777 16.064C157.553 16.064 158.933 16.664 159.917 17.864V10.304C159.917 9.752 159.929 9.344 159.953 9.08C160.001 8.792 160.109 8.48 160.277 8.144ZM154.445 27.692C155.069 28.34 155.825 28.664 156.713 28.664C157.601 28.664 158.333 28.34 158.909 27.692C159.509 27.044 159.809 26.336 159.809 25.568C159.809 24.776 159.521 24.044 158.945 23.372C158.393 22.7 157.637 22.364 156.677 22.364C155.717 22.364 154.949 22.7 154.373 23.372C153.797 24.02 153.509 24.74 153.509 25.532C153.509 26.324 153.821 27.044 154.445 27.692ZM168.545 25.532C168.545 22.652 169.553 20.276 171.569 18.404C173.585 16.532 175.889 15.596 178.481 15.596C181.073 15.596 183.365 16.532 185.357 18.404C187.349 20.252 188.345 22.616 188.345 25.496C188.345 27.488 187.829 29.264 186.797 30.824C185.765 32.36 184.505 33.5 183.017 34.244C181.553 34.964 180.029 35.324 178.445 35.324C176.861 35.324 175.325 34.94 173.837 34.172C172.349 33.38 171.089 32.228 170.057 30.716C169.049 29.18 168.545 27.452 168.545 25.532ZM176.069 28.124C176.837 28.7 177.617 28.988 178.409 28.988C179.201 28.988 179.993 28.688 180.785 28.088C181.577 27.488 181.973 26.6 181.973 25.424C181.973 24.248 181.601 23.372 180.857 22.796C180.113 22.22 179.309 21.932 178.445 21.932C177.581 21.932 176.777 22.232 176.033 22.832C175.289 23.432 174.917 24.32 174.917 25.496C174.917 26.648 175.301 27.524 176.069 28.124ZM190.67 10.268C190.67 9.716 190.682 9.308 190.706 9.044C190.754 8.756 190.862 8.432 191.03 8.072C191.366 7.424 192.302 7.1 193.838 7.1C195.302 7.1 196.214 7.424 196.574 8.072C196.766 8.432 196.874 8.756 196.898 9.044C196.946 9.332 196.97 9.752 196.97 10.304V26.972C196.97 27.836 197.042 28.388 197.186 28.628C197.33 28.844 197.642 28.952 198.122 28.952C198.626 28.952 198.962 28.976 199.13 29.024C199.298 29.048 199.502 29.144 199.742 29.312C200.222 29.624 200.462 30.476 200.462 31.868C200.462 33.38 200.222 34.304 199.742 34.64C199.118 35.072 197.63 35.144 195.278 34.856C193.43 34.616 192.23 34.004 191.678 33.02C191.006 31.844 190.67 29.972 190.67 27.404V10.268Z" fill="white"/>
<path d="M20.9482 8.864L19.4984 12.592L19.6196 12.6392L19.7437 12.6783L20.9482 8.864ZM21.9202 9.62L25.5287 7.89418L25.4909 7.81504L25.4496 7.73764L21.9202 9.62ZM19.5802 32.48L22.4802 35.235L22.4887 35.226L22.4972 35.217L19.5802 32.48ZM8.38419 34.316L10.3614 30.8388L10.328 30.8198L10.2942 30.8015L8.38419 34.316ZM6.08019 32.696L9.05336 30.0201L8.983 29.942L8.90861 29.8676L6.08019 32.696ZM5.79219 32.408L2.88631 35.1568L2.92448 35.1972L2.96376 35.2364L5.79219 32.408ZM5.79219 27.872L2.92421 25.0837L2.92421 25.0837L5.79219 27.872ZM10.1842 27.764L7.35576 30.5924L7.35576 30.5924L10.1842 27.764ZM15.0442 28.016L17.9275 30.7884L17.9275 30.7884L15.0442 28.016ZM16.6642 9.296L14.1167 6.21215L14.095 6.23005L14.0736 6.24824L16.6642 9.296ZM18.8962 12.612C19.2546 12.612 19.4889 12.6286 19.6236 12.6452C19.6881 12.6531 19.7094 12.6586 19.6959 12.6555C19.6847 12.653 19.6123 12.6363 19.4984 12.592L22.398 5.13598C21.238 4.68488 19.9273 4.612 18.8962 4.612V12.612ZM19.7437 12.6783C19.5923 12.6305 19.3465 12.5277 19.0774 12.3184C18.7987 12.1017 18.5608 11.8211 18.3908 11.5024L25.4496 7.73764C24.6811 6.29662 23.422 5.45051 22.1527 5.04967L19.7437 12.6783ZM18.3117 11.3458C18.2563 11.2301 18.2616 11.1947 18.2787 11.2908C18.2955 11.3853 18.3162 11.5653 18.3162 11.852H26.3162C26.3162 10.6053 26.1507 9.19458 25.5287 7.89418L18.3117 11.3458ZM18.3162 11.852V25.784H26.3162V11.852H18.3162ZM18.3162 25.784C18.3162 27.2243 17.8357 28.4934 16.6632 29.743L22.4972 35.217C24.9727 32.5786 26.3162 29.3837 26.3162 25.784H18.3162ZM16.6802 29.725C15.6679 30.7905 14.4167 31.36 12.5962 31.36V39.36C16.4397 39.36 19.8444 38.0095 22.4802 35.235L16.6802 29.725ZM12.5962 31.36C11.6171 31.36 10.9104 31.151 10.3614 30.8388L6.40698 37.7932C8.30598 38.873 10.4072 39.36 12.5962 39.36V31.36ZM10.2942 30.8015C9.83508 30.552 9.50567 30.3469 9.28089 30.1889C9.04247 30.0212 9.0002 29.9611 9.05336 30.0201L3.10701 35.3719C4.01048 36.3757 5.27442 37.1785 6.47413 37.8305L10.2942 30.8015ZM8.90861 29.8676L8.62061 29.5796L2.96376 35.2364L3.25176 35.5244L8.90861 29.8676ZM8.69806 29.6592C8.5667 29.5203 8.47575 29.4118 8.41574 29.3335C8.35491 29.2541 8.3373 29.2207 8.34382 29.2324C8.34982 29.2432 8.39355 29.3233 8.43763 29.4681C8.48254 29.6157 8.53219 29.8455 8.53219 30.14H0.532188C0.532188 32.4023 1.9298 34.1456 2.88631 35.1568L8.69806 29.6592ZM8.53219 30.14C8.53219 30.6856 8.35753 31.0049 8.34382 31.0296C8.33272 31.0495 8.3444 31.0249 8.39835 30.9555C8.45163 30.887 8.53555 30.7885 8.66017 30.6603L2.92421 25.0837C1.91717 26.1195 0.532188 27.8577 0.532188 30.14H8.53219ZM8.66017 30.6603C8.78241 30.5346 8.87497 30.4517 8.93714 30.4008C9.00019 30.3492 9.01757 30.3424 8.98873 30.3592C8.94428 30.385 8.60017 30.576 8.02419 30.576V22.576C5.67553 22.576 3.93272 24.0464 2.92421 25.0837L8.66017 30.6603ZM8.02419 30.576C7.51695 30.576 7.19803 30.4194 7.12251 30.3779C7.05666 30.3416 7.13699 30.3737 7.35576 30.5924L13.0126 24.9356C11.9789 23.9018 10.2832 22.576 8.02419 22.576V30.576ZM7.35576 30.5924C8.71609 31.9528 10.5352 32.952 12.7402 32.952V24.952C12.8043 24.952 12.8739 24.9592 12.9436 24.9749C13.0129 24.9904 13.067 25.0109 13.1031 25.0277C13.1746 25.0609 13.1395 25.0624 13.0126 24.9356L7.35576 30.5924ZM12.7402 32.952C14.666 32.952 16.5079 32.2648 17.9275 30.7884L12.1609 25.2436C12.232 25.1696 12.354 25.0766 12.5127 25.0121C12.6647 24.9504 12.7584 24.952 12.7402 24.952V32.952ZM17.9275 30.7884C19.3784 29.2795 19.9442 27.386 19.9442 25.532H11.9442C11.9442 25.6615 11.9255 25.6552 11.9584 25.5644C11.9747 25.5194 12.0004 25.4632 12.0381 25.4024C12.0759 25.3414 12.1184 25.2877 12.1609 25.2436L17.9275 30.7884ZM19.9442 25.532V12.068H11.9442V25.532H19.9442ZM19.9442 12.068C19.9442 11.8158 19.9549 11.6255 19.9687 11.4888C19.9829 11.3494 19.9976 11.2933 19.9957 11.3006C19.9947 11.3045 19.965 11.4214 19.868 11.6008C19.7686 11.7847 19.5803 12.0671 19.2548 12.3438L14.0736 6.24824C12.9596 7.19516 12.4793 8.41677 12.2527 9.28941C12.0159 10.2008 11.9442 11.162 11.9442 12.068H19.9442ZM19.2117 12.3798C19.0483 12.5148 18.895 12.5809 18.8082 12.6074C18.7326 12.6306 18.7476 12.612 18.8962 12.612V4.612C17.3195 4.612 15.5807 5.00275 14.1167 6.21215L19.2117 12.3798ZM27.674 18.404L30.3958 21.3352L30.3958 21.3352L27.674 18.404ZM41.462 18.404L38.7227 21.3189L38.7321 21.3277L38.7416 21.3364L41.462 18.404ZM42.902 30.824L46.2222 33.0548L46.2302 33.0429L46.2381 33.0309L42.902 30.824ZM39.122 34.244L40.8873 37.8334L40.8991 37.8276L40.9109 37.8217L39.122 34.244ZM29.942 34.172L28.0626 37.703L28.0849 37.7149L28.1074 37.7265L29.942 34.172ZM26.162 30.716L22.8178 32.9106L22.8377 32.941L22.8582 32.971L26.162 30.716ZM32.174 28.124L29.7114 31.2761L29.7425 31.3004L29.774 31.324L32.174 28.124ZM36.89 28.088L34.4746 24.8996L34.4746 24.8996L36.89 28.088ZM36.962 22.796L34.5133 25.9589L34.5133 25.9589L36.962 22.796ZM32.138 22.832L29.627 19.7183L29.627 19.7183L32.138 22.832ZM28.65 25.532C28.65 23.7055 29.2369 22.4113 30.3958 21.3352L24.9522 15.4728C22.0791 18.1407 20.65 21.5985 20.65 25.532H28.65ZM30.3958 21.3352C31.7218 20.1039 33.0696 19.596 34.586 19.596V11.596C30.9184 11.596 27.6582 12.9601 24.9522 15.4728L30.3958 21.3352ZM34.586 19.596C36.1005 19.596 37.4279 20.102 38.7227 21.3189L44.2013 15.4891C41.5121 12.962 38.2555 11.596 34.586 11.596V19.596ZM38.7416 21.3364C39.8643 22.378 40.45 23.654 40.45 25.496H48.45C48.45 21.578 47.0437 18.126 44.1824 15.4716L38.7416 21.3364ZM40.45 25.496C40.45 26.7567 40.1363 27.7549 39.5659 28.6171L46.2381 33.0309C47.7317 30.7731 48.45 28.2193 48.45 25.496H40.45ZM39.5818 28.5932C38.891 29.6214 38.1356 30.2651 37.3331 30.6663L40.9109 37.8217C43.0844 36.7349 44.849 35.0986 46.2222 33.0548L39.5818 28.5932ZM37.3567 30.6546C36.425 31.1128 35.5032 31.324 34.55 31.324V39.324C36.7648 39.324 38.891 38.8152 40.8873 37.8334L37.3567 30.6546ZM34.55 31.324C33.6408 31.324 32.7307 31.11 31.7766 30.6175L28.1074 37.7265C30.1293 38.77 32.2912 39.324 34.55 39.324V31.324ZM31.8214 30.641C30.9526 30.1786 30.1652 29.4858 29.4658 28.461L22.8582 32.971C24.2228 34.9702 25.9554 36.5814 28.0626 37.703L31.8214 30.641ZM29.5062 28.5214C28.9459 27.6677 28.65 26.7092 28.65 25.532H20.65C20.65 28.1948 21.3621 30.6923 22.8178 32.9106L29.5062 28.5214ZM29.774 31.324C31.0838 32.3064 32.6855 32.988 34.514 32.988V24.988C34.5599 24.988 34.6039 24.9923 34.6431 24.9995C34.6819 25.0066 34.7083 25.0151 34.7205 25.0196C34.7446 25.0285 34.6951 25.0148 34.574 24.924L29.774 31.324ZM34.514 32.988C36.3794 32.988 37.9979 32.2669 39.3054 31.2764L34.4746 24.8996C34.332 25.0076 34.268 25.0288 34.2851 25.0224C34.2943 25.0189 34.3211 25.0097 34.3637 25.0016C34.4067 24.9935 34.4578 24.988 34.514 24.988V32.988ZM39.3054 31.2764C41.2854 29.7764 42.078 27.5932 42.078 25.424H34.078C34.078 25.5659 34.0545 25.5073 34.1278 25.3429C34.1641 25.2614 34.216 25.1732 34.2838 25.0883C34.3513 25.0037 34.4195 24.9414 34.4746 24.8996L39.3054 31.2764ZM42.078 25.424C42.078 23.3515 41.3745 21.1535 39.4107 19.6331L34.5133 25.9589C34.4358 25.8989 34.3539 25.8195 34.2788 25.7218C34.2039 25.6244 34.1514 25.529 34.1172 25.4485C34.05 25.2902 34.078 25.2503 34.078 25.424H42.078ZM39.4107 19.6331C38.0321 18.5658 36.3808 17.932 34.55 17.932V25.932C34.5427 25.932 34.5271 25.9313 34.5062 25.9277C34.4852 25.9241 34.4664 25.9188 34.4521 25.9137C34.4381 25.9087 34.4349 25.9061 34.4433 25.9108C34.4521 25.9157 34.4756 25.9297 34.5133 25.9589L39.4107 19.6331ZM34.55 17.932C32.6742 17.932 31.0019 18.6096 29.627 19.7183L34.649 25.9457C34.6877 25.9145 34.7109 25.9003 34.7177 25.8963C34.7242 25.8925 34.7172 25.8972 34.6974 25.9046C34.6772 25.9121 34.6511 25.9197 34.6213 25.9251C34.5916 25.9304 34.5668 25.932 34.55 25.932V17.932ZM29.627 19.7183C27.7261 21.2513 27.022 23.4171 27.022 25.496H35.022C35.022 25.3243 35.0494 25.3526 34.9904 25.4935C34.9605 25.5647 34.9148 25.6493 34.8498 25.736C34.7846 25.8228 34.7142 25.8931 34.649 25.9457L29.627 19.7183ZM27.022 25.496C27.022 27.628 27.7909 29.7757 29.7114 31.2761L34.6366 24.9719C34.6916 25.0149 34.758 25.0776 34.8233 25.1612C34.8887 25.245 34.9386 25.3316 34.9735 25.4111C35.044 25.5719 35.022 25.63 35.022 25.496H27.022ZM57.9359 25.496L55.348 22.446L51.7071 25.5352L55.3866 28.5784L57.9359 25.496ZM62.7239 29.456L65.2967 26.3932L65.285 26.3834L65.2733 26.3736L62.7239 29.456ZM63.8399 30.608L60.3284 32.5234L60.3929 32.6418L60.4653 32.7555L63.8399 30.608ZM62.9759 33.704L66.0849 36.2208L66.1266 36.1693L66.1666 36.1164L62.9759 33.704ZM58.6199 34.172L61.0067 30.9622L60.9607 30.9279L60.9138 30.8951L58.6199 34.172ZM58.2599 33.92L55.7124 37.0038L55.8354 37.1054L55.9661 37.1969L58.2599 33.92ZM55.7039 31.544L52.8755 34.3724L52.8904 34.3873L52.9054 34.402L55.7039 31.544ZM53.0759 29.096L55.5747 25.9725L49.0759 20.7735V29.096H53.0759ZM53.0039 33.128L49.0584 32.4704L49.0339 32.6174L49.0204 32.7659L53.0039 33.128ZM52.6799 34.064L49.1505 32.1816L49.1258 32.2281L49.1022 32.2751L52.6799 34.064ZM47.1359 34.028L43.5112 35.7195L43.5465 35.7952L43.5849 35.8693L47.1359 34.028ZM46.8119 33.092L42.8258 33.4242L42.8418 33.6171L42.8765 33.8075L46.8119 33.092ZM46.8119 9.044L42.8664 8.3864L42.8419 8.53342L42.8284 8.68186L46.8119 9.044ZM47.1359 8.072L43.5849 6.23073L43.5465 6.30482L43.5112 6.38046L47.1359 8.072ZM52.3919 7.712L49.8013 10.7598L49.8251 10.7799L49.8491 10.7997L52.3919 7.712ZM53.0399 9.296L49.0422 9.42926L49.0473 9.58392L49.0644 9.73772L53.0399 9.296ZM53.0759 21.716H49.0759V30.2562L55.6367 24.7889L53.0759 21.716ZM55.0199 19.88L52.2305 17.0131L52.2109 17.0322L52.1915 17.0516L55.0199 19.88ZM56.9999 18.044L54.7811 14.7158L54.6033 14.8343L54.4392 14.9711L56.9999 18.044ZM57.4319 17.756L59.6507 21.0842L59.7657 21.0075L59.8752 20.9231L57.4319 17.756ZM61.6439 18.26L58.4907 20.7211L58.524 20.7638L58.5584 20.8055L61.6439 18.26ZM61.4999 22.472L58.9311 19.4059L58.9215 19.4139L58.912 19.422L61.4999 22.472ZM55.3866 28.5784L60.1746 32.5384L65.2733 26.3736L60.4853 22.4136L55.3866 28.5784ZM60.1512 32.5188C60.2664 32.6156 60.3595 32.6973 60.4332 32.7647C60.5078 32.8328 60.5547 32.8791 60.58 32.9052C60.6073 32.9334 60.5954 32.9236 60.5601 32.8792C60.5413 32.8557 60.5108 32.8159 60.4732 32.7609C60.4361 32.7067 60.3848 32.6269 60.3284 32.5234L67.3515 28.6926C66.7997 27.6809 65.8533 26.8607 65.2967 26.3932L60.1512 32.5188ZM60.4653 32.7555C60.3469 32.5694 60.0919 32.0839 60.0919 31.364H68.0919C68.0919 30.1641 67.669 29.1746 67.2146 28.4605L60.4653 32.7555ZM60.0919 31.364C60.0919 31.0821 60.1366 30.8784 60.1647 30.776C60.1931 30.6727 60.2159 30.6312 60.2025 30.6591C60.1902 30.685 60.1552 30.7529 60.0839 30.8657C60.0133 30.9773 59.916 31.1188 59.7853 31.2916L66.1666 36.1164C66.6386 35.4922 67.0835 34.8155 67.4234 34.1029C67.7487 33.4206 68.0919 32.4704 68.0919 31.364H60.0919ZM59.867 31.1872C59.5935 31.525 59.4765 31.5986 59.5301 31.5611C59.5771 31.5281 60.034 31.216 60.8159 31.216V39.216C62.2218 39.216 63.3507 38.6519 64.1178 38.1149C64.8914 37.5734 65.5424 36.891 66.0849 36.2208L59.867 31.1872ZM60.8159 31.216C61.1172 31.216 61.3359 31.2645 61.4466 31.2951C61.559 31.3261 61.609 31.3523 61.5884 31.3425C61.5701 31.3338 61.5104 31.3035 61.4059 31.2381C61.3027 31.1736 61.1702 31.0837 61.0067 30.9622L56.2331 37.3818C56.8278 37.824 57.474 38.2445 58.1535 38.5675C58.7965 38.8732 59.7252 39.216 60.8159 39.216V31.216ZM60.9138 30.8951L60.5538 30.6431L55.9661 37.1969L56.3261 37.4489L60.9138 30.8951ZM60.8075 30.8362C60.3963 30.4965 59.6479 29.8076 58.5024 28.686L52.9054 34.402C54.0639 35.5364 55.0196 36.4315 55.7124 37.0038L60.8075 30.8362ZM58.5324 28.7156C57.3646 27.5478 56.358 26.5991 55.5747 25.9725L50.5772 32.2195C50.9939 32.5529 51.7393 33.2362 52.8755 34.3724L58.5324 28.7156ZM49.0759 29.096V31.868H57.0759V29.096H49.0759ZM49.0759 31.868C49.0759 32.0898 49.071 32.2539 49.0645 32.3688C49.0574 32.4917 49.0509 32.5154 49.0584 32.4704L56.9495 33.7856C57.0527 33.1664 57.0759 32.4829 57.0759 31.868H49.0759ZM49.0204 32.7659C49.0438 32.5079 49.0978 32.3302 49.125 32.2516C49.1531 32.1704 49.1701 32.145 49.1505 32.1816L56.2093 35.9464C56.5312 35.343 56.8962 34.494 56.9875 33.4901L49.0204 32.7659ZM49.1022 32.2751C49.5796 31.3204 50.3388 31.0216 50.4733 30.9762C50.5903 30.9367 50.461 31 49.9079 31V39C50.8909 39 51.9916 38.9073 53.0326 38.5558C54.091 38.1984 55.4683 37.4316 56.2576 35.8529L49.1022 32.2751ZM49.9079 31C49.3848 31 49.2753 30.937 49.4045 30.9823C49.5688 31.0399 50.2445 31.3334 50.687 32.1867L43.5849 35.8693C44.3634 37.3706 45.6691 38.1501 46.7574 38.5317C47.8106 38.901 48.9191 39 49.9079 39V31ZM50.7607 32.3365C50.7427 32.298 50.7299 32.2684 50.7213 32.2473C50.717 32.2369 50.7139 32.229 50.7118 32.2236C50.7098 32.2182 50.7089 32.2155 50.7089 32.2156C50.7089 32.2156 50.71 32.2187 50.7119 32.2249C50.7138 32.231 50.7166 32.2405 50.7201 32.2533C50.7269 32.2784 50.7371 32.3199 50.7474 32.3765L42.8765 33.8075C43.0075 34.5283 43.2606 35.1825 43.5112 35.7195L50.7607 32.3365ZM50.7981 32.7598C50.7882 32.6407 50.7759 32.3534 50.7759 31.832H42.7759C42.7759 32.4146 42.7877 32.9673 42.8258 33.4242L50.7981 32.7598ZM50.7759 31.832V10.268H42.7759V31.832H50.7759ZM50.7759 10.268C50.7759 9.73695 50.7888 9.47993 50.7955 9.40614L42.8284 8.68186C42.7871 9.13607 42.7759 9.69505 42.7759 10.268H50.7759ZM50.7575 9.70159C50.7496 9.74921 50.7413 9.78538 50.7352 9.80926C50.7292 9.83318 50.7247 9.84692 50.7237 9.84991C50.7222 9.85442 50.7313 9.8265 50.7607 9.76354L43.5112 6.38046C43.241 6.95944 42.991 7.6385 42.8664 8.3864L50.7575 9.70159ZM50.687 9.91327C50.236 10.783 49.5466 11.0716 49.3984 11.1229C49.2801 11.1639 49.4039 11.1 49.9439 11.1V3.1C48.948 3.1 47.8358 3.1981 46.7815 3.56305C45.6973 3.93836 44.3719 4.71296 43.5849 6.23073L50.687 9.91327ZM49.9439 11.1C50.116 11.1 50.2436 11.1077 50.3325 11.1169C50.4223 11.1262 50.4577 11.1356 50.4498 11.1336C50.4423 11.1317 50.3722 11.1138 50.2609 11.0612C50.1478 11.0078 49.983 10.9142 49.8013 10.7598L54.9825 4.66424C53.3835 3.30506 51.3479 3.1 49.9439 3.1V11.1ZM49.8491 10.7997C49.5025 10.5143 49.2798 10.1729 49.1578 9.87453C49.101 9.73571 49.0723 9.62232 49.0579 9.54739C49.0436 9.47312 49.0422 9.43101 49.0422 9.42926L57.0377 9.16274C56.99 7.73063 56.5182 5.92828 54.9348 4.62428L49.8491 10.7997ZM49.0644 9.73772C49.0611 9.70825 49.0654 9.73709 49.0695 9.85276C49.0733 9.95989 49.0759 10.1081 49.0759 10.304H57.0759C57.0759 9.82384 57.0653 9.30269 57.0155 8.85428L49.0644 9.73772ZM49.0759 10.304V21.716H57.0759V10.304H49.0759ZM55.6367 24.7889C56.2176 24.3048 56.9739 23.5829 57.8484 22.7084L52.1915 17.0516C51.338 17.9051 50.7983 18.4072 50.5152 18.6431L55.6367 24.7889ZM57.8094 22.7469C58.6895 21.8905 59.2557 21.3711 59.5607 21.1169L54.4392 14.9711C53.8802 15.4369 53.1264 16.1415 52.2305 17.0131L57.8094 22.7469ZM59.2187 21.3722L59.6507 21.0842L55.2131 14.4278L54.7811 14.7158L59.2187 21.3722ZM59.8752 20.9231C59.9954 20.8304 60.0884 20.767 60.1547 20.7257C60.2216 20.684 60.2507 20.6714 60.2434 20.6747C60.2364 20.6778 60.1782 20.7036 60.073 20.7294C59.9664 20.7556 59.8024 20.784 59.5919 20.784V12.784C57.6507 12.784 56.0504 13.7699 54.9887 14.5889L59.8752 20.9231ZM59.5919 20.784C58.776 20.784 58.2908 20.4517 58.2192 20.4002C58.143 20.3454 58.2395 20.3992 58.4907 20.7211L64.7972 15.7989C64.2804 15.1368 63.6508 14.4526 62.8907 13.9058C62.135 13.3623 61.0079 12.784 59.5919 12.784V20.784ZM58.5584 20.8055C58.6981 20.9748 58.8011 21.112 58.8749 21.2186C58.9497 21.3267 58.9833 21.3871 58.9916 21.403C59.0013 21.4216 58.968 21.3628 58.9293 21.2348C58.8909 21.108 58.8319 20.863 58.8319 20.528H66.8319C66.8319 19.3471 66.4275 18.3578 66.0783 17.691C65.7082 16.9844 65.2292 16.3202 64.7294 15.7145L58.5584 20.8055ZM58.8319 20.528C58.8319 19.7218 59.1503 19.2384 59.1992 19.1671C59.2554 19.085 59.2149 19.1681 58.9311 19.4059L64.0688 25.5381C64.673 25.0319 65.2985 24.419 65.7987 23.6889C66.2916 22.9696 66.8319 21.8862 66.8319 20.528H58.8319ZM58.912 19.422L55.348 22.446L60.5238 28.546L64.0878 25.522L58.912 19.422ZM82.1589 26.54L84.939 29.416L84.9406 29.4144L82.1589 26.54ZM71.2149 27.584V23.584H67.2149V27.584H71.2149ZM72.4029 29.276L74.3987 25.8095L74.3987 25.8095L72.4029 29.276ZM78.0549 29.528L76.6879 25.7688L76.6879 25.7688L78.0549 29.528ZM78.4509 29.384L79.8178 33.1432L79.9702 33.0878L80.1175 33.0203L78.4509 29.384ZM81.8709 30.608L85.4749 28.8727L85.4543 28.8299L85.4326 28.7876L81.8709 30.608ZM69.9189 34.568L68.2589 38.2073L68.297 38.2247L68.3356 38.2413L69.9189 34.568ZM66.7149 32.12L69.8966 29.6958L69.8845 29.68L69.8723 29.6642L66.7149 32.12ZM67.3629 18.368L70.0805 21.303L70.0819 21.3017L67.3629 18.368ZM82.0509 19.16L85.3988 16.971L85.3916 16.96L85.3843 16.9491L82.0509 19.16ZM76.3989 21.824L73.856 24.9117L73.8991 24.9472L73.9431 24.9814L76.3989 21.824ZM72.2949 22.292L74.8172 25.3965L74.846 25.3731L74.8744 25.3492L72.2949 22.292ZM71.1429 24.308H67.1429V28.308H71.1429V24.308ZM79.2749 23.264C79.2749 23.6697 79.2219 23.855 79.2095 23.8912C79.2048 23.905 79.2117 23.8806 79.2413 23.8326C79.2718 23.7831 79.317 23.7239 79.3772 23.6656L84.9406 29.4144C86.7392 27.6738 87.2749 25.3557 87.2749 23.264H79.2749ZM79.3788 23.664C79.3159 23.7249 79.3289 23.6946 79.427 23.6521C79.4742 23.6317 79.5302 23.6133 79.5913 23.6008C79.6523 23.5882 79.7058 23.584 79.7469 23.584V31.584C81.8077 31.584 83.5764 30.7331 84.939 29.416L79.3788 23.664ZM79.7469 23.584H71.2149V31.584H79.7469V23.584ZM67.2149 27.584C67.2149 30.1867 68.8798 31.8632 70.407 32.7425L74.3987 25.8095C74.3515 25.7823 74.5573 25.8874 74.7855 26.2125C75.0474 26.5854 75.2149 27.0752 75.2149 27.584H67.2149ZM70.407 32.7425C71.7115 33.4935 73.1847 33.96 74.7789 33.96V25.96C74.7722 25.96 74.7484 25.9598 74.6975 25.9451C74.6436 25.9296 74.5446 25.8935 74.3987 25.8095L70.407 32.7425ZM74.7789 33.96C76.374 33.96 77.9986 33.8047 79.4218 33.2872L76.6879 25.7688C76.5272 25.8273 75.9677 25.96 74.7789 25.96V33.96ZM79.4218 33.2872L79.8178 33.1432L77.0839 25.6248L76.6879 25.7688L79.4218 33.2872ZM80.1175 33.0203C80.2598 32.955 80.3182 32.9398 80.3035 32.9438C80.2936 32.9466 80.2543 32.9569 80.189 32.9669C80.1238 32.9768 80.0225 32.988 79.8909 32.988V24.988C78.6756 24.988 77.5854 25.3806 76.7843 25.7477L80.1175 33.0203ZM79.8909 32.988C79.6025 32.988 79.3082 32.9352 79.0318 32.8307C78.7606 32.7281 78.5603 32.5963 78.4289 32.4888C78.1913 32.2944 78.1861 32.1877 78.3091 32.4284L85.4326 28.7876C84.6276 27.2126 82.9174 24.988 79.8909 24.988V32.988ZM78.2669 32.3433C78.3054 32.4234 78.3318 32.4851 78.349 32.5294C78.3575 32.5512 78.3634 32.5678 78.3673 32.5792C78.3712 32.5906 78.3727 32.596 78.3726 32.5958C78.3726 32.5956 78.3707 32.5889 78.3678 32.5759C78.3649 32.5629 78.3609 32.5427 78.3567 32.5158C78.3485 32.4627 78.3389 32.3772 78.3389 32.264H86.3389C86.3389 30.9592 85.9128 29.7823 85.4749 28.8727L78.2669 32.3433ZM78.3389 32.264C78.3389 31.933 78.4617 31.511 78.7327 31.1713C78.9542 30.8937 79.1074 30.8811 78.8797 30.9762C78.3444 31.1999 77.0689 31.468 74.6709 31.468V39.468C77.3848 39.468 79.9433 39.2021 81.964 38.3578C83.0144 37.9189 84.1261 37.2388 84.9865 36.1602C85.8966 35.0195 86.3389 33.663 86.3389 32.264H78.3389ZM74.6709 31.468C73.3471 31.468 72.3158 31.2454 71.5022 30.8947L68.3356 38.2413C70.3059 39.0906 72.4427 39.468 74.6709 39.468V31.468ZM71.5789 30.9287C70.6988 30.5273 70.1969 30.09 69.8966 29.6958L63.5331 34.5442C64.7688 36.166 66.4029 37.3607 68.2589 38.2073L71.5789 30.9287ZM69.8723 29.6642C68.891 28.4025 68.4469 27.0897 68.4469 25.604H60.4469C60.4469 28.9183 61.5148 31.9495 63.5575 34.5758L69.8723 29.6642ZM68.4469 25.604C68.4469 23.5209 69.0732 22.2357 70.0805 21.303L64.6452 15.433C61.7646 18.1003 60.4469 21.6391 60.4469 25.604H68.4469ZM70.0819 21.3017C71.2401 20.2283 72.6871 19.632 74.7069 19.632V11.632C70.8706 11.632 67.4217 12.8597 64.6438 15.4343L70.0819 21.3017ZM74.7069 19.632C76.9841 19.632 78.0419 20.3525 78.7174 21.3709L85.3843 16.9491C82.9398 13.2635 79.1016 11.632 74.7069 11.632V19.632ZM78.703 21.349C79.0944 21.9477 79.2749 22.5553 79.2749 23.264H87.2749C87.2749 20.9967 86.6393 18.8683 85.3988 16.971L78.703 21.349ZM75.6789 28.308C76.5998 28.308 78.0359 28.1285 79.2814 27.0796C80.6586 25.9199 81.0469 24.3541 81.0469 23.156H73.0469C73.0469 22.7259 73.2071 21.7361 74.1283 20.9604C74.9179 20.2955 75.67 20.308 75.6789 20.308V28.308ZM81.0469 23.156C81.0469 21.3821 80.2708 19.768 78.8546 18.6666L73.9431 24.9814C73.7291 24.8149 73.4756 24.5445 73.2879 24.1589C73.1008 23.7743 73.0469 23.4141 73.0469 23.156H81.0469ZM78.9417 18.7363C77.5364 17.579 75.8738 17.32 74.5989 17.32V25.32C74.7238 25.32 74.6954 25.3345 74.5644 25.2979C74.423 25.2583 74.1516 25.1551 73.856 24.9117L78.9417 18.7363ZM74.5989 17.32C72.6282 17.32 70.9792 18.1685 69.7154 19.2348L74.8744 25.3492C75.0115 25.2335 75.056 25.2255 75.0017 25.2485C74.9729 25.2606 74.9212 25.2793 74.8485 25.2946C74.775 25.3101 74.6904 25.32 74.5989 25.32V17.32ZM69.7725 19.1875C68.4397 20.2704 67.1429 21.9763 67.1429 24.308H75.1429C75.1429 24.6961 75.0305 25.027 74.9038 25.2486C74.7931 25.4423 74.7145 25.4799 74.8172 25.3965L69.7725 19.1875ZM71.1429 28.308H75.6789V20.308H71.1429V28.308ZM85.7676 33.308L83.6316 36.69L83.6373 36.6936L85.7676 33.308ZM86.4516 29.096L89.7024 31.4268L89.758 31.3492L89.8099 31.269L86.4516 29.096ZM90.1236 29.384L88.0777 32.8212L88.1082 32.8393L88.139 32.857L90.1236 29.384ZM92.6436 28.376L92.0779 32.3358L92.0945 32.3382L92.1111 32.3404L92.6436 28.376ZM88.1436 26.684L86.0341 30.0826L86.0437 30.0885L86.0533 30.0944L88.1436 26.684ZM86.4156 24.668L82.8196 26.4199L82.8287 26.4384L82.8379 26.4569L86.4156 24.668ZM98.7996 16.892L100.463 13.2541L100.451 13.2489L98.7996 16.892ZM99.2676 20.456L102.654 22.5847L102.654 22.5847L99.2676 20.456ZM96.0276 21.176L94.3299 24.7978L94.3511 24.8078L94.3724 24.8175L96.0276 21.176ZM93.8316 22.832L93.3068 26.7974L93.3582 26.8042L93.4097 26.8097L93.8316 22.832ZM98.4396 24.2L96.6507 27.7777L96.6756 27.7901L96.7006 27.8022L98.4396 24.2ZM100.168 25.964L96.6522 27.8724L96.685 27.9328L96.7199 27.9921L100.168 25.964ZM100.168 32.264L96.6488 30.3619L96.6393 30.3794L96.6301 30.397L100.168 32.264ZM98.2236 34.208L99.9673 37.8079L100.01 37.7871L100.053 37.7652L98.2236 34.208ZM87.9036 29.926C88.2552 30.1481 88.6009 30.4983 88.8323 30.9611C89.0513 31.3992 89.0836 31.7678 89.0836 31.94H81.0836C81.0836 33.6835 81.8164 35.5435 83.6316 36.69L87.9036 29.926ZM89.0836 31.94C89.0836 32.2573 89.0281 32.4657 89.0107 32.5256C88.9915 32.5919 88.9867 32.5855 89.0303 32.4949C89.1221 32.304 89.3229 31.956 89.7024 31.4268L83.2008 26.7652C82.6683 27.508 82.1851 28.27 81.8209 29.0271C81.4881 29.719 81.0836 30.7503 81.0836 31.94H89.0836ZM89.8099 31.269C89.5621 31.652 89.1866 32.0046 88.7122 32.235C88.2654 32.4521 87.8906 32.484 87.7116 32.484V24.484C86.0704 24.484 84.24 25.1509 83.0933 26.923L89.8099 31.269ZM87.7116 32.484C87.5323 32.484 87.4115 32.4621 87.364 32.4519C87.3156 32.4416 87.3143 32.4372 87.3662 32.4566C87.4788 32.4986 87.7105 32.6026 88.0777 32.8212L92.1695 25.9468C91.0315 25.2694 89.4427 24.484 87.7116 24.484V32.484ZM88.139 32.857C89.5103 33.6406 91.1143 34.248 92.8596 34.248V26.248C92.9235 26.248 92.8998 26.2592 92.7681 26.2177C92.6339 26.1753 92.4155 26.0867 92.1081 25.911L88.139 32.857ZM92.8596 34.248C93.737 34.248 94.8941 34.178 95.9711 33.7543C96.5423 33.5295 97.3179 33.1178 97.9703 32.3477C98.6854 31.5036 99.0556 30.457 99.0556 29.384H91.0556C91.0556 28.599 91.3343 27.8044 91.8664 27.1763C92.3358 26.6222 92.8369 26.3905 93.0421 26.3097C93.3871 26.174 93.4462 26.248 92.8596 26.248V34.248ZM99.0556 29.384C99.0556 27.9557 98.3831 26.876 97.7119 26.2149C97.1046 25.6166 96.4381 25.2845 95.995 25.0993C95.1024 24.7263 94.0838 24.5335 93.1761 24.4116L92.1111 32.3404C92.8114 32.4345 92.9988 32.5177 92.9102 32.4807C92.8691 32.4635 92.5041 32.3144 92.0978 31.9141C91.6276 31.451 91.0556 30.5843 91.0556 29.384H99.0556ZM93.2093 24.4162C92.3094 24.2876 91.3225 23.9409 90.2338 23.2736L86.0533 30.0944C87.9406 31.2511 89.9538 32.0324 92.0779 32.3358L93.2093 24.4162ZM90.253 23.2854C90.3233 23.3291 90.1989 23.2903 89.9933 22.8791L82.8379 26.4569C83.5443 27.8697 84.5719 29.1749 86.0341 30.0826L90.253 23.2854ZM90.0116 22.9161C89.8738 22.6334 89.7316 22.1532 89.7316 21.356H81.7316C81.7316 23.1028 82.0454 24.8306 82.8196 26.4199L90.0116 22.9161ZM89.7316 21.356C89.7316 20.863 89.8158 20.6222 89.8568 20.5325C89.8878 20.4649 89.9258 20.4061 90.0391 20.3237C90.351 20.0965 91.3062 19.668 93.5436 19.668V11.668C90.573 11.668 87.6222 12.1875 85.3301 13.8563C82.8021 15.697 81.7316 18.4388 81.7316 21.356H89.7316ZM93.5436 19.668C94.5939 19.668 95.7845 19.917 97.148 20.5351L100.451 13.2489C98.2147 12.235 95.9012 11.668 93.5436 11.668V19.668ZM97.1366 20.5299C97.2542 20.5837 97.0255 20.5068 96.7343 20.174C96.3799 19.769 96.0596 19.1191 96.0596 18.332H104.06C104.06 15.3645 101.779 13.8561 100.463 13.2541L97.1366 20.5299ZM96.0596 18.332C96.0596 18.1713 96.0779 18.0522 96.0921 17.9832C96.1062 17.9146 96.1184 17.8847 96.1137 17.8975C96.109 17.9099 96.0919 17.9531 96.0531 18.0288C96.0146 18.1042 95.959 18.2034 95.881 18.3273L102.654 22.5847C103.328 21.5128 104.06 20.0283 104.06 18.332H96.0596ZM95.881 18.3273C95.7633 18.5147 95.7875 18.4173 96.0108 18.2436C96.2712 18.0411 96.8385 17.716 97.6476 17.716V25.716C100.389 25.716 101.97 23.6729 102.654 22.5847L95.881 18.3273ZM97.6476 17.716C97.8149 17.716 97.9481 17.7287 98.0364 17.74C98.1267 17.7516 98.1942 17.7649 98.2341 17.7735C98.2749 17.7824 98.2999 17.7893 98.3066 17.7912C98.3137 17.7933 98.3092 17.7922 98.2915 17.7863C98.2543 17.7739 98.1846 17.7488 98.0772 17.7053C97.9712 17.6623 97.8405 17.6062 97.6828 17.5345L94.3724 24.8175C94.8368 25.0286 95.3092 25.2249 95.7617 25.3757C96.1224 25.496 96.8335 25.716 97.6476 25.716V17.716ZM97.7253 17.5542C96.3868 16.9267 94.9615 16.636 93.5076 16.636V24.636C93.8777 24.636 94.1324 24.7053 94.3299 24.7978L97.7253 17.5542ZM93.5076 16.636C92.6644 16.636 91.554 16.6994 90.5171 17.0861C89.9728 17.289 89.1992 17.6718 88.5342 18.4156C87.7945 19.243 87.3836 20.306 87.3836 21.428H95.3836C95.3836 22.286 95.0611 23.118 94.4985 23.7474C94.0105 24.2932 93.5023 24.511 93.3121 24.5819C92.9832 24.7046 92.9348 24.636 93.5076 24.636V16.636ZM87.3836 21.428C87.3836 23.6628 88.7919 25.0928 90.0055 25.7888C91.0836 26.4071 92.3034 26.6646 93.3068 26.7974L94.3564 18.8666C93.7278 18.7834 93.7235 18.6989 93.9856 18.8492C94.1495 18.9432 94.5087 19.1828 94.8337 19.656C95.1891 20.1734 95.3836 20.7987 95.3836 21.428H87.3836ZM93.4097 26.8097C94.4968 26.925 95.5715 27.2381 96.6507 27.7777L100.228 20.6223C98.3316 19.6739 96.3343 19.075 94.2535 18.8543L93.4097 26.8097ZM96.7006 27.8022C96.6565 27.7809 96.6186 27.7576 96.5882 27.7355C96.5582 27.7137 96.5412 27.6973 96.5362 27.6921C96.5268 27.6825 96.5734 27.7272 96.6522 27.8724L103.683 24.0556C102.923 22.6556 101.793 21.377 100.179 20.5978L96.7006 27.8022ZM96.7199 27.9921C96.7408 28.0276 96.8876 28.3045 96.8876 29.06H104.888C104.888 27.3195 104.554 25.5324 103.615 23.9359L96.7199 27.9921ZM96.8876 29.06C96.8876 29.7987 96.7467 30.1807 96.6488 30.3619L103.686 34.1661C104.548 32.5713 104.888 30.8173 104.888 29.06H96.8876ZM96.6301 30.397C96.5428 30.5623 96.4789 30.6073 96.3942 30.6508L100.053 37.7652C101.648 36.9447 102.88 35.6937 103.705 34.131L96.6301 30.397ZM96.4799 30.6081C95.648 31.011 94.3597 31.324 92.4276 31.324V39.324C95.1515 39.324 97.7272 38.893 99.9673 37.8079L96.4799 30.6081ZM92.4276 31.324C90.9486 31.324 89.4589 30.9047 87.8978 29.9224L83.6373 36.6936C86.3483 38.3993 89.2986 39.324 92.4276 39.324V31.324ZM120.265 9.728L116.768 7.78543L116.749 7.82074L116.73 7.85644L120.265 9.728ZM121.309 8.864L122.513 12.6783L122.513 12.6783L121.309 8.864ZM124.657 8.828L123.528 12.6655L123.557 12.674L123.586 12.6821L124.657 8.828ZM125.593 9.26L122.959 12.2703L123.046 12.3464L123.137 12.4174L125.593 9.26ZM126.061 10.016L122.215 11.1149L122.259 11.2697L122.316 11.4205L126.061 10.016ZM126.205 33.092L122.269 32.3765L122.237 32.5521L122.221 32.7299L126.205 33.092ZM125.881 34.028L122.351 32.1456L122.341 32.1661L122.33 32.1867L125.881 34.028ZM121.129 34.784L119.643 38.4979L119.643 38.4979L121.129 34.784ZM120.229 34.1L117.029 36.5L117.044 36.5195L117.058 36.5388L120.229 34.1ZM109.573 19.988L112.74 17.5442L105.573 8.2578V19.988H109.573ZM109.501 33.092L105.565 32.3765L105.533 32.5521L105.517 32.7299L109.501 33.092ZM109.177 34.028L105.647 32.1456L105.637 32.1661L105.626 32.1867L109.177 34.028ZM103.633 34.028L107.184 32.1867L107.173 32.1661L107.162 32.1456L103.633 34.028ZM103.273 33.056L99.2867 33.3882L99.3003 33.5517L99.3273 33.7136L103.273 33.056ZM103.561 9.728L100.064 7.78543L100.045 7.82074L100.026 7.85644L103.561 9.728ZM104.605 8.864L105.809 12.6783L105.809 12.6783L104.605 8.864ZM108.061 8.864L106.73 12.636L106.859 12.6815L106.99 12.7181L108.061 8.864ZM108.961 9.296L106.132 12.1244L106.333 12.3254L106.561 12.496L108.961 9.296ZM109.789 10.232L113.012 7.86265L112.945 7.7716L112.873 7.68447L109.789 10.232ZM119.941 23.876L116.774 26.3198L123.941 35.6062V23.876H119.941ZM123.762 11.6706C123.662 11.8488 123.5 12.0675 123.256 12.2696C123.01 12.4733 122.748 12.6043 122.513 12.6783L120.104 5.04967C118.638 5.51286 117.487 6.49256 116.768 7.78543L123.762 11.6706ZM122.513 12.6783C122.476 12.6902 122.492 12.681 122.58 12.6698C122.667 12.6587 122.805 12.648 123.001 12.648V4.648C122.072 4.648 121.072 4.74398 120.104 5.04967L122.513 12.6783ZM123.001 12.648C123.239 12.648 123.403 12.6585 123.505 12.6696C123.612 12.6812 123.608 12.6891 123.528 12.6655L125.786 4.99054C124.853 4.71628 123.869 4.648 123.001 4.648V12.648ZM123.586 12.6821C123.654 12.7008 123.627 12.6985 123.539 12.6578C123.459 12.6212 123.231 12.5082 122.959 12.2703L128.227 6.2497C127.362 5.49275 126.363 5.15047 125.727 4.97393L123.586 12.6821ZM123.137 12.4174C122.518 11.9357 122.287 11.368 122.215 11.1149L129.907 8.91711C129.643 7.99202 129.1 6.92029 128.049 6.10259L123.137 12.4174ZM122.316 11.4205C122.27 11.2979 122.251 11.216 122.246 11.1945C122.241 11.1706 122.244 11.1797 122.25 11.2304C122.263 11.3371 122.277 11.5364 122.277 11.852H130.277C130.277 10.9276 130.217 9.70622 129.806 8.61151L122.316 11.4205ZM122.277 11.852V31.832H130.277V11.852H122.277ZM122.277 31.832C122.277 32.0695 122.272 32.2386 122.265 32.3508C122.262 32.4056 122.259 32.436 122.258 32.446C122.257 32.4582 122.259 32.4316 122.269 32.3765L130.14 33.8075C130.257 33.1659 130.277 32.4401 130.277 31.832H122.277ZM122.221 32.7299C122.245 32.4719 122.299 32.2942 122.326 32.2156C122.354 32.1344 122.371 32.109 122.351 32.1456L129.41 35.9104C129.732 35.307 130.097 34.458 130.188 33.4541L122.221 32.7299ZM122.33 32.1867C122.781 31.317 123.47 31.0284 123.618 30.9771C123.737 30.9361 123.613 31 123.073 31V39C124.069 39 125.181 38.9019 126.235 38.5369C127.32 38.1616 128.645 37.387 129.432 35.8693L122.33 32.1867ZM123.073 31C122.695 31 122.456 30.9848 122.327 30.9705C122.265 30.9636 122.257 30.96 122.291 30.9673C122.319 30.9732 122.439 31 122.614 31.0701L119.643 38.4979C120.794 38.9581 122.149 39 123.073 39V31ZM122.614 31.0701C122.759 31.1278 122.91 31.2104 123.054 31.3204C123.199 31.43 123.313 31.549 123.399 31.6612L117.058 36.5388C117.729 37.4101 118.607 38.0834 119.643 38.4979L122.614 31.0701ZM123.429 31.7C118.033 24.5049 114.463 19.778 112.74 17.5442L106.406 22.4318C108.09 24.614 111.625 29.2951 117.029 36.5L123.429 31.7ZM105.573 19.988V31.832H113.573V19.988H105.573ZM105.573 31.832C105.573 32.0695 105.568 32.2386 105.561 32.3508C105.558 32.4056 105.555 32.436 105.554 32.446C105.553 32.4582 105.555 32.4316 105.565 32.3765L113.436 33.8075C113.553 33.1659 113.573 32.4401 113.573 31.832H105.573ZM105.517 32.7299C105.541 32.4719 105.595 32.2942 105.622 32.2156C105.65 32.1344 105.667 32.109 105.647 32.1456L112.706 35.9104C113.028 35.307 113.393 34.458 113.484 33.4541L105.517 32.7299ZM105.626 32.1867C106.077 31.317 106.766 31.0284 106.914 30.9771C107.033 30.9361 106.909 31 106.369 31V39C107.365 39 108.477 38.9019 109.531 38.5369C110.616 38.1616 111.941 37.387 112.728 35.8693L105.626 32.1867ZM106.369 31C105.863 31 105.768 30.938 105.908 30.9878C106.088 31.0518 106.75 31.35 107.184 32.1867L100.082 35.8693C100.852 37.354 102.138 38.1382 103.23 38.5262C104.282 38.9 105.387 39 106.369 39V31ZM107.162 32.1456C107.136 32.0972 107.137 32.0916 107.15 32.1257C107.162 32.1591 107.194 32.2525 107.218 32.3984L99.3273 33.7136C99.4688 34.5625 99.782 35.3076 100.103 35.9104L107.162 32.1456ZM107.259 32.7238C107.249 32.6047 107.237 32.3174 107.237 31.796H99.2369C99.2369 32.3786 99.2486 32.9313 99.2867 33.3882L107.259 32.7238ZM107.237 31.796V11.708H99.2369V31.796H107.237ZM107.237 11.708C107.237 11.5576 107.241 11.4378 107.248 11.3454C107.254 11.2522 107.262 11.1974 107.265 11.175C107.269 11.1512 107.266 11.1778 107.247 11.2425C107.228 11.3056 107.184 11.4336 107.096 11.5996L100.026 7.85644C99.3299 9.17072 99.2369 10.6626 99.2369 11.708H107.237ZM107.058 11.6706C106.958 11.8488 106.796 12.0675 106.552 12.2696C106.306 12.4732 106.044 12.6043 105.809 12.6783L103.4 5.04967C101.934 5.51286 100.783 6.49257 100.064 7.78543L107.058 11.6706ZM105.809 12.6783C105.756 12.6953 105.769 12.6852 105.874 12.6723C105.977 12.6598 106.138 12.648 106.369 12.648V4.648C105.425 4.648 104.39 4.73719 103.4 5.04967L105.809 12.6783ZM106.369 12.648C106.602 12.648 106.749 12.66 106.825 12.6698C106.908 12.6804 106.861 12.6823 106.73 12.636L109.392 5.09204C108.366 4.72985 107.283 4.648 106.369 4.648V12.648ZM106.99 12.7181C107.052 12.7352 107 12.7261 106.879 12.6681C106.772 12.6169 106.468 12.4595 106.132 12.1244L111.789 6.46756C110.868 5.54587 109.734 5.17738 109.131 5.00993L106.99 12.7181ZM106.561 12.496C106.478 12.4335 106.413 12.3796 106.371 12.3439C106.328 12.3067 106.294 12.2757 106.272 12.2543C106.228 12.2131 106.2 12.1847 106.194 12.1782C106.182 12.166 106.196 12.1796 106.244 12.2343C106.338 12.341 106.489 12.5175 106.705 12.7795L112.873 7.68447C112.633 7.39453 112.417 7.13896 112.236 6.9337C112.173 6.86281 111.8 6.42547 111.361 6.09601L106.561 12.496ZM106.566 12.6013C111.625 19.4825 115.037 24.0686 116.774 26.3198L123.108 21.4322C121.437 19.2674 118.081 14.7575 113.012 7.86265L106.566 12.6013ZM123.941 23.876V11.708H115.941V23.876H123.941ZM123.941 11.708C123.941 11.5576 123.945 11.4378 123.952 11.3454C123.958 11.2522 123.966 11.1974 123.969 11.175C123.973 11.1512 123.97 11.1778 123.951 11.2425C123.932 11.3056 123.888 11.4336 123.8 11.5996L116.73 7.85644C116.034 9.17072 115.941 10.6626 115.941 11.708H123.941ZM129.183 17.972L125.237 17.3144L125.213 17.4614L125.199 17.6099L129.183 17.972ZM129.507 17L125.985 15.1036L125.931 15.2046L125.882 15.3085L129.507 17ZM134.763 16.676L132.172 19.7238L132.196 19.7439L132.22 19.7637L134.763 16.676ZM135.411 18.224L131.413 18.3618L131.418 18.4922L131.431 18.622L135.411 18.224ZM135.375 33.128L131.429 32.4704L131.405 32.6174L131.391 32.7659L135.375 33.128ZM135.051 34.064L131.522 32.1816L131.497 32.2281L131.473 32.2751L135.051 34.064ZM129.507 34.028L125.882 35.7195L125.918 35.7952L125.956 35.8693L129.507 34.028ZM129.183 33.092L125.199 33.4541L125.216 33.6319L125.248 33.8075L129.183 33.092ZM135.051 12.536L131.522 10.6537L131.497 10.7001L131.473 10.7471L135.051 12.536ZM134.115 13.256L132.911 9.44167L132.911 9.44167L134.115 13.256ZM130.479 13.256L131.684 9.44167L131.684 9.44167L130.479 13.256ZM129.507 12.5L125.882 14.1915L125.927 14.2882L125.978 14.3824L129.507 12.5ZM129.183 11.564L125.197 11.8962L125.213 12.0891L125.248 12.2795L129.183 11.564ZM129.183 9.08L125.237 8.4224L125.213 8.56942L125.199 8.71786L129.183 9.08ZM129.507 8.144L125.956 6.30273L125.942 6.32884L125.929 6.35514L129.507 8.144ZM135.051 8.144L131.447 9.87926L131.483 9.95357L131.522 10.0263L135.051 8.144ZM135.375 9.116L131.389 9.44818L131.405 9.64108L131.44 9.83153L135.375 9.116ZM135.375 11.6L131.429 10.9424L131.405 11.0894L131.391 11.2379L135.375 11.6ZM133.147 19.196C133.147 18.6649 133.16 18.4079 133.167 18.3341L125.199 17.6099C125.158 18.0641 125.147 18.6231 125.147 19.196H133.147ZM133.129 18.6296C133.121 18.6772 133.112 18.7134 133.106 18.7373C133.1 18.7612 133.096 18.7749 133.095 18.7779C133.093 18.7824 133.102 18.7545 133.132 18.6915L125.882 15.3085C125.612 15.8874 125.362 16.5665 125.237 17.3144L133.129 18.6296ZM133.029 18.8964C132.552 19.7824 131.843 20.0539 131.726 20.0927C131.657 20.1158 131.663 20.1053 131.776 20.091C131.886 20.0771 132.062 20.064 132.315 20.064V12.064C131.329 12.064 130.233 12.1575 129.196 12.5033C128.143 12.8541 126.798 13.5936 125.985 15.1036L133.029 18.8964ZM132.315 20.064C132.487 20.064 132.615 20.0717 132.704 20.0809C132.793 20.0902 132.829 20.0996 132.821 20.0976C132.813 20.0957 132.743 20.0778 132.632 20.0252C132.519 19.9718 132.354 19.8782 132.172 19.7238L137.354 13.6282C135.755 12.2691 133.719 12.064 132.315 12.064V20.064ZM132.22 19.7637C131.893 19.4941 131.669 19.1655 131.541 18.8596C131.423 18.5767 131.414 18.3834 131.413 18.3618L139.409 18.0861C139.358 16.6292 138.859 14.8672 137.306 13.5883L132.22 19.7637ZM131.431 18.622C131.431 18.6212 131.432 18.6357 131.434 18.6687C131.436 18.701 131.438 18.7452 131.44 18.8028C131.444 18.9194 131.447 19.0728 131.447 19.268H139.447C139.447 18.7738 139.435 18.2673 139.391 17.826L131.431 18.622ZM131.447 19.268V31.868H139.447V19.268H131.447ZM131.447 31.868C131.447 32.0898 131.442 32.2539 131.436 32.3688C131.429 32.4917 131.422 32.5154 131.429 32.4704L139.321 33.7856C139.424 33.1664 139.447 32.4829 139.447 31.868H131.447ZM131.391 32.7659C131.415 32.5079 131.469 32.3302 131.496 32.2516C131.524 32.1704 131.541 32.145 131.522 32.1816L138.58 35.9464C138.902 35.343 139.267 34.494 139.359 33.4901L131.391 32.7659ZM131.473 32.2751C131.951 31.3204 132.71 31.0216 132.844 30.9762C132.961 30.9367 132.832 31 132.279 31V39C133.262 39 134.363 38.9073 135.404 38.5558C136.462 38.1984 137.839 37.4316 138.629 35.8529L131.473 32.2751ZM132.279 31C131.756 31 131.646 30.937 131.776 30.9823C131.94 31.0399 132.616 31.3334 133.058 32.1867L125.956 35.8693C126.734 37.3706 128.04 38.1501 129.128 38.5317C130.182 38.901 131.29 39 132.279 39V31ZM133.132 32.3365C133.114 32.298 133.101 32.2684 133.092 32.2473C133.088 32.2369 133.085 32.229 133.083 32.2236C133.081 32.2182 133.08 32.2155 133.08 32.2156C133.08 32.2156 133.081 32.2187 133.083 32.2249C133.085 32.231 133.088 32.2405 133.091 32.2533C133.098 32.2784 133.108 32.3199 133.119 32.3765L125.248 33.8075C125.379 34.5283 125.632 35.1825 125.882 35.7195L133.132 32.3365ZM133.167 32.7299C133.16 32.6589 133.147 32.3931 133.147 31.832H125.147C125.147 32.4229 125.158 32.9971 125.199 33.4541L133.167 32.7299ZM133.147 31.832V19.196H125.147V31.832H133.147ZM131.473 10.7471C131.673 10.3485 131.953 10.028 132.252 9.7975C132.537 9.57854 132.785 9.48117 132.911 9.44167L135.32 17.0703C136.511 16.6942 137.853 15.8768 138.629 14.3249L131.473 10.7471ZM132.911 9.44167C132.98 9.41977 132.97 9.43088 132.847 9.4454C132.728 9.45935 132.543 9.472 132.279 9.472V17.472C133.24 17.472 134.311 17.3888 135.32 17.0703L132.911 9.44167ZM132.279 9.472C132.032 9.472 131.858 9.45977 131.748 9.44649C131.633 9.43278 131.622 9.42221 131.684 9.44167L129.275 17.0703C130.274 17.3859 131.327 17.472 132.279 17.472V9.472ZM131.684 9.44167C131.835 9.48948 132.081 9.59232 132.35 9.80159C132.628 10.0183 132.866 10.2989 133.036 10.6176L125.978 14.3824C126.746 15.8234 128.005 16.6695 129.275 17.0703L131.684 9.44167ZM133.132 10.8085C133.114 10.77 133.101 10.7404 133.092 10.7193C133.088 10.7089 133.085 10.701 133.083 10.6956C133.081 10.6902 133.08 10.6875 133.08 10.6876C133.08 10.6876 133.081 10.6907 133.083 10.6969C133.085 10.703 133.088 10.7125 133.091 10.7253C133.098 10.7504 133.108 10.7919 133.119 10.8485L125.248 12.2795C125.379 13.0003 125.632 13.6545 125.882 14.1915L133.132 10.8085ZM133.169 11.2318C133.159 11.1127 133.147 10.8254 133.147 10.304H125.147C125.147 10.8866 125.159 11.4393 125.197 11.8962L133.169 11.2318ZM133.147 10.304C133.147 9.77295 133.16 9.51593 133.167 9.44214L125.199 8.71786C125.158 9.17207 125.147 9.73105 125.147 10.304H133.147ZM133.129 9.73759C133.111 9.84127 133.09 9.90948 133.08 9.93844C133.07 9.96738 133.068 9.96605 133.085 9.93285L125.929 6.35514C125.631 6.95118 125.367 7.64712 125.237 8.4224L133.129 9.73759ZM133.058 9.98527C132.607 10.855 131.918 11.1436 131.769 11.1949C131.651 11.2359 131.775 11.172 132.315 11.172V3.172C131.319 3.172 130.207 3.2701 129.153 3.63505C128.068 4.01036 126.743 4.78496 125.956 6.30273L133.058 9.98527ZM132.315 11.172C132.842 11.172 132.939 11.2359 132.794 11.1842C132.61 11.1187 131.889 10.7966 131.447 9.87926L138.655 6.40874C137.901 4.84335 136.568 4.03529 135.472 3.64579C134.415 3.27009 133.3 3.172 132.315 3.172V11.172ZM131.522 10.0263C131.532 10.0452 131.51 10.0091 131.481 9.92191C131.452 9.83474 131.408 9.67283 131.389 9.44818L139.361 8.78381C139.277 7.77871 138.931 6.91837 138.58 6.26165L131.522 10.0263ZM131.44 9.83153C131.43 9.78083 131.428 9.75652 131.429 9.76713C131.43 9.77602 131.433 9.80406 131.436 9.85489C131.442 9.95907 131.447 10.1172 131.447 10.34H139.447C139.447 9.74377 139.426 9.03637 139.311 8.40046L131.44 9.83153ZM131.447 10.34C131.447 10.5618 131.442 10.7259 131.436 10.8408C131.429 10.9637 131.422 10.9874 131.429 10.9424L139.321 12.2576C139.424 11.6384 139.447 10.9549 139.447 10.34H131.447ZM131.391 11.2379C131.415 10.9799 131.469 10.8022 131.496 10.7236C131.524 10.6424 131.541 10.617 131.522 10.6537L138.58 14.4183C138.902 13.815 139.267 12.966 139.359 11.9621L131.391 11.2379ZM138.359 10.556L134.413 9.8984L134.389 10.0454L134.375 10.1939L138.359 10.556ZM138.719 9.584L142.248 11.4664L142.259 11.4459L142.27 11.4253L138.719 9.584ZM144.515 9.944L148.352 8.81534L148.323 8.71587L148.289 8.61805L144.515 9.944ZM144.623 33.092L140.687 32.3765L140.655 32.5521L140.639 32.7299L144.623 33.092ZM144.299 34.028L140.769 32.1456L140.758 32.1661L140.748 32.1867L144.299 34.028ZM138.539 33.632L142.353 32.4275L142.321 32.3266L142.284 32.2275L138.539 33.632ZM142.323 11.78C142.323 11.2489 142.336 10.9919 142.342 10.9181L134.375 10.1939C134.334 10.6481 134.323 11.2071 134.323 11.78H142.323ZM142.304 11.2136C142.28 11.3595 142.248 11.4529 142.236 11.4863C142.223 11.5204 142.222 11.5148 142.248 11.4664L135.189 7.70164C134.868 8.30442 134.555 9.04954 134.413 9.8984L142.304 11.2136ZM142.27 11.4253C141.819 12.295 141.129 12.5836 140.981 12.6349C140.863 12.6759 140.987 12.612 141.527 12.612V4.612C140.531 4.612 139.419 4.7101 138.364 5.07505C137.28 5.45036 135.955 6.22496 135.168 7.74273L142.27 11.4253ZM141.527 12.612C141.777 12.612 141.93 12.629 142.004 12.6413C142.08 12.654 142.032 12.6548 141.905 12.5984C141.772 12.539 141.54 12.4101 141.299 12.1638C141.047 11.908 140.856 11.5969 140.741 11.2699L148.289 8.61805C147.049 5.08884 143.446 4.612 141.527 4.612V12.612ZM140.677 11.0727C140.641 10.9483 140.652 10.9347 140.668 11.1008C140.683 11.2513 140.695 11.4839 140.695 11.816H148.695C148.695 10.8896 148.64 9.79367 148.352 8.81534L140.677 11.0727ZM140.695 11.816V31.832H148.695V11.816H140.695ZM140.695 31.832C140.695 32.0695 140.69 32.2386 140.683 32.3508C140.68 32.4056 140.677 32.436 140.676 32.446C140.675 32.4582 140.677 32.4316 140.687 32.3765L148.558 33.8075C148.675 33.1659 148.695 32.4401 148.695 31.832H140.695ZM140.639 32.7299C140.663 32.4719 140.717 32.2942 140.744 32.2156C140.772 32.1344 140.789 32.109 140.769 32.1456L147.828 35.9104C148.15 35.307 148.515 34.458 148.606 33.4541L140.639 32.7299ZM140.748 32.1867C141.199 31.317 141.888 31.0284 142.036 30.9771C142.155 30.9361 142.031 31 141.491 31V39C142.487 39 143.599 38.9019 144.653 38.5369C145.737 38.1616 147.063 37.387 147.85 35.8693L140.748 32.1867ZM141.491 31C140.945 31 140.93 30.9153 141.175 31.0288C141.324 31.0981 141.568 31.2418 141.815 31.5067C142.07 31.7809 142.251 32.1037 142.353 32.4275L134.724 34.8365C135.877 38.4871 139.547 39 141.491 39V31ZM142.284 32.2275C142.33 32.3501 142.349 32.432 142.353 32.4535C142.359 32.4774 142.355 32.4683 142.349 32.4176C142.337 32.3109 142.323 32.1116 142.323 31.796H134.323C134.323 32.7204 134.383 33.9418 134.793 35.0365L142.284 32.2275ZM142.323 31.796V11.78H134.323V31.796H142.323ZM160.277 8.144L156.747 6.26164L156.723 6.30807L156.699 6.35514L160.277 8.144ZM161.249 7.388L162.453 11.2023L162.453 11.2023L161.249 7.388ZM164.885 7.388L163.68 11.2023L163.68 11.2023L164.885 7.388ZM165.821 8.144L162.196 9.83555L162.241 9.93221L162.291 10.0263L165.821 8.144ZM166.145 9.116L162.159 9.4482L162.175 9.64109L162.209 9.83153L166.145 9.116ZM166.145 33.092L162.199 32.4344L162.175 32.5814L162.161 32.7298L166.145 33.092ZM165.821 33.992L162.348 32.0075L162.336 32.0284L162.324 32.0494L165.821 33.992ZM159.989 33.2L163.937 32.5555L162.569 24.1772L156.979 30.566L159.989 33.2ZM149.873 32.12L146.954 34.8545L146.962 34.8638L146.971 34.873L149.873 32.12ZM149.873 18.908L146.972 16.154L146.963 16.1637L146.954 16.1735L149.873 18.908ZM159.917 17.864L156.824 20.4003L163.917 29.0504V17.864H159.917ZM159.953 9.08L156.007 8.4224L155.983 8.56942L155.969 8.71786L159.953 9.08ZM158.909 27.692L155.974 24.9744L155.946 25.0042L155.919 25.0345L158.909 27.692ZM158.945 23.372L155.854 25.911L155.881 25.9433L155.908 25.9752L158.945 23.372ZM154.373 23.372L157.363 26.0295L157.386 26.0025L157.41 25.9752L154.373 23.372ZM163.806 10.0264C163.636 10.3451 163.398 10.6257 163.12 10.8424C162.851 11.0517 162.605 11.1545 162.453 11.2023L160.044 3.57367C158.775 3.97451 157.516 4.82062 156.747 6.26164L163.806 10.0264ZM162.453 11.2023C162.392 11.2218 162.403 11.2112 162.517 11.1975C162.628 11.1842 162.801 11.172 163.049 11.172V3.172C162.097 3.172 161.044 3.25809 160.044 3.57367L162.453 11.2023ZM163.049 11.172C163.313 11.172 163.498 11.1846 163.617 11.1986C163.74 11.2131 163.75 11.2242 163.68 11.2023L166.089 3.57367C165.081 3.25517 164.01 3.172 163.049 3.172V11.172ZM163.68 11.2023C163.522 11.1522 163.247 11.0387 162.948 10.7968C162.635 10.5439 162.372 10.2128 162.196 9.83555L169.446 6.45245C168.708 4.87269 167.378 3.98055 166.089 3.57367L163.68 11.2023ZM162.291 10.0263C162.302 10.0452 162.28 10.0091 162.251 9.92191C162.222 9.83474 162.177 9.67284 162.159 9.4482L170.131 8.7838C170.047 7.7787 169.701 6.91838 169.35 6.26166L162.291 10.0263ZM162.209 9.83153C162.2 9.78082 162.198 9.75651 162.199 9.76713C162.2 9.77602 162.203 9.80406 162.206 9.85488C162.212 9.95907 162.217 10.1172 162.217 10.34H170.217C170.217 9.74377 170.196 9.03637 170.08 8.40047L162.209 9.83153ZM162.217 10.34V31.832H170.217V10.34H162.217ZM162.217 31.832C162.217 32.0538 162.212 32.2179 162.205 32.3328C162.198 32.4557 162.192 32.4794 162.199 32.4344L170.09 33.7496C170.194 33.1304 170.217 32.4469 170.217 31.832H162.217ZM162.161 32.7298C162.186 32.4627 162.244 32.2679 162.282 32.1601C162.321 32.0519 162.352 31.9996 162.348 32.0075L169.294 35.9765C169.65 35.3532 170.034 34.4896 170.128 33.4542L162.161 32.7298ZM162.324 32.0494C162.822 31.1534 163.542 30.9193 163.575 30.9087C163.613 30.8966 163.572 30.9136 163.421 30.9317C163.273 30.9495 163.057 30.964 162.761 30.964V38.964C163.806 38.964 164.938 38.8696 165.997 38.5333C167.05 38.1987 168.46 37.4786 169.318 35.9346L162.324 32.0494ZM162.761 30.964C162.331 30.964 162.544 30.8752 162.973 31.1484C163.214 31.3016 163.46 31.5313 163.65 31.8332C163.837 32.1274 163.91 32.3932 163.937 32.5555L156.041 33.8445C156.303 35.4464 157.164 36.9337 158.678 37.8976C160.032 38.7588 161.535 38.964 162.761 38.964V30.964ZM156.979 30.566C156.866 30.6949 156.647 30.928 155.777 30.928V38.928C158.507 38.928 161.096 38.0091 162.999 35.834L156.979 30.566ZM155.777 30.928C154.926 30.928 153.954 30.6103 152.775 29.367L146.971 34.873C149.343 37.3737 152.308 38.928 155.777 38.928V30.928ZM152.792 29.3855C151.679 28.1973 151.209 26.9675 151.209 25.532H143.209C143.209 29.0885 144.515 32.2507 146.954 34.8545L152.792 29.3855ZM151.209 25.532C151.209 24.0619 151.687 22.8226 152.792 21.6425L146.954 16.1735C144.507 18.7854 143.209 21.9621 143.209 25.532H151.209ZM152.774 21.662C154 20.3705 154.976 20.064 155.777 20.064V12.064C152.306 12.064 149.346 13.6535 146.972 16.154L152.774 21.662ZM155.777 20.064C156.549 20.064 156.715 20.2673 156.824 20.4003L163.01 15.3277C161.151 13.0607 158.557 12.064 155.777 12.064V20.064ZM163.917 17.864V10.304H155.917V17.864H163.917ZM163.917 10.304C163.917 9.77295 163.93 9.51592 163.936 9.44214L155.969 8.71786C155.928 9.17207 155.917 9.73105 155.917 10.304H163.917ZM163.898 9.73759C163.881 9.84127 163.86 9.90948 163.85 9.93844C163.84 9.96738 163.838 9.96605 163.855 9.93285L156.699 6.35514C156.401 6.95118 156.137 7.64712 156.007 8.4224L163.898 9.73759ZM151.564 30.4666C152.931 31.886 154.722 32.664 156.713 32.664V24.664C156.767 24.664 156.897 24.6765 157.056 24.7444C157.213 24.8119 157.303 24.8929 157.326 24.9174L151.564 30.4666ZM156.713 32.664C158.712 32.664 160.543 31.8748 161.899 30.3495L155.919 25.0345C155.979 24.9669 156.109 24.8516 156.309 24.7633C156.506 24.676 156.661 24.664 156.713 24.664V32.664ZM161.844 30.4096C163.019 29.141 163.809 27.4947 163.809 25.568H155.809C155.809 25.4151 155.842 25.2535 155.901 25.1144C155.956 24.9842 156.005 24.9402 155.974 24.9744L161.844 30.4096ZM163.809 25.568C163.809 23.7077 163.101 22.0747 161.982 20.7688L155.908 25.9752C155.942 26.0144 155.909 25.9871 155.871 25.8895C155.83 25.7858 155.809 25.6697 155.809 25.568H163.809ZM162.036 20.833C160.639 19.1323 158.693 18.364 156.677 18.364V26.364C156.686 26.364 156.548 26.3641 156.339 26.2712C156.119 26.1734 155.952 26.0308 155.854 25.911L162.036 20.833ZM156.677 18.364C154.661 18.364 152.742 19.1287 151.336 20.7688L157.41 25.9752C157.328 26.0703 157.183 26.1938 156.984 26.2806C156.794 26.3637 156.669 26.364 156.677 26.364V18.364ZM151.383 20.7145C150.223 22.0198 149.509 23.6645 149.509 25.532H157.509C157.509 25.6338 157.488 25.7609 157.439 25.8836C157.392 26.0007 157.346 26.0482 157.363 26.0295L151.383 20.7145ZM149.509 25.532C149.509 27.5015 150.327 29.1828 151.564 30.4666L157.326 24.9174C157.298 24.888 157.353 24.9377 157.413 25.0756C157.477 25.2224 157.509 25.3861 157.509 25.532H149.509ZM171.569 18.404L174.29 21.3352L174.29 21.3352L171.569 18.404ZM185.357 18.404L182.617 21.3189L182.627 21.3277L182.636 21.3364L185.357 18.404ZM186.797 30.824L190.117 33.0548L190.125 33.0429L190.133 33.0309L186.797 30.824ZM183.017 34.244L184.782 37.8334L184.794 37.8276L184.805 37.8217L183.017 34.244ZM173.837 34.172L171.957 37.703L171.979 37.7149L172.002 37.7265L173.837 34.172ZM170.057 30.716L166.712 32.9106L166.732 32.941L166.753 32.971L170.057 30.716ZM176.069 28.124L173.606 31.2761L173.637 31.3004L173.669 31.324L176.069 28.124ZM180.785 28.088L178.369 24.8996L178.369 24.8996L180.785 28.088ZM180.857 22.796L178.408 25.9589L178.408 25.9589L180.857 22.796ZM176.033 22.832L173.522 19.7183L173.522 19.7183L176.033 22.832ZM172.545 25.532C172.545 23.7055 173.131 22.4113 174.29 21.3352L168.847 15.4728C165.974 18.1407 164.545 21.5985 164.545 25.532H172.545ZM174.29 21.3352C175.616 20.1039 176.964 19.596 178.481 19.596V11.596C174.813 11.596 171.553 12.9601 168.847 15.4728L174.29 21.3352ZM178.481 19.596C179.995 19.596 181.322 20.102 182.617 21.3189L188.096 15.4891C185.407 12.962 182.15 11.596 178.481 11.596V19.596ZM182.636 21.3364C183.759 22.378 184.345 23.654 184.345 25.496H192.345C192.345 21.578 190.938 18.126 188.077 15.4716L182.636 21.3364ZM184.345 25.496C184.345 26.7567 184.031 27.7549 183.46 28.6171L190.133 33.0309C191.626 30.7731 192.345 28.2193 192.345 25.496H184.345ZM183.476 28.5932C182.786 29.6214 182.03 30.2651 181.228 30.6663L184.805 37.8217C186.979 36.7349 188.744 35.0986 190.117 33.0548L183.476 28.5932ZM181.251 30.6546C180.32 31.1128 179.398 31.324 178.445 31.324V39.324C180.659 39.324 182.786 38.8152 184.782 37.8334L181.251 30.6546ZM178.445 31.324C177.535 31.324 176.625 31.11 175.671 30.6175L172.002 37.7265C174.024 38.77 176.186 39.324 178.445 39.324V31.324ZM175.716 30.641C174.847 30.1786 174.06 29.4858 173.36 28.461L166.753 32.971C168.117 34.9702 169.85 36.5814 171.957 37.703L175.716 30.641ZM173.401 28.5214C172.84 27.6677 172.545 26.7092 172.545 25.532H164.545C164.545 28.1948 165.257 30.6923 166.712 32.9106L173.401 28.5214ZM173.669 31.324C174.978 32.3064 176.58 32.988 178.409 32.988V24.988C178.454 24.988 178.498 24.9923 178.538 24.9995C178.576 25.0066 178.603 25.0151 178.615 25.0196C178.639 25.0285 178.59 25.0148 178.469 24.924L173.669 31.324ZM178.409 32.988C180.274 32.988 181.892 32.2669 183.2 31.2764L178.369 24.8996C178.227 25.0076 178.163 25.0288 178.18 25.0224C178.189 25.0189 178.216 25.0097 178.258 25.0016C178.301 24.9935 178.352 24.988 178.409 24.988V32.988ZM183.2 31.2764C185.18 29.7764 185.973 27.5932 185.973 25.424H177.973C177.973 25.5659 177.949 25.5073 178.022 25.3429C178.059 25.2614 178.111 25.1732 178.178 25.0883C178.246 25.0037 178.314 24.9414 178.369 24.8996L183.2 31.2764ZM185.973 25.424C185.973 23.3515 185.269 21.1535 183.305 19.6331L178.408 25.9589C178.33 25.8989 178.248 25.8195 178.173 25.7218C178.098 25.6244 178.046 25.529 178.012 25.4485C177.945 25.2902 177.973 25.2503 177.973 25.424H185.973ZM183.305 19.6331C181.927 18.5658 180.275 17.932 178.445 17.932V25.932C178.437 25.932 178.422 25.9313 178.401 25.9277C178.38 25.9241 178.361 25.9188 178.347 25.9137C178.333 25.9087 178.329 25.9061 178.338 25.9108C178.347 25.9157 178.37 25.9297 178.408 25.9589L183.305 19.6331ZM178.445 17.932C176.569 17.932 174.896 18.6096 173.522 19.7183L178.544 25.9457C178.582 25.9145 178.605 25.9003 178.612 25.8963C178.619 25.8925 178.612 25.8972 178.592 25.9046C178.572 25.9121 178.546 25.9197 178.516 25.9251C178.486 25.9304 178.461 25.932 178.445 25.932V17.932ZM173.522 19.7183C171.621 21.2513 170.917 23.4171 170.917 25.496H178.917C178.917 25.3243 178.944 25.3526 178.885 25.4935C178.855 25.5647 178.809 25.6493 178.744 25.736C178.679 25.8228 178.609 25.8931 178.544 25.9457L173.522 19.7183ZM170.917 25.496C170.917 27.628 171.685 29.7757 173.606 31.2761L178.531 24.9719C178.586 25.0149 178.653 25.0776 178.718 25.1612C178.783 25.245 178.833 25.3316 178.868 25.4111C178.938 25.5719 178.917 25.63 178.917 25.496H170.917ZM190.706 9.044L186.761 8.3864L186.736 8.53342L186.723 8.68186L190.706 9.044ZM191.03 8.072L187.479 6.23073L187.441 6.30482L187.406 6.38046L191.03 8.072ZM196.574 8.072L200.104 6.18964L200.088 6.1594L200.071 6.12943L196.574 8.072ZM196.898 9.044L192.912 9.37618L192.926 9.53972L192.953 9.70159L196.898 9.044ZM197.186 28.628L193.756 30.686L193.805 30.7676L193.858 30.8468L197.186 28.628ZM199.13 29.024L198.032 32.8701L198.294 32.9452L198.565 32.9838L199.13 29.024ZM199.742 29.312L197.449 32.5889L197.505 32.6283L197.563 32.6658L199.742 29.312ZM199.742 34.64L202.019 37.9288L202.028 37.9229L202.036 37.9169L199.742 34.64ZM195.278 34.856L194.763 38.8227L194.778 38.8246L194.792 38.8263L195.278 34.856ZM191.678 33.02L195.167 31.063L195.159 31.0492L195.151 31.0354L191.678 33.02ZM194.67 10.268C194.67 9.73695 194.683 9.47993 194.69 9.40614L186.723 8.68186C186.682 9.13607 186.67 9.69505 186.67 10.268H194.67ZM194.652 9.70159C194.644 9.74921 194.636 9.78538 194.63 9.80926C194.624 9.83318 194.619 9.84692 194.618 9.84991C194.617 9.85442 194.626 9.8265 194.655 9.76354L187.406 6.38046C187.136 6.95944 186.886 7.6385 186.761 8.3864L194.652 9.70159ZM194.581 9.91327C194.13 10.783 193.441 11.0716 193.293 11.1229C193.175 11.1639 193.298 11.1 193.838 11.1V3.1C192.843 3.1 191.73 3.1981 190.676 3.56305C189.592 3.93836 188.266 4.71296 187.479 6.23073L194.581 9.91327ZM193.838 11.1C194.324 11.1 194.416 11.1601 194.281 11.1122C194.106 11.05 193.5 10.7745 193.078 10.0146L200.071 6.12943C199.289 4.72151 198.047 3.96 196.96 3.57379C195.913 3.20188 194.817 3.1 193.838 3.1V11.1ZM193.045 9.95435C193.055 9.97322 193.034 9.93708 193.005 9.84991C192.976 9.76274 192.931 9.60083 192.912 9.37618L200.885 8.71182C200.801 7.70671 200.454 6.84637 200.104 6.18964L193.045 9.95435ZM192.953 9.70159C192.945 9.65661 192.952 9.6803 192.959 9.8032C192.966 9.91806 192.97 10.0822 192.97 10.304H200.97C200.97 9.6891 200.947 9.00556 200.844 8.38641L192.953 9.70159ZM192.97 10.304V26.972H200.97V10.304H192.97ZM192.97 26.972C192.97 27.4938 192.991 28.0374 193.058 28.5514C193.109 28.9395 193.241 29.8266 193.756 30.686L200.616 26.57C200.732 26.7623 200.807 26.93 200.855 27.0499C200.903 27.1717 200.933 27.2709 200.951 27.337C200.985 27.463 200.993 27.533 200.991 27.5166C200.99 27.5066 200.984 27.4571 200.979 27.3584C200.974 27.2617 200.97 27.1343 200.97 26.972H192.97ZM193.858 30.8468C195.194 32.8509 197.399 32.952 198.122 32.952V24.952C198.144 24.952 198.428 24.9495 198.837 25.0911C199.28 25.2443 199.984 25.613 200.515 26.4092L193.858 30.8468ZM198.122 32.952C198.218 32.952 198.294 32.9531 198.355 32.9549C198.416 32.9566 198.452 32.9587 198.467 32.9598C198.475 32.9603 198.473 32.9603 198.465 32.9595C198.456 32.9586 198.436 32.9565 198.407 32.9523C198.379 32.9482 198.333 32.9411 198.275 32.9294C198.218 32.9181 198.134 32.8994 198.032 32.8701L200.229 25.1779C199.438 24.9518 198.545 24.952 198.122 24.952V32.952ZM198.565 32.9838C198.15 32.9245 197.854 32.8027 197.706 32.7333C197.552 32.6604 197.463 32.5992 197.449 32.5889L202.036 26.0351C201.605 25.7331 200.785 25.2197 199.696 25.0642L198.565 32.9838ZM197.563 32.6658C197.101 32.3657 196.816 32.0107 196.656 31.7515C196.502 31.5025 196.446 31.3165 196.432 31.2696C196.413 31.201 196.462 31.3548 196.462 31.868H204.462C204.462 30.9892 204.392 30.0209 204.133 29.1004C203.887 28.2291 203.319 26.8661 201.922 25.9582L197.563 32.6658ZM196.462 31.868C196.462 32.1441 196.451 32.3514 196.437 32.4996C196.422 32.6516 196.406 32.7066 196.411 32.6894C196.414 32.679 196.454 32.522 196.584 32.2932C196.719 32.0574 196.984 31.6884 197.449 31.3631L202.036 37.9169C203.416 36.9514 203.935 35.5423 204.154 34.7006C204.394 33.777 204.462 32.7906 204.462 31.868H196.462ZM197.466 31.3512C197.853 31.083 198.156 31.0124 198.184 31.0057C198.231 30.9944 198.174 31.0126 197.965 31.0227C197.54 31.0432 196.83 31.0161 195.765 30.8857L194.792 38.8263C196.079 38.9839 197.289 39.0648 198.352 39.0133C199.247 38.97 200.739 38.8153 202.019 37.9288L197.466 31.3512ZM195.794 30.8893C195.489 30.8498 195.259 30.8008 195.091 30.7539C194.923 30.7069 194.836 30.6672 194.81 30.6537C194.785 30.6411 194.83 30.6603 194.908 30.7312C194.989 30.8057 195.085 30.9168 195.167 31.063L188.19 34.977C189.674 37.6221 192.476 38.5256 194.763 38.8227L195.794 30.8893ZM195.151 31.0354C195.014 30.7956 194.67 29.7975 194.67 27.404H186.67C186.67 30.1465 186.999 32.8924 188.205 35.0046L195.151 31.0354ZM194.67 27.404V10.268H186.67V27.404H194.67Z" fill="#8624A8" mask="url(#path-1-outside-1_2_72)"/>
</svg>
